<?xml version="1.0" encoding="utf-8"?>
<!-- Generator: Adobe Illustrator 23.1.1, SVG Export Plug-In . SVG Version: 6.00 Build 0)  -->
<svg version="1.1" id="location" xmlns="http://www.w3.org/2000/svg" xmlns:xlink="http://www.w3.org/1999/xlink" x="0px" y="0px"
	 viewBox="0 0 600 1550" style="enable-background:new 0 0 600 1550;" xml:space="preserve">
<style type="text/css">
	.st0{fill:none;}
	.st1{fill:none;stroke:#FFFFFF;}
	.st2{display:none;}
	.st3{display:inline;opacity:0.9;}
	.st4{opacity:0.2;}
	.st5{fill:none;stroke:#FFFFFF;stroke-width:0.5;stroke-miterlimit:10;}
	.st6{fill:#FFFFFF;}
	.st7{fill:none;stroke:#FFFFFF;stroke-width:3;stroke-linecap:round;stroke-linejoin:round;stroke-miterlimit:10;}
	
		.st8{fill:url(#_x31_0_lpi_10_x25_);stroke:#FFFFFF;stroke-width:3;stroke-linecap:round;stroke-linejoin:round;stroke-miterlimit:10;}
	.st9{opacity:0.5;fill:url(#_x31_0_lpi_10_x25_);}
</style>
<pattern  width="72" height="72" patternUnits="userSpaceOnUse" id="_x31_0_lpi_10_x25_" viewBox="80.6 -152.6 72 72" style="overflow:visible;">
	<g>
		<rect x="80.6" y="-152.6" class="st0" width="72" height="72"/>
		<g>
			<line class="st1" x1="144.4" y1="-80.8" x2="224.8" y2="-0.4"/>
			<line class="st1" x1="152.3" y1="-88.8" x2="232.8" y2="-8.3"/>
		</g>
		<g>
			<line class="st1" x1="72.4" y1="-80.8" x2="152.8" y2="-0.4"/>
			<line class="st1" x1="88.3" y1="-96.8" x2="168.8" y2="-16.3"/>
			<line class="st1" x1="104.3" y1="-112.8" x2="184.8" y2="-32.3"/>
			<line class="st1" x1="80.3" y1="-88.8" x2="160.8" y2="-8.3"/>
			<line class="st1" x1="96.3" y1="-104.8" x2="176.8" y2="-24.3"/>
			<line class="st1" x1="112.3" y1="-120.8" x2="192.8" y2="-40.3"/>
		</g>
		<g>
			<line class="st1" x1="0.4" y1="-80.8" x2="80.8" y2="-0.4"/>
			<line class="st1" x1="16.3" y1="-96.8" x2="96.8" y2="-16.3"/>
			<line class="st1" x1="32.3" y1="-112.8" x2="112.8" y2="-32.3"/>
			<line class="st1" x1="8.3" y1="-88.8" x2="88.8" y2="-8.3"/>
			<line class="st1" x1="24.3" y1="-104.8" x2="104.8" y2="-24.3"/>
			<line class="st1" x1="40.3" y1="-120.8" x2="120.8" y2="-40.3"/>
		</g>
		<g>
			<line class="st1" x1="112.4" y1="-120.9" x2="192.9" y2="-40.4"/>
			<line class="st1" x1="128.4" y1="-136.8" x2="208.8" y2="-56.4"/>
			<line class="st1" x1="144.4" y1="-152.8" x2="224.8" y2="-72.4"/>
			<line class="st1" x1="120.4" y1="-128.8" x2="200.8" y2="-48.4"/>
			<line class="st1" x1="136.4" y1="-144.8" x2="216.8" y2="-64.4"/>
			<line class="st1" x1="152.3" y1="-160.8" x2="232.8" y2="-80.3"/>
		</g>
		<g>
			<line class="st1" x1="40.4" y1="-120.9" x2="120.9" y2="-40.4"/>
			<line class="st1" x1="56.4" y1="-136.8" x2="136.8" y2="-56.4"/>
			<line class="st1" x1="72.4" y1="-152.8" x2="152.8" y2="-72.4"/>
			<line class="st1" x1="88.3" y1="-168.8" x2="168.8" y2="-88.3"/>
			<line class="st1" x1="104.3" y1="-184.8" x2="184.8" y2="-104.3"/>
			<line class="st1" x1="48.4" y1="-128.8" x2="128.8" y2="-48.4"/>
			<line class="st1" x1="64.4" y1="-144.8" x2="144.8" y2="-64.4"/>
			<line class="st1" x1="80.3" y1="-160.8" x2="160.8" y2="-80.3"/>
			<line class="st1" x1="96.3" y1="-176.8" x2="176.8" y2="-96.3"/>
			<line class="st1" x1="112.3" y1="-192.8" x2="192.8" y2="-112.3"/>
		</g>
		<g>
			<line class="st1" x1="0.4" y1="-152.8" x2="80.8" y2="-72.4"/>
			<line class="st1" x1="16.3" y1="-168.8" x2="96.8" y2="-88.3"/>
			<line class="st1" x1="32.3" y1="-184.8" x2="112.8" y2="-104.3"/>
			<line class="st1" x1="8.3" y1="-160.8" x2="88.8" y2="-80.3"/>
			<line class="st1" x1="24.3" y1="-176.8" x2="104.8" y2="-96.3"/>
			<line class="st1" x1="40.3" y1="-192.8" x2="120.8" y2="-112.3"/>
		</g>
		<g>
			<line class="st1" x1="112.4" y1="-192.9" x2="192.9" y2="-112.4"/>
			<line class="st1" x1="128.4" y1="-208.8" x2="208.8" y2="-128.4"/>
			<line class="st1" x1="144.4" y1="-224.8" x2="224.8" y2="-144.4"/>
			<line class="st1" x1="120.4" y1="-200.8" x2="200.8" y2="-120.4"/>
			<line class="st1" x1="136.4" y1="-216.8" x2="216.8" y2="-136.4"/>
			<line class="st1" x1="152.3" y1="-232.8" x2="232.8" y2="-152.3"/>
		</g>
		<g>
			<line class="st1" x1="40.4" y1="-192.9" x2="120.9" y2="-112.4"/>
			<line class="st1" x1="56.4" y1="-208.8" x2="136.8" y2="-128.4"/>
			<line class="st1" x1="72.4" y1="-224.8" x2="152.8" y2="-144.4"/>
			<line class="st1" x1="48.4" y1="-200.8" x2="128.8" y2="-120.4"/>
			<line class="st1" x1="64.4" y1="-216.8" x2="144.8" y2="-136.4"/>
			<line class="st1" x1="80.3" y1="-232.8" x2="160.8" y2="-152.3"/>
		</g>
		<g>
			<line class="st1" x1="0.4" y1="-224.8" x2="80.8" y2="-144.4"/>
			<line class="st1" x1="8.3" y1="-232.8" x2="88.8" y2="-152.3"/>
		</g>
	</g>
</pattern>
<g id="template" class="st2">
	<rect class="st3" width="600" height="1550"/>
</g>
<g id="grid_1_" class="st4">
	<g id="horizontal">
		<line class="st5" x1="0" y1="10.5" x2="600" y2="10.5"/>
		<line class="st5" x1="0" y1="32.6" x2="600" y2="32.6"/>
		<line class="st5" x1="0" y1="54.6" x2="600" y2="54.6"/>
		<line class="st5" x1="0" y1="76.7" x2="600" y2="76.7"/>
		<line class="st5" x1="0" y1="98.7" x2="600" y2="98.7"/>
		<line class="st5" x1="0" y1="120.8" x2="600" y2="120.8"/>
		<line class="st5" x1="0" y1="142.9" x2="600" y2="142.9"/>
		<line class="st5" x1="0" y1="164.9" x2="600" y2="164.9"/>
		<line class="st5" x1="0" y1="187" x2="600" y2="187"/>
		<line class="st5" x1="0" y1="209.1" x2="600" y2="209.1"/>
		<line class="st5" x1="0" y1="231.1" x2="600" y2="231.1"/>
		<line class="st5" x1="0" y1="253.2" x2="600" y2="253.2"/>
		<line class="st5" x1="0" y1="275.2" x2="600" y2="275.2"/>
		<line class="st5" x1="0" y1="297.3" x2="600" y2="297.3"/>
		<line class="st5" x1="0" y1="319.4" x2="600" y2="319.4"/>
		<line class="st5" x1="0" y1="341.4" x2="600" y2="341.4"/>
		<line class="st5" x1="0" y1="363.5" x2="600" y2="363.5"/>
		<line class="st5" x1="0" y1="385.6" x2="600" y2="385.6"/>
		<line class="st5" x1="0" y1="407.6" x2="600" y2="407.6"/>
		<line class="st5" x1="0" y1="429.7" x2="600" y2="429.7"/>
		<line class="st5" x1="0" y1="451.7" x2="600" y2="451.7"/>
		<line class="st5" x1="0" y1="473.8" x2="600" y2="473.8"/>
		<line class="st5" x1="0" y1="495.9" x2="600" y2="495.9"/>
		<line class="st5" x1="0" y1="517.9" x2="600" y2="517.9"/>
		<line class="st5" x1="0" y1="540" x2="600" y2="540"/>
		<line class="st5" x1="0" y1="562.1" x2="600" y2="562.1"/>
		<line class="st5" x1="0" y1="584.1" x2="600" y2="584.1"/>
		<line class="st5" x1="0" y1="606.2" x2="600" y2="606.2"/>
		<line class="st5" x1="0" y1="628.2" x2="600" y2="628.2"/>
		<line class="st5" x1="0" y1="650.3" x2="600" y2="650.3"/>
		<line class="st5" x1="0" y1="672.4" x2="600" y2="672.4"/>
		<line class="st5" x1="0" y1="694.4" x2="600" y2="694.4"/>
		<line class="st5" x1="0" y1="716.5" x2="600" y2="716.5"/>
		<line class="st5" x1="0" y1="738.6" x2="600" y2="738.6"/>
		<line class="st5" x1="0" y1="760.6" x2="600" y2="760.6"/>
		<line class="st5" x1="0" y1="782.7" x2="600" y2="782.7"/>
		<line class="st5" x1="0" y1="804.7" x2="600" y2="804.7"/>
		<line class="st5" x1="0" y1="826.8" x2="600" y2="826.8"/>
		<line class="st5" x1="0" y1="848.9" x2="600" y2="848.9"/>
		<line class="st5" x1="0" y1="870.9" x2="600" y2="870.9"/>
		<line class="st5" x1="0" y1="893" x2="600" y2="893"/>
		<line class="st5" x1="0" y1="915.1" x2="600" y2="915.1"/>
		<line class="st5" x1="0" y1="937.1" x2="600" y2="937.1"/>
		<line class="st5" x1="0" y1="959.2" x2="600" y2="959.2"/>
		<line class="st5" x1="0" y1="981.3" x2="600" y2="981.3"/>
		<line class="st5" x1="0" y1="1003.3" x2="600" y2="1003.3"/>
		<line class="st5" x1="0" y1="1025.4" x2="600" y2="1025.4"/>
		<line class="st5" x1="0" y1="1047.4" x2="600" y2="1047.4"/>
		<line class="st5" x1="0" y1="1069.5" x2="600" y2="1069.5"/>
		<line class="st5" x1="0" y1="1091.6" x2="600" y2="1091.6"/>
		<line class="st5" x1="0" y1="1113.6" x2="600" y2="1113.6"/>
		<line class="st5" x1="0" y1="1135.7" x2="600" y2="1135.7"/>
		<line class="st5" x1="0" y1="1157.8" x2="600" y2="1157.8"/>
		<line class="st5" x1="0" y1="1179.8" x2="600" y2="1179.8"/>
		<line class="st5" x1="0" y1="1201.9" x2="600" y2="1201.9"/>
		<line class="st5" x1="0" y1="1223.9" x2="600" y2="1223.9"/>
		<line class="st5" x1="0" y1="1246" x2="600" y2="1246"/>
		<line class="st5" x1="0" y1="1268.1" x2="600" y2="1268.1"/>
		<line class="st5" x1="0" y1="1290.1" x2="600" y2="1290.1"/>
		<line class="st5" x1="0" y1="1312.2" x2="600" y2="1312.2"/>
		<line class="st5" x1="0" y1="1334.3" x2="600" y2="1334.3"/>
		<line class="st5" x1="0" y1="1356.3" x2="600" y2="1356.3"/>
		<line class="st5" x1="0" y1="1378.4" x2="600" y2="1378.4"/>
		<line class="st5" x1="0" y1="1400.4" x2="600" y2="1400.4"/>
		<line class="st5" x1="0" y1="1422.5" x2="600" y2="1422.5"/>
		<line class="st5" x1="0" y1="1444.6" x2="600" y2="1444.6"/>
		<line class="st5" x1="0" y1="1466.6" x2="600" y2="1466.6"/>
		<line class="st5" x1="0" y1="1488.7" x2="600" y2="1488.7"/>
		<line class="st5" x1="0" y1="1510.8" x2="600" y2="1510.8"/>
		<line class="st5" x1="0" y1="1532.8" x2="600" y2="1532.8"/>
	</g>
	<g id="vertical">
		<line class="st5" x1="15.8" y1="1550" x2="15.8" y2="0"/>
		<line class="st5" x1="37.6" y1="1550" x2="37.6" y2="0"/>
		<line class="st5" x1="59.3" y1="1550" x2="59.3" y2="0"/>
		<line class="st5" x1="81" y1="1550" x2="81" y2="0"/>
		<line class="st5" x1="102.7" y1="1550" x2="102.7" y2="0"/>
		<line class="st5" x1="124.4" y1="1550" x2="124.4" y2="0"/>
		<line class="st5" x1="146.1" y1="1550" x2="146.1" y2="0"/>
		<line class="st5" x1="167.8" y1="1550" x2="167.8" y2="0"/>
		<line class="st5" x1="189.5" y1="1550" x2="189.5" y2="0"/>
		<line class="st5" x1="211.3" y1="1550" x2="211.3" y2="0"/>
		<line class="st5" x1="233" y1="1550" x2="233" y2="0"/>
		<line class="st5" x1="254.7" y1="1550" x2="254.7" y2="0"/>
		<line class="st5" x1="276.4" y1="1550" x2="276.4" y2="0"/>
		<line class="st5" x1="298.1" y1="1550" x2="298.1" y2="0"/>
		<line class="st5" x1="319.8" y1="1550" x2="319.8" y2="0"/>
		<line class="st5" x1="341.5" y1="1550" x2="341.5" y2="0"/>
		<line class="st5" x1="363.3" y1="1550" x2="363.3" y2="0"/>
		<line class="st5" x1="385" y1="1550" x2="385" y2="0"/>
		<line class="st5" x1="406.7" y1="1550" x2="406.7" y2="0"/>
		<line class="st5" x1="428.4" y1="1550" x2="428.4" y2="0"/>
		<line class="st5" x1="450.1" y1="1550" x2="450.1" y2="0"/>
		<line class="st5" x1="471.8" y1="1550" x2="471.8" y2="0"/>
		<line class="st5" x1="493.5" y1="1550" x2="493.5" y2="0"/>
		<line class="st5" x1="515.3" y1="1550" x2="515.3" y2="0"/>
		<line class="st5" x1="537" y1="1550" x2="537" y2="0"/>
		<line class="st5" x1="558.7" y1="1550" x2="558.7" y2="0"/>
		<line class="st5" x1="580.4" y1="1550" x2="580.4" y2="0"/>
	</g>
</g>
<g id="frame">
	<path class="st6" d="M598,2v1546H2V2H598 M600,0H0v1550h600V0L600,0z"/>
</g>
<g id="Bauteil_x5F_A">
	<polygon id="A" class="st7" points="515.3,1457.6 0,804.7 0,747.9 515.3,747.7 	"/>
	<polygon id="Vortragssaal" class="st7" points="394.1,1304.2 394.1,1145.1 515.3,1145.1 515.3,1457.6 	"/>
	<rect id="Elevator" x="304.2" y="1028.1" class="st8" width="44" height="41.4"/>
	<polygon id="Dead_Space" class="st8" points="108,941.7 292.7,941.7 292.7,747.7 0,747.9 0,804.7 	"/>
	<polygon id="WC" class="st7" points="365.6,853.9 365.6,941.7 401.8,941.7 401.8,893 437.4,893 437.4,853.9 	"/>
	<rect id="Dead_Space_1_" x="401.8" y="893" class="st8" width="35.6" height="48.7"/>
	<rect id="Kitchen" x="462.1" y="873.8" class="st8" width="53.2" height="67.8"/>
	<polygon id="Arbeitsraum" class="st7" points="462.1,747.7 462.1,873.8 515.3,873.8 515.3,747.7 	"/>
	<polygon id="Arbeitsraum_1_" class="st7" points="437.4,747.7 437.4,826.8 401.8,826.8 401.8,747.7 	"/>
	<polygon id="Arbeitsraum_2_" class="st7" points="357.8,826.8 401.8,826.8 401.8,747.7 357.8,747.7 	"/>
	<rect id="Dead_Space_2_" x="319.8" y="747.7" class="st8" width="38" height="79.1"/>
	<rect id="WC_1_" x="319.8" y="853.9" class="st7" width="35" height="87.7"/>
</g>
<g id="Bauteil_x5F_B">
	<rect id="B" x="0" y="429.6" class="st7" width="515.3" height="198.6"/>
	<polygon id="Dead_Space_12_" class="st8" points="74.9,429.5 74.9,493.1 0,493.1 0,429.7 	"/>
	<polygon id="Tischtennisraum" class="st7" points="245.7,523.7 245.7,429.7 196.6,429.5 196.6,523.7 	"/>
	<rect id="Dead_Space_11_" x="100.1" y="429.5" class="st8" width="96.4" height="94.2"/>
	<rect id="Dead_Space_10_" y="517.9" class="st8" width="74.9" height="110.3"/>
	<polygon id="Dead_Space_9_" class="st8" points="100.1,555.8 100.1,628.2 292.7,628.1 292.7,555.8 	"/>
	<rect id="Dead_Space_8_" x="245.7" y="429.7" class="st8" width="47" height="94"/>
	<polygon id="Dead_Space_7_" class="st8" points="319.8,628.1 319.8,429.5 515.3,429.5 515.3,628 	"/>
</g>
<g id="Bauteil_x5F_C">
	<polygon id="Dead_Space_6_" class="st8" points="319.8,146.8 515.3,146.8 515.3,63.6 319.8,63.7 	"/>
	<polygon id="Dead_Space_5_" class="st8" points="292.7,146.8 292.7,63.7 251.4,63.6 251.4,146.8 	"/>
	<rect id="Dead_Space_4_" x="102.7" y="63.6" class="st8" width="13.8" height="83.2"/>
	<rect id="Dead_Space_3_" x="0" y="63.8" class="st8" width="74.9" height="249.5"/>
	<polygon id="WC_3_" class="st7" points="319.8,178.3 319.8,313.3 393.2,313.2 393.2,178.3 	"/>
	<polygon id="C4" class="st7" points="515.3,178.3 393.2,178.3 393.2,313.2 515.3,313.1 	"/>
	<rect id="WC_2_" x="102.7" y="181.4" class="st7" width="39.1" height="49.7"/>
	<polygon id="C1" class="st7" points="159.4,146.8 159.4,63.8 116.5,63.6 116.5,146.8 	"/>
	<polygon id="C2" class="st7" points="202.9,146.8 202.9,63.6 159.4,63.8 159.4,146.8 	"/>
	<rect id="C3" x="202.9" y="63.6" class="st7" width="48.5" height="83.2"/>
	<polygon id="Lounge" class="st7" points="292.7,146.8 292.7,313.3 102.7,313.3 102.7,231.1 141.7,231.1 141.7,181.4 102.7,181.4 
		102.7,146.8 	"/>
	<rect id="C" x="0" y="63.7" class="st7" width="515.3" height="249.5"/>
</g>
<path id="Parkplatz" class="st9" d="M564.7,188.6c-37.8-0.1-27.7,332.6-30.9,467.5s-14.2,392.8,24.9,392.8
	c56.8,0-2.2-418.6,11-578.7S599.4,188.6,564.7,188.6z"/>
<path id="Mieterparkplatz" class="st9" d="M15.8,24c0,24.9,141.8,28.1,205.3,21.5s213.1-9.9,250.7-2.5s83,12.7,83.9-17.5
	c1-31.4-245.9-9-358.1-9S15.8-6.9,15.8,24z"/>
<path id="Julius-Hatry-Strasse" class="st9" d="M10.3,911.5c26.3-24.1,128.9,90.9,257,260.3s269.8,319.2,237.2,348.7
	c-32.7,29.5-101.6-50.4-146.7-110.7c-45-60.3-82.8-182.6-146.5-256.2C147.5,1080.1,62,1025.4,31,981.3S0.4,920.6,10.3,911.5z"/>
</svg>
