<?xml version="1.0" standalone="no"?>
<!DOCTYPE svg PUBLIC "-//W3C//DTD SVG 20010904//EN"
 "http://www.w3.org/TR/2001/REC-SVG-20010904/DTD/svg10.dtd">
<svg version="1.0" xmlns="http://www.w3.org/2000/svg"
 width="150.000000pt" height="150.000000pt" viewBox="0 0 150.000000 150.000000"
 preserveAspectRatio="xMidYMid meet">
<metadata>
Created by potrace 1.11, written by Peter Selinger 2001-2013
</metadata>
<g transform="translate(0.000000,150.000000) scale(0.100000,-0.100000)"
fill="#000000" stroke="none">
<path d="M970 1269 c0 -19 -9 -48 -20 -66 -33 -55 -63 -67 -174 -73 l-101 -5
-3 -92 c-3 -86 -5 -94 -29 -113 -21 -16 -40 -20 -109 -20 l-84 0 0 -75 0 -75
240 0 c301 0 280 13 280 -170 l0 -130 56 0 c64 0 124 -28 145 -67 7 -13 17
-22 23 -20 21 6 94 127 117 194 21 58 24 87 24 198 0 110 -4 139 -22 189 -48
128 -146 248 -255 313 -83 50 -88 51 -88 12z"/>
<path d="M165 860 c-13 -42 -8 -194 10 -260 57 -221 239 -388 473 -435 l33 -7
-3 73 c-3 72 -3 73 -33 79 -72 15 -115 75 -115 161 l0 54 -179 179 c-163 163
-179 177 -186 156z"/>
</g>
</svg>
