<?xml version="1.0" encoding="utf-8"?>
<!-- Generator: Adobe Illustrator 23.0.6, SVG Export Plug-In . SVG Version: 6.00 Build 0)  -->
<svg version="1.1" id="Ebene_1" xmlns="http://www.w3.org/2000/svg" xmlns:xlink="http://www.w3.org/1999/xlink" x="0px" y="0px"
	 viewBox="0 0 500 500" style="enable-background:new 0 0 500 500;" xml:space="preserve">
<style type="text/css">
	.st0{fill:#FFFFFF;}
	.st1{clip-path:url(#SVGID_2_);}
	.st2{clip-path:url(#SVGID_4_);fill:url(#SVGID_5_);}
	.st3{clip-path:url(#SVGID_7_);}
	.st4{clip-path:url(#SVGID_9_);fill:url(#SVGID_10_);}
	.st5{clip-path:url(#SVGID_12_);}
	.st6{opacity:0.55;clip-path:url(#SVGID_14_);}
	.st7{clip-path:url(#SVGID_16_);}
	.st8{clip-path:url(#SVGID_18_);}
	.st9{clip-path:url(#SVGID_20_);}
	.st10{clip-path:url(#SVGID_22_);fill:#D7E4F5;}
	.st11{clip-path:url(#SVGID_24_);}
	.st12{opacity:0.6;clip-path:url(#SVGID_26_);}
	.st13{clip-path:url(#SVGID_28_);fill:#9FBE35;}
	.st14{clip-path:url(#SVGID_30_);}
	.st15{clip-path:url(#SVGID_32_);fill:url(#SVGID_33_);}
	.st16{clip-path:url(#SVGID_35_);}
	.st17{clip-path:url(#SVGID_37_);fill:#007FC4;}
	.st18{clip-path:url(#SVGID_39_);fill:#007FC4;}
	.st19{clip-path:url(#SVGID_41_);fill:#007FC4;}
	.st20{clip-path:url(#SVGID_43_);fill:#007FC4;}
	.st21{clip-path:url(#SVGID_45_);fill:#007FC4;}
	.st22{clip-path:url(#SVGID_47_);fill:#007FC4;}
	.st23{clip-path:url(#SVGID_49_);fill:#007FC4;}
	.st24{clip-path:url(#SVGID_51_);fill:#007FC4;}
	.st25{clip-path:url(#SVGID_53_);fill:#007FC4;}
	.st26{clip-path:url(#SVGID_55_);fill:#007FC4;}
	.st27{clip-path:url(#SVGID_57_);fill:#007FC4;}
	.st28{clip-path:url(#SVGID_59_);fill:#007FC4;}
	.st29{clip-path:url(#SVGID_61_);fill:#007FC4;}
	.st30{clip-path:url(#SVGID_63_);fill:#007FC4;}
	.st31{clip-path:url(#SVGID_65_);fill:#007FC4;}
	.st32{clip-path:url(#SVGID_67_);fill:#007FC4;}
	.st33{clip-path:url(#SVGID_69_);fill:#007FC4;}
	.st34{clip-path:url(#SVGID_71_);fill:#007FC4;}
	.st35{clip-path:url(#SVGID_73_);fill:#007FC4;}
	.st36{clip-path:url(#SVGID_75_);fill:#007FC4;}
	.st37{clip-path:url(#SVGID_77_);fill:#007FC4;}
	.st38{clip-path:url(#SVGID_79_);fill:#007FC4;}
	.st39{clip-path:url(#SVGID_81_);fill:#007FC4;}
	.st40{clip-path:url(#SVGID_83_);fill:#007FC4;}
	.st41{clip-path:url(#SVGID_85_);fill:#007FC4;}
	.st42{clip-path:url(#SVGID_87_);fill:#007FC4;}
	.st43{clip-path:url(#SVGID_89_);fill:#007FC4;}
</style>
<rect class="st0" width="500" height="500"/>
<g>
	<defs>
		<rect id="SVGID_1_" y="151.7" width="500" height="196.5"/>
	</defs>
	<clipPath id="SVGID_2_">
		<use xlink:href="#SVGID_1_"  style="overflow:visible;"/>
	</clipPath>
	<g class="st1">
		<g>
			<defs>
				<path id="SVGID_3_" d="M96.8,240.2c0,11.4,9.3,20.7,20.7,20.7c11.4,0,20.7-9.3,20.7-20.7c0-11.4-9.3-20.7-20.7-20.7
					C106,219.5,96.8,228.7,96.8,240.2"/>
			</defs>
			<clipPath id="SVGID_4_">
				<use xlink:href="#SVGID_3_"  style="overflow:visible;"/>
			</clipPath>
			
				<linearGradient id="SVGID_5_" gradientUnits="userSpaceOnUse" x1="1.0953" y1="429.249" x2="3.5533" y2="429.249" gradientTransform="matrix(-19.9213 11.5016 11.5016 19.9213 -4773.2871 -8337.7568)">
				<stop  offset="0" style="stop-color:#67ADE2"/>
				<stop  offset="0.547" style="stop-color:#007FC4"/>
				<stop  offset="1" style="stop-color:#273D85"/>
			</linearGradient>
			<polygon class="st2" points="127.8,201.6 78.8,229.8 107.1,278.8 156.1,250.5 			"/>
		</g>
	</g>
</g>
<g>
	<defs>
		<rect id="SVGID_6_" y="151.7" width="500" height="196.5"/>
	</defs>
	<clipPath id="SVGID_7_">
		<use xlink:href="#SVGID_6_"  style="overflow:visible;"/>
	</clipPath>
	<g class="st3">
		<g>
			<defs>
				<path id="SVGID_8_" d="M98.7,240.2c0,10.3,8.3,18.6,18.6,18.6c10.3,0,18.6-8.3,18.6-18.6c0-10.3-8.3-18.6-18.6-18.6
					C107,221.5,98.7,229.9,98.7,240.2"/>
			</defs>
			<clipPath id="SVGID_9_">
				<use xlink:href="#SVGID_8_"  style="overflow:visible;"/>
			</clipPath>
			
				<linearGradient id="SVGID_10_" gradientUnits="userSpaceOnUse" x1="1.3048" y1="430.2812" x2="3.7637" y2="430.2812" gradientTransform="matrix(-17.9225 10.3475 10.3475 17.9225 -4289.6235 -7497.7739)">
				<stop  offset="0" style="stop-color:#67ADE2"/>
				<stop  offset="0.547" style="stop-color:#007FC4"/>
				<stop  offset="1" style="stop-color:#273D85"/>
			</linearGradient>
			<polygon class="st4" points="126.6,205.4 82.5,230.9 108,274.9 152,249.5 			"/>
		</g>
	</g>
</g>
<g>
	<defs>
		<rect id="SVGID_11_" y="151.7" width="500" height="196.5"/>
	</defs>
	<clipPath id="SVGID_12_">
		<use xlink:href="#SVGID_11_"  style="overflow:visible;"/>
	</clipPath>
	<g class="st5">
		<g>
			<defs>
				<path id="SVGID_13_" d="M96.8,240.2c0,11.4,9.3,20.7,20.7,20.7c11.4,0,20.7-9.3,20.7-20.7c0-11.4-9.3-20.7-20.7-20.7
					C106,219.5,96.8,228.7,96.8,240.2"/>
			</defs>
			<clipPath id="SVGID_14_">
				<use xlink:href="#SVGID_13_"  style="overflow:visible;"/>
			</clipPath>
			<g class="st6">
				<g>
					<g>
						<defs>
							<rect id="SVGID_15_" x="71.6" y="211" width="99" height="47"/>
						</defs>
						<clipPath id="SVGID_16_">
							<use xlink:href="#SVGID_15_"  style="overflow:visible;"/>
						</clipPath>
						<g class="st7">
							<g>
								<defs>
									<rect id="SVGID_17_" x="71.6" y="211" width="99" height="47"/>
								</defs>
								<clipPath id="SVGID_18_">
									<use xlink:href="#SVGID_17_"  style="overflow:visible;"/>
								</clipPath>
								<g class="st8">
									<g>
										<g>
											<defs>
												<rect id="SVGID_19_" x="71.6" y="211" width="99" height="47"/>
											</defs>
											<clipPath id="SVGID_20_">
												<use xlink:href="#SVGID_19_"  style="overflow:visible;"/>
											</clipPath>
											<g class="st9">
												<g>
													<defs>
														<rect id="SVGID_21_" x="71.6" y="211" width="99" height="47"/>
													</defs>
													<clipPath id="SVGID_22_">
														<use xlink:href="#SVGID_21_"  style="overflow:visible;"/>
													</clipPath>
													<path class="st10" d="M121.1,254.7c11.2,0,20.2-9.1,20.2-20.2c0-11.2-9.1-20.2-20.2-20.2c-11.2,0-20.2,9.1-20.2,20.2
														C100.8,245.6,109.9,254.7,121.1,254.7"/>
												</g>
											</g>
										</g>
									</g>
								</g>
							</g>
						</g>
					</g>
				</g>
			</g>
		</g>
	</g>
</g>
<g>
	<defs>
		<rect id="SVGID_23_" y="151.7" width="500" height="196.5"/>
	</defs>
	<clipPath id="SVGID_24_">
		<use xlink:href="#SVGID_23_"  style="overflow:visible;"/>
	</clipPath>
	<g class="st11">
		<g>
			<defs>
				<rect id="SVGID_25_" y="151.7" width="500" height="196.5"/>
			</defs>
			<clipPath id="SVGID_26_">
				<use xlink:href="#SVGID_25_"  style="overflow:visible;"/>
			</clipPath>
			<g class="st12">
				<g>
					<g>
						<defs>
							<rect id="SVGID_27_" x="69.5" y="192.3" width="50.5" height="75.1"/>
						</defs>
						<clipPath id="SVGID_28_">
							<use xlink:href="#SVGID_27_"  style="overflow:visible;"/>
						</clipPath>
						<path class="st13" d="M89.7,256.7c-2.9-4.8-4.5-10.4-4.5-16.4c0-17.6,14.1-31.9,31.7-32.3c0.2,0,0.4,0,0.6,0l2.6-15.6
							c-0.8,0-1.7-0.1-2.6-0.1c-26.5,0-47.9,21.5-47.9,47.9c0,10.1,3.1,19.4,8.4,27.1L89.7,256.7z"/>
					</g>
				</g>
			</g>
		</g>
	</g>
</g>
<g>
	<defs>
		<rect id="SVGID_29_" y="151.7" width="500" height="196.5"/>
	</defs>
	<clipPath id="SVGID_30_">
		<use xlink:href="#SVGID_29_"  style="overflow:visible;"/>
	</clipPath>
	<g class="st14">
		<g>
			<defs>
				<path id="SVGID_31_" d="M42,240.2c0,29.4,16.8,54.8,41.3,67.3l3.7-16c-17.5-10.4-29.2-29.5-29.2-51.3c0-11.1,3-21.5,8.3-30.4
					l-8.6-15.5C47.8,207.1,42,223,42,240.2"/>
			</defs>
			<clipPath id="SVGID_32_">
				<use xlink:href="#SVGID_31_"  style="overflow:visible;"/>
			</clipPath>
			
				<linearGradient id="SVGID_33_" gradientUnits="userSpaceOnUse" x1="-5.2271" y1="418.4585" x2="-2.7687" y2="418.4585" gradientTransform="matrix(-22.5566 -39.0692 39.0692 -22.5566 -16373 9536.3447)">
				<stop  offset="0" style="stop-color:#437F40"/>
				<stop  offset="0.1841" style="stop-color:#437F40"/>
				<stop  offset="0.2016" style="stop-color:#48823F"/>
				<stop  offset="0.3424" style="stop-color:#67983C"/>
				<stop  offset="0.4891" style="stop-color:#80A939"/>
				<stop  offset="0.6423" style="stop-color:#91B537"/>
				<stop  offset="0.8064" style="stop-color:#9CBC35"/>
				<stop  offset="1" style="stop-color:#9FBE35"/>
			</linearGradient>
			<polygon class="st15" points="53.3,327.1 -7,222.7 75.8,174.9 136.1,279.3 			"/>
		</g>
	</g>
</g>
<g>
	<defs>
		<rect id="SVGID_34_" y="151.7" width="500" height="196.5"/>
	</defs>
	<clipPath id="SVGID_35_">
		<use xlink:href="#SVGID_34_"  style="overflow:visible;"/>
	</clipPath>
	<g class="st16">
		<g>
			<defs>
				<rect id="SVGID_36_" y="151.7" width="500" height="196.5"/>
			</defs>
			<clipPath id="SVGID_37_">
				<use xlink:href="#SVGID_36_"  style="overflow:visible;"/>
			</clipPath>
			<polygon class="st17" points="167.9,253.5 162.9,269.1 161,269.1 156,253.5 156,269.1 153.8,269.1 153.8,250.7 157.1,250.7 
				161.9,265.9 161.9,265.9 166.8,250.7 170.1,250.7 170.1,269.1 167.9,269.1 			"/>
		</g>
		<g>
			<defs>
				<rect id="SVGID_38_" y="151.7" width="500" height="196.5"/>
			</defs>
			<clipPath id="SVGID_39_">
				<use xlink:href="#SVGID_38_"  style="overflow:visible;"/>
			</clipPath>
			<path class="st18" d="M178,261.3l4.8-0.3v-1.7c0-2-0.7-2.8-3.3-2.8c-2.4,0-3.3,0.7-3.3,2.6H174c0-3.4,2-4.5,5.5-4.5
				c4,0,5.5,1.3,5.5,4.6v9.8h-1.5l-0.5-1.4c-1.4,1.1-2.7,1.7-4.6,1.7c-3.2,0-5-1.4-5-4C173.5,262.9,174.9,261.5,178,261.3
				 M182.7,265.9v-3.5l-4.6,0.5c-1.7,0.2-2.5,0.9-2.5,2.3c0,1.6,1,2.3,2.9,2.3C180.4,267.5,181.5,267,182.7,265.9"/>
		</g>
		<g>
			<defs>
				<rect id="SVGID_40_" y="151.7" width="500" height="196.5"/>
			</defs>
			<clipPath id="SVGID_41_">
				<use xlink:href="#SVGID_40_"  style="overflow:visible;"/>
			</clipPath>
			<path class="st19" d="M190.2,254.9l0.5,1.4c1.4-1.1,2.8-1.7,4.7-1.7c3.3,0,4.6,1.2,4.6,5v9.4h-2.2v-9.4c0-2.5-0.9-3.1-3-3.1
				c-1.4,0-2.7,0.5-3.9,1.4v11.1h-2.2v-14.1L190.2,254.9L190.2,254.9z"/>
		</g>
		<g>
			<defs>
				<rect id="SVGID_42_" y="151.7" width="500" height="196.5"/>
			</defs>
			<clipPath id="SVGID_43_">
				<use xlink:href="#SVGID_42_"  style="overflow:visible;"/>
			</clipPath>
			<path class="st20" d="M205.3,254.9l0.5,1.4c1.4-1.1,2.8-1.7,4.7-1.7c3.3,0,4.6,1.2,4.6,5v9.4h-2.2v-9.4c0-2.5-0.9-3.1-3-3.1
				c-1.4,0-2.7,0.5-3.9,1.4v11.1h-2.2v-14.1L205.3,254.9L205.3,254.9z"/>
		</g>
		<g>
			<defs>
				<rect id="SVGID_44_" y="151.7" width="500" height="196.5"/>
			</defs>
			<clipPath id="SVGID_45_">
				<use xlink:href="#SVGID_44_"  style="overflow:visible;"/>
			</clipPath>
			<path class="st21" d="M221.1,256.2c1.5-1,2.9-1.6,4.5-1.6c3.3,0,4.6,1.4,4.6,5v9.4H228v-9.4c0-2.5-0.9-3.1-3-3.1
				c-1.4,0-2.7,0.5-3.9,1.4v11.1h-2.2v-18.9h2.2L221.1,256.2L221.1,256.2z"/>
		</g>
		<g>
			<defs>
				<rect id="SVGID_46_" y="151.7" width="500" height="196.5"/>
			</defs>
			<clipPath id="SVGID_47_">
				<use xlink:href="#SVGID_46_"  style="overflow:visible;"/>
			</clipPath>
			<path class="st22" d="M244.8,267v1.9c-1.3,0.3-2.9,0.5-4.9,0.5c-4,0-6.1-1.3-6.1-6.6v-1.5c0-5.2,2-6.6,5.9-6.6
				c3.8,0,5.7,1.4,5.7,6.6v1.6H236c0,3.7,0.9,4.7,3.9,4.7C241.9,267.5,243.4,267.3,244.8,267 M243.3,261.2c0-3.5-0.6-4.7-3.5-4.7
				c-2.9,0-3.7,1.1-3.7,4.7H243.3z"/>
		</g>
		<g>
			<defs>
				<rect id="SVGID_48_" y="151.7" width="500" height="196.5"/>
			</defs>
			<clipPath id="SVGID_49_">
				<use xlink:href="#SVGID_48_"  style="overflow:visible;"/>
			</clipPath>
			<path class="st23" d="M248.7,250.1h2.3v2.3h-2.3V250.1z M248.7,254.9h2.2v14.1h-2.2V254.9z"/>
		</g>
		<g>
			<defs>
				<rect id="SVGID_50_" y="151.7" width="500" height="196.5"/>
			</defs>
			<clipPath id="SVGID_51_">
				<use xlink:href="#SVGID_50_"  style="overflow:visible;"/>
			</clipPath>
			<path class="st24" d="M256.7,256.3c1.5-1.1,2.8-1.7,4.4-1.7c1.8,0,2.9,0.7,3.6,1.7c1.5-1,2.9-1.7,4.6-1.7c3.3,0,4,1.5,4,4.6v9.8
				h-2.2v-9.8c0-2.1-0.6-2.7-2.5-2.7c-1,0-2.4,0.5-3.5,1.4v11.1h-2.2v-9.8c0-2.1-0.5-2.7-2.4-2.7c-1.1,0-2.4,0.5-3.5,1.4v11.1h-2.2
				v-14.1h1.5L256.7,256.3z"/>
		</g>
		<g>
			<defs>
				<rect id="SVGID_52_" y="151.7" width="500" height="196.5"/>
			</defs>
			<clipPath id="SVGID_53_">
				<use xlink:href="#SVGID_52_"  style="overflow:visible;"/>
			</clipPath>
			<path class="st25" d="M169.7,235.5h-4.8l0,0c-5.2-7.6-6.6-9.6-6.9-10v10.1h-4.1v-23.4h4.1v9.7l6.7-9.7h4.8l-0.1,0.1l-8.2,11.2
				L169.7,235.5z"/>
		</g>
		<g>
			<defs>
				<rect id="SVGID_54_" y="151.7" width="500" height="196.5"/>
			</defs>
			<clipPath id="SVGID_55_">
				<use xlink:href="#SVGID_54_"  style="overflow:visible;"/>
			</clipPath>
			<rect x="172.8" y="211.4" class="st26" width="4" height="24.1"/>
		</g>
		<g>
			<defs>
				<rect id="SVGID_56_" y="151.7" width="500" height="196.5"/>
			</defs>
			<clipPath id="SVGID_57_">
				<use xlink:href="#SVGID_56_"  style="overflow:visible;"/>
			</clipPath>
			<rect x="181.5" y="217.5" class="st27" width="4" height="18.1"/>
		</g>
		<g>
			<defs>
				<rect id="SVGID_58_" y="151.7" width="500" height="196.5"/>
			</defs>
			<clipPath id="SVGID_59_">
				<use xlink:href="#SVGID_58_"  style="overflow:visible;"/>
			</clipPath>
			<rect x="181.5" y="211.4" class="st28" width="4" height="4"/>
		</g>
		<g>
			<defs>
				<rect id="SVGID_60_" y="151.7" width="500" height="196.5"/>
			</defs>
			<clipPath id="SVGID_61_">
				<use xlink:href="#SVGID_60_"  style="overflow:visible;"/>
			</clipPath>
			<path class="st29" d="M214,235.5h-4v-11.9c0-2.5-0.5-3.2-2.4-3.2c-1.1,0-2.3,0.6-3.4,1.5v13.5h-4v-11.9c0-2.5-0.5-3.2-2.4-3.2
				c-0.9,0-2.3,0.5-3.4,1.5v13.5h-4v-18.1h2.8l0,0l0.7,1.4c1.9-1.3,3.4-1.9,5.2-1.9c2.1,0,3.4,0.6,4.5,1.9c2-1.3,3.6-1.9,5.4-1.9
				c4.4,0,5.2,2.2,5.2,6.6L214,235.5L214,235.5z"/>
		</g>
		<g>
			<defs>
				<rect id="SVGID_62_" y="151.7" width="500" height="196.5"/>
			</defs>
			<clipPath id="SVGID_63_">
				<use xlink:href="#SVGID_62_"  style="overflow:visible;"/>
			</clipPath>
			<path class="st30" d="M243.7,235.9c-6.2,0-7.5-2.4-7.5-6v-0.1h4v0.1c0,1.8,0.5,2.6,3.5,2.6c3,0,3.5-0.7,3.5-2.2
				c0-1.5-0.4-2.2-4.1-2.5c-4.9-0.4-6.7-1.8-6.7-5.3c0-3.6,2.4-5.5,7.2-5.5c5.2,0,7.3,1.7,7.3,6v0.1h-4v-0.1c0-1.3-0.3-2.6-3.2-2.6
				c-2.3,0-3.2,0.6-3.2,2.1c0,1.4,0.5,2.2,3.4,2.4c5.8,0.5,7.4,1.7,7.4,5.4C251.3,233.2,250.7,235.9,243.7,235.9"/>
		</g>
		<g>
			<defs>
				<rect id="SVGID_64_" y="151.7" width="500" height="196.5"/>
			</defs>
			<clipPath id="SVGID_65_">
				<use xlink:href="#SVGID_64_"  style="overflow:visible;"/>
			</clipPath>
			<path class="st31" d="M262.6,235.9c-5.8,0-7.9-2.3-7.9-8.5v-1.9c0-6.1,2.2-8.5,7.9-8.5c5.2,0,7.4,2,7.4,6.7v0.1h-4l0-0.1
				c-0.1-2.5-0.9-3.3-3.4-3.3c-3,0-3.9,1.1-3.9,5.1v1.9c0,4,0.8,5.1,3.9,5.1c2.5,0,3.3-0.7,3.4-3.3l0-0.1h4v0.1
				C270,233.9,267.8,235.9,262.6,235.9"/>
		</g>
		<g>
			<defs>
				<rect id="SVGID_66_" y="151.7" width="500" height="196.5"/>
			</defs>
			<clipPath id="SVGID_67_">
				<use xlink:href="#SVGID_66_"  style="overflow:visible;"/>
			</clipPath>
			<path class="st32" d="M288.8,235.5h-4v-11.9c0-2.6-1.1-3.2-2.9-3.2c-1.1,0-2.8,0.4-4,1.5v13.5h-4v-24.1h4v7.2
				c1.7-1.1,3.3-1.6,5.4-1.6c4.1,0,5.6,1.8,5.6,6.6L288.8,235.5L288.8,235.5z"/>
		</g>
		<g>
			<defs>
				<rect id="SVGID_68_" y="151.7" width="500" height="196.5"/>
			</defs>
			<clipPath id="SVGID_69_">
				<use xlink:href="#SVGID_68_"  style="overflow:visible;"/>
			</clipPath>
			<path class="st33" d="M298.6,235.9c-4.1,0-5.6-1.8-5.6-6.6v-11.9h4v11.9c0,2.6,1.1,3.2,2.9,3.2c1.1,0,2.7-0.4,4-1.5v-13.5h4v18.1
				h-2.8l0-0.1l-0.7-1.4C302.5,235.4,300.9,235.9,298.6,235.9"/>
		</g>
		<g>
			<defs>
				<rect id="SVGID_70_" y="151.7" width="500" height="196.5"/>
			</defs>
			<clipPath id="SVGID_71_">
				<use xlink:href="#SVGID_70_"  style="overflow:visible;"/>
			</clipPath>
			<path class="st34" d="M318.1,235.9c-3.3,0-4.7-1.6-4.7-5.1v-9.9h-2.5V218l2.5-0.5v-4.2l4-0.9v5h3.8v3.4h-3.8v10
				c0,1.2,0.5,1.7,1.6,1.7c0.8,0,1.4-0.1,1.8-0.2c0.1,0,0.1,0,0.2-0.1l0.1,0v3.3l-0.1,0C320.4,235.8,319.1,235.9,318.1,235.9"/>
		</g>
		<g>
			<defs>
				<rect id="SVGID_72_" y="151.7" width="500" height="196.5"/>
			</defs>
			<clipPath id="SVGID_73_">
				<use xlink:href="#SVGID_72_"  style="overflow:visible;"/>
			</clipPath>
			<polygon class="st35" points="338.7,235.5 324.1,235.5 324.1,232.8 324.1,232.8 333.1,220.9 324.4,220.9 324.4,217.5 
				338.3,217.5 338.3,220.3 329.3,232.1 338.7,232.1 			"/>
		</g>
		<g>
			<defs>
				<rect id="SVGID_74_" y="151.7" width="500" height="196.5"/>
			</defs>
			<clipPath id="SVGID_75_">
				<use xlink:href="#SVGID_74_"  style="overflow:visible;"/>
			</clipPath>
			<path class="st36" d="M413.6,235.5h-4v-11.9c0-2.6-1.1-3.2-2.9-3.2c-1.1,0-2.7,0.4-4,1.5v13.5h-4v-18.1h2.8l0,0l0.7,1.4
				c2-1.4,3.6-1.9,5.9-1.9c4.1,0,5.6,1.8,5.6,6.6L413.6,235.5L413.6,235.5z"/>
		</g>
		<g>
			<defs>
				<rect id="SVGID_76_" y="151.7" width="500" height="196.5"/>
			</defs>
			<clipPath id="SVGID_77_">
				<use xlink:href="#SVGID_76_"  style="overflow:visible;"/>
			</clipPath>
			<path class="st37" d="M423.5,235.9c-3.3,0-4.7-1.6-4.7-5.1v-9.9h-2.5V218l0.1,0l2.5-0.5v-4.2l0.1,0l4-0.8v5h3.8v3.4h-3.8v10
				c0,1.2,0.5,1.7,1.6,1.7c0.8,0,1.4-0.1,1.8-0.2c0.1,0,0.2,0,0.2-0.1l0.1,0v3.3l-0.1,0C425.8,235.8,424.5,235.9,423.5,235.9"/>
		</g>
		<g>
			<defs>
				<rect id="SVGID_78_" y="151.7" width="500" height="196.5"/>
			</defs>
			<clipPath id="SVGID_79_">
				<use xlink:href="#SVGID_78_"  style="overflow:visible;"/>
			</clipPath>
			<path class="st38" d="M435.8,235.9c-4.1,0-5.6-1.8-5.6-6.6v-11.9h4v11.9c0,2.6,1.1,3.2,2.9,3.2c1.1,0,2.7-0.4,4-1.5v-13.5h4v18.1
				h-2.8l0-0.1l-0.7-1.4C439.7,235.4,438.1,235.9,435.8,235.9"/>
		</g>
		<g>
			<defs>
				<rect id="SVGID_80_" y="151.7" width="500" height="196.5"/>
			</defs>
			<clipPath id="SVGID_81_">
				<use xlink:href="#SVGID_80_"  style="overflow:visible;"/>
			</clipPath>
			<path class="st39" d="M453.6,235.5h-4v-18.1h2.8l0,0l0.7,1.4c1.6-1.3,3.2-1.9,5.1-1.9h0.1v3.6h-0.1c-1.9,0-3.4,0.5-4.6,1.5
				L453.6,235.5L453.6,235.5z"/>
		</g>
		<g>
			<defs>
				<rect id="SVGID_82_" y="151.7" width="500" height="196.5"/>
			</defs>
			<clipPath id="SVGID_83_">
				<use xlink:href="#SVGID_82_"  style="overflow:visible;"/>
			</clipPath>
			<path class="st40" d="M387.6,235.9c-5,0-8.1-1.4-8.1-8.5v-1.9c0-6,2.3-8.5,7.8-8.5c5.4,0,7.6,2.5,7.6,8.5v2.4h-11.4
				c0,3.5,0.9,4.6,3.8,4.6c2.8,0,4.5-0.2,6.6-0.6l0.1,0v3.3l-0.1,0C392.5,235.6,390.4,235.9,387.6,235.9 M383.6,225.1h7.3
				c0-3.2-0.4-4.6-3.6-4.6C384.2,220.5,383.6,221.8,383.6,225.1"/>
		</g>
		<g>
			<defs>
				<rect id="SVGID_84_" y="151.7" width="500" height="196.5"/>
			</defs>
			<clipPath id="SVGID_85_">
				<use xlink:href="#SVGID_84_"  style="overflow:visible;"/>
			</clipPath>
			<path class="st41" d="M368.3,242c-1.5,0-3.8-0.2-5.7-0.7l-0.1,0v-3.5l0.1,0c1.8,0.5,3.7,0.8,5.6,0.8c2.6,0,3.6-0.8,3.6-3.2v-1.5
				c-1.6,1.1-3.2,1.6-4.9,1.6c-4,0-6.7-1.3-6.7-7.9V225c0-6.5,2.7-7.9,6.7-7.9c2,0,3.7,0.6,5.4,1.9l0.8-1.5h2.8v17.9
				C375.8,239.9,373.4,242,368.3,242 M367.5,220.5c-2,0-3.3,0.8-3.3,4.7v2.3c0,3.3,1,4.7,3.3,4.7c1.2,0,2.9-0.3,4.3-1.5V222
				C370.4,220.8,368.7,220.5,367.5,220.5"/>
		</g>
		<g>
			<defs>
				<rect id="SVGID_86_" y="151.7" width="500" height="196.5"/>
			</defs>
			<clipPath id="SVGID_87_">
				<use xlink:href="#SVGID_86_"  style="overflow:visible;"/>
			</clipPath>
			<path class="st42" d="M347.8,235.9c-4.2,0-6.5-1.8-6.5-5.2c0-3.3,2-5.1,5.9-5.4l5.2-0.4v-1.7c0-1.7-0.5-2.7-3.3-2.7
				c-2.3,0-3.3,0.8-3.3,2.8v0.1h-4v-0.1c0-4.2,2.3-6.2,7.3-6.2c5.2,0,7.3,1.8,7.3,6.1v12.3h-2.8l0,0l-0.7-1.4
				C351.9,234.9,350.2,235.9,347.8,235.9 M352.5,227.6l-4.8,0.6c-1.6,0.2-2.3,0.9-2.3,2.2c0,1.4,0.9,2.1,2.7,2.1
				c1.9,0,3.2-0.4,4.4-1.5L352.5,227.6L352.5,227.6z"/>
		</g>
		<g>
			<defs>
				<rect id="SVGID_88_" y="151.7" width="500" height="196.5"/>
			</defs>
			<clipPath id="SVGID_89_">
				<use xlink:href="#SVGID_88_"  style="overflow:visible;"/>
			</clipPath>
			<path class="st43" d="M224.1,235.9c-4.2,0-6.5-1.8-6.5-5.2c0-3.3,2-5.1,5.9-5.4l5.2-0.4v-1.7c0-1.7-0.5-2.7-3.3-2.7
				c-2.3,0-3.3,0.8-3.3,2.8v0.1h-4v-0.1c0-4.2,2.3-6.2,7.3-6.2c5.2,0,7.3,1.8,7.3,6.1v12.3h-2.8l0,0l-0.7-1.4
				C228.2,234.9,226.4,235.9,224.1,235.9 M228.8,227.6l-4.8,0.6c-1.6,0.2-2.3,0.9-2.3,2.2c0,1.4,0.9,2.1,2.7,2.1
				c1.9,0,3.2-0.4,4.4-1.5V227.6z"/>
		</g>
	</g>
</g>
</svg>
