<svg xmlns="http://www.w3.org/2000/svg" xmlns:xlink="http://www.w3.org/1999/xlink" width="256" height="128" viewBox="0 0 256 128">
  <defs>
    <clipPath id="clip-path">
      <rect id="Bildschirmfoto_2019-06-16_um_17.29.45" data-name="Bildschirmfoto 2019-06-16 um 17.29.45" width="256" height="128" rx="8" transform="translate(1039 7929)" fill="#10182f"/>
    </clipPath>
  </defs>
  <g id="Gruppe_maskieren_6" data-name="Gruppe maskieren 6" transform="translate(-1039 -7929)" clip-path="url(#clip-path)">
    <g id="logo_prize_ergo" transform="translate(1075.536 7899.914)">
      <g id="Group-11">
        <g id="Group-10-Copy">
          <path id="Fill-3" d="M92.529,110.355,70.4,157.086l-8.064-16.529-17.9,4.233L66.565,98.059Z" fill="#843324" fill-rule="evenodd"/>
          <path id="Fill-5" d="M96.5,102.694,78.058,141.64,69.994,125.1l-17.9,4.238L70.537,90.4Z" fill="#6e2a1d" fill-rule="evenodd"/>
          <path id="Fill-7" d="M90.4,110.355l22.135,46.731,8.061-16.534,17.9,4.238L116.362,98.059Z" fill="#843324" fill-rule="evenodd"/>
          <path id="Fill-9" d="M87.334,102.694l18.443,38.946L113.84,125.1l17.9,4.238L113.3,90.4Z" fill="#6e2a1d" fill-rule="evenodd"/>
          <path id="Fill-11" d="M133.356,55.138a45.974,45.974,0,1,0-41.425,65.9h.518c.976,0,1.954-.057,2.93-.144a45.965,45.965,0,0,0,37.978-65.759" fill="#dd543b" fill-rule="evenodd"/>
          <path id="Fill-13" d="M125.352,69.858a34,34,0,0,0-3.993-12.181,18.153,18.153,0,0,0-.948-1.609,33.31,33.31,0,0,0-6.751-7.843c-.316-.287-.66-.575-1.005-.861a34.462,34.462,0,1,0-21.777,61.42h.287A34.528,34.528,0,0,0,125.638,74.31a32.525,32.525,0,0,0-.259-4.108,1.4,1.4,0,0,0-.028-.345Z" fill="#54020a" fill-rule="evenodd"/>
          <path id="Fill-15" d="M117.25,70.662A25.316,25.316,0,0,0,115.181,64a26.047,26.047,0,0,0-6.579-8.675,25.788,25.788,0,1,0,8.648,15.34" fill="#2f1110" fill-rule="evenodd"/>
          <path id="Fill-17" d="M126.51,70.48a4.725,4.725,0,0,1-3.562-4.6h-.2a4.75,4.75,0,0,1-4.77,4.768v.029a4.75,4.75,0,0,1,4.77,4.77h.2a4.75,4.75,0,0,1,3.591-4.626,5.288,5.288,0,0,1,1.178-.144v-.029a4.374,4.374,0,0,1-1.207-.172" fill="#fff" fill-rule="evenodd"/>
          <path id="Fill-19" d="M125.255,57.83a11.718,11.718,0,0,1-4.711-.978,11.9,11.9,0,0,1-7.154-10.888h-.4a10.83,10.83,0,0,1-.2,2.183,11.856,11.856,0,0,1-3.276,6.205,13.217,13.217,0,0,1-1.35,1.178,11.927,11.927,0,0,1-7.039,2.3A11.868,11.868,0,0,1,112.989,69.7h.4a11.844,11.844,0,0,1,8.1-11.232,10.9,10.9,0,0,1,3.763-.631" fill="#fff" fill-rule="evenodd"/>
          <g id="earth_icon" transform="translate(75.83 55.52)">
            <path id="Pfad_157" data-name="Pfad 157" d="M29.445,37.737a12.861,12.861,0,0,1,.124,1.558,12.4,12.4,0,0,1-3.271,8.4,3.09,3.09,0,0,0-2.96-2.165H21.781V40.854a1.563,1.563,0,0,0-1.557-1.56H10.878V36.179h3.115a1.563,1.563,0,0,0,1.558-1.552V31.506h3.115a3.124,3.124,0,0,0,3.115-3.115V24.435A15.578,15.578,0,1,0,32.684,39.3c0-.53-.031-1.043-.078-1.558ZM15.552,51.646a12.443,12.443,0,0,1-10.9-12.352,12.645,12.645,0,0,1,.326-2.789l7.462,7.462v1.558a3.124,3.124,0,0,0,3.115,3.115Z" transform="translate(-0.495 -20.608)" fill="#dd543b"/>
            <path id="Pfad_158" data-name="Pfad 158" d="M0,0H35.3V35.3H0Z" fill="none"/>
            <path id="circle" d="M15.591,31.181a15.559,15.559,0,1,1,6.069-1.224,15.518,15.518,0,0,1-6.069,1.224Zm0-27.956A12.36,12.36,0,1,0,20.4,4.2a12.308,12.308,0,0,0-4.813-.973Z" transform="translate(1.002 3.116)" fill="#dd543b"/>
          </g>
        </g>
      </g>
    </g>
  </g>
</svg>
