<svg xmlns="http://www.w3.org/2000/svg" xmlns:xlink="http://www.w3.org/1999/xlink" width="256" height="128" viewBox="0 0 256 128">
  <defs>
    <clipPath id="clip-path">
      <rect id="Bildschirmfoto_2019-06-16_um_17.29.45" data-name="Bildschirmfoto 2019-06-16 um 17.29.45" width="256" height="128" rx="8" transform="translate(624 7929)" fill="#10182f"/>
    </clipPath>
  </defs>
  <g id="Gruppe_maskieren_5" data-name="Gruppe maskieren 5" transform="translate(-624 -7929)" clip-path="url(#clip-path)">
    <g id="logo_prize1" transform="translate(661.674 7900.525)">
      <g id="Page-1-Copy-3">
        <path id="Fill-3" d="M90.979,110.106l-21.958,46.37-8-16.407-17.756,4.2L65.219,97.907Z" fill="#ff991f" fill-rule="evenodd"/>
        <path id="Fill-5" d="M94.637,102.378l-18.3,38.638-8-16.4-17.758,4.2,18.3-38.636Z" fill="#ff761a" fill-rule="evenodd"/>
        <path id="Fill-7" d="M89.672,110.106l21.961,46.37,8-16.4,17.758,4.192L115.431,97.907Z" fill="#ff991f" fill-rule="evenodd"/>
        <path id="Fill-9" d="M86.013,102.378l18.3,38.638,7.99-16.4,17.758,4.2L111.771,90.18Z" fill="#ff761a" fill-rule="evenodd"/>
        <path id="Fill-11" d="M131.787,54.323a45.61,45.61,0,1,0-41.1,65.379H91.2c.969,0,1.939-.057,2.906-.143a45.607,45.607,0,0,0,37.679-65.236" fill="#ffc533" fill-rule="evenodd"/>
        <path id="Fill-13" d="M124.633,70.026a1.387,1.387,0,0,0-.029-.342A33.731,33.731,0,0,0,120.643,57.6,18,18,0,0,0,119.7,56h0a33.045,33.045,0,0,0-6.7-7.78h0c-.314-.285-.656-.57-1-.855A34.188,34.188,0,1,0,90.4,108.3h.285a34.253,34.253,0,0,0,34.2-34.2,32.261,32.261,0,0,0-.256-4.07" fill="#d7980b" fill-rule="evenodd"/>
        <path id="Fill-15" d="M116,69.912a25.114,25.114,0,0,0-2.052-6.612,25.838,25.838,0,0,0-6.527-8.608A25.575,25.575,0,1,0,116,69.912" fill="#fceb81" fill-rule="evenodd"/>
        <path id="Fill-17" d="M124.6,69.684a4.687,4.687,0,0,1-3.534-4.562h-.2a4.72,4.72,0,0,1-4.73,4.73v.029a4.72,4.72,0,0,1,4.729,4.738h.2a4.714,4.714,0,0,1,3.562-4.589,5.246,5.246,0,0,1,1.168-.143v-.029a4.339,4.339,0,0,1-1.2-.17" fill="#fff" fill-rule="evenodd"/>
        <path id="Fill-19" d="M124.377,56.973A11.625,11.625,0,0,1,119.7,56a11.8,11.8,0,0,1-7.1-10.8h-.4a10.743,10.743,0,0,1-.2,2.166,11.758,11.758,0,0,1-3.249,6.157,13.115,13.115,0,0,1-1.34,1.168,11.832,11.832,0,0,1-6.983,2.281,11.775,11.775,0,0,1,11.769,11.767h.4a11.748,11.748,0,0,1,8.035-11.14,10.813,10.813,0,0,1,3.734-.627" fill="#fff" fill-rule="evenodd"/>
        <g id="earth_icon" transform="translate(74.608 56.131)">
          <path id="Pfad_157" data-name="Pfad 157" d="M28.971,37.129a12.653,12.653,0,0,1,.122,1.533,12.2,12.2,0,0,1-3.218,8.261,3.041,3.041,0,0,0-2.912-2.13H21.43V40.2A1.538,1.538,0,0,0,19.9,38.661H10.7V35.6h3.065A1.538,1.538,0,0,0,15.3,34.069V31h3.065a3.074,3.074,0,0,0,3.065-3.065V24.041A15.326,15.326,0,1,0,32.157,38.664c0-.522-.03-1.027-.077-1.533ZM15.3,50.814A12.242,12.242,0,0,1,4.574,38.661a12.441,12.441,0,0,1,.321-2.744l7.341,7.341v1.533A3.074,3.074,0,0,0,15.3,47.856Z" transform="translate(-0.487 -20.275)" fill="#d7980b"/>
          <path id="Pfad_158" data-name="Pfad 158" d="M0,0H34.732V34.732H0Z" fill="none"/>
          <path id="circle" d="M15.34,30.679a15.308,15.308,0,1,1,5.971-1.2,15.268,15.268,0,0,1-5.971,1.2Zm0-27.505a12.161,12.161,0,1,0,4.735.957,12.11,12.11,0,0,0-4.735-.957Z" transform="translate(0.986 3.066)" fill="#d7980b"/>
        </g>
      </g>
    </g>
  </g>
</svg>
