<svg xmlns="http://www.w3.org/2000/svg" width="147.125" height="83.528" viewBox="0 0 147.125 83.528">
  <g id="Gruppe_202" data-name="Gruppe 202" transform="translate(-886 -3801)">
    <path id="Pfad_1273" data-name="Pfad 1273" d="M-18.513-7.578A8.508,8.508,0,0,1-20.7-1.687a7.726,7.726,0,0,1-5.687,2A7.166,7.166,0,0,1-32.3-2.227q-2.055-2.539-2.055-7.242V-13.3q0-4.687,2.125-7.227a7.282,7.282,0,0,1,5.906-2.539,7.333,7.333,0,0,1,5.648,2.078,9.45,9.45,0,0,1,2.2,5.969h-4.609a6.127,6.127,0,0,0-.742-3.32,2.928,2.928,0,0,0-2.492-.914,2.787,2.787,0,0,0-2.609,1.289,9.014,9.014,0,0,0-.812,4.242v4.3a9.916,9.916,0,0,0,.758,4.656,2.784,2.784,0,0,0,2.6,1.266,3.008,3.008,0,0,0,2.5-.883,5.815,5.815,0,0,0,.781-3.2ZM-9.288,0h-4.594V-22.75h4.594ZM10.453-18.922H4.828V0H.219V-18.922H-5.312V-22.75H10.453ZM21.8-12.531,25.225-22.75h5L24.131-8.25V0H19.475V-8.25l-6.109-14.5h5ZM-26.934,16.685a3.722,3.722,0,0,1-.957,2.577,3.38,3.38,0,0,1-2.488.875,3.135,3.135,0,0,1-2.587-1.111,4.923,4.923,0,0,1-.9-3.168V14.183a4.8,4.8,0,0,1,.93-3.162A3.186,3.186,0,0,1-30.352,9.91a3.208,3.208,0,0,1,2.471.909,4.134,4.134,0,0,1,.96,2.611h-2.017a2.681,2.681,0,0,0-.325-1.453,1.281,1.281,0,0,0-1.09-.4,1.219,1.219,0,0,0-1.142.564A3.944,3.944,0,0,0-31.849,14v1.88a4.338,4.338,0,0,0,.332,2.037,1.218,1.218,0,0,0,1.138.554,1.316,1.316,0,0,0,1.094-.386,2.544,2.544,0,0,0,.342-1.4ZM-18.717,20h-2V15.741h-2.967V20H-25.7V10.047h2.01v4.026h2.967V10.047h2Zm6.487-2.037h-2.741L-15.5,20H-17.63l3.11-9.953h1.839L-9.55,20H-11.7Zm-2.3-1.675h1.859l-.93-3.548Zm7.923,2.044h3.527V20H-8.62V10.047h2.01Zm6.7,0H3.616V20H-1.921V10.047H.089Zm9.83-2.639H6.788v2.639h3.705V20H4.778V10.047h5.7v1.675H6.788v2.352H9.919ZM18.607,20H16.6l-2.939-6.528V20h-2.01V10.047h2.01L16.6,16.582V10.047h2Zm8.381-1.128a3.667,3.667,0,0,1-1.425.947,5.208,5.208,0,0,1-1.849.318,3.391,3.391,0,0,1-2.666-1.063,4.6,4.6,0,0,1-.978-3.093V14.189a4.923,4.923,0,0,1,.9-3.168A3.175,3.175,0,0,1,23.591,9.91a3.377,3.377,0,0,1,2.444.8,3.785,3.785,0,0,1,.954,2.509H25.033a2.27,2.27,0,0,0-.4-1.3,1.27,1.27,0,0,0-.984-.345,1.288,1.288,0,0,0-1.183.595,3.79,3.79,0,0,0-.383,1.894v1.8a3.7,3.7,0,0,0,.407,1.979,1.48,1.48,0,0,0,1.336.619,1.746,1.746,0,0,0,.964-.239l.178-.123V16.281H23.563V14.764h3.425Zm6.563-3.179H30.42v2.639h3.705V20H28.41V10.047h5.7v1.675H30.42v2.352h3.131Z" transform="translate(999 3831)" fill="#dd543b"/>
    <g id="logo_prize_ergo" transform="translate(857 3782)">
      <g id="Group-11">
        <g id="Group-10-Copy">
          <path id="Fill-3" d="M60.391,72.025l-14.445,30.5L40.683,91.737,29,94.5,43.445,64Z" fill="#843324" fill-rule="evenodd"/>
          <path id="Fill-5" d="M62.984,67.025,50.946,92.444,45.683,81.652,34,84.418,46.037,59Z" fill="#6e2a1d" fill-rule="evenodd"/>
          <path id="Fill-7" d="M59,72.025l14.447,30.5,5.261-10.791L90.391,94.5,75.946,64Z" fill="#843324" fill-rule="evenodd"/>
          <path id="Fill-9" d="M57,67.025,69.037,92.444,74.3,81.652l11.683,2.766L73.946,59Z" fill="#6e2a1d" fill-rule="evenodd"/>
          <path id="Fill-11" d="M87.037,35.987A30.006,30.006,0,1,0,60,79h.338c.637,0,1.275-.037,1.912-.094A30,30,0,0,0,87.037,35.987" fill="#dd543b" fill-rule="evenodd"/>
          <path id="Fill-13" d="M81.813,45.594a22.191,22.191,0,0,0-2.606-7.95,11.846,11.846,0,0,0-.619-1.05,21.74,21.74,0,0,0-4.406-5.119c-.206-.187-.431-.375-.656-.562A22.492,22.492,0,1,0,59.313,71H59.5A22.535,22.535,0,0,0,82,48.5a21.227,21.227,0,0,0-.169-2.681A.913.913,0,0,0,81.813,45.594Z" fill="#54020a" fill-rule="evenodd"/>
          <path id="Fill-15" d="M76.525,46.119a16.523,16.523,0,0,0-1.35-4.35,17,17,0,0,0-4.294-5.662A16.729,16.729,0,0,0,59.875,32a16.864,16.864,0,1,0,16.65,14.119" fill="#2f1110" fill-rule="evenodd"/>
          <path id="Fill-17" d="M82.569,46a3.084,3.084,0,0,1-2.325-3h-.131A3.1,3.1,0,0,1,77,46.112v.019a3.1,3.1,0,0,1,3.113,3.113h.131a3.1,3.1,0,0,1,2.344-3.019,3.451,3.451,0,0,1,.769-.094v-.019A2.855,2.855,0,0,1,82.569,46" fill="#fff" fill-rule="evenodd"/>
          <path id="Fill-19" d="M81.75,37.744a7.648,7.648,0,0,1-3.075-.638A7.765,7.765,0,0,1,74.006,30h-.262a7.069,7.069,0,0,1-.131,1.425,7.738,7.738,0,0,1-2.138,4.05,8.626,8.626,0,0,1-.881.769A7.784,7.784,0,0,1,66,37.744a7.746,7.746,0,0,1,7.744,7.744h.262a7.667,7.667,0,0,1,.881-3.581,7.662,7.662,0,0,1,4.406-3.75,7.113,7.113,0,0,1,2.456-.412" fill="#fff" fill-rule="evenodd"/>
          <g id="earth_icon" transform="translate(49.492 36.236)">
            <path id="Pfad_157" data-name="Pfad 157" d="M19.218,24.63a8.394,8.394,0,0,1,.081,1.017,8.09,8.09,0,0,1-2.135,5.48,2.017,2.017,0,0,0-1.932-1.413H14.216v-3.05A1.02,1.02,0,0,0,13.2,25.646H7.1V23.613H9.133A1.02,1.02,0,0,0,10.15,22.6V20.563h2.033a2.039,2.039,0,0,0,2.033-2.033V15.948a10.167,10.167,0,1,0,7.116,9.7c0-.346-.02-.681-.051-1.017ZM10.15,33.708a8.121,8.121,0,0,1-7.116-8.062,8.253,8.253,0,0,1,.213-1.82l4.87,4.87v1.017a2.039,2.039,0,0,0,2.033,2.033Z" transform="translate(-0.323 -13.45)" fill="#dd543b"/>
            <path id="Pfad_158" data-name="Pfad 158" d="M0,0H23.04V23.04H0Z" fill="none"/>
            <path id="circle" d="M10.176,20.351a10.128,10.128,0,0,1-5.689-1.738A10.205,10.205,0,0,1,.8,14.137a10.162,10.162,0,0,1,.938-9.65A10.205,10.205,0,0,1,6.215.8a10.162,10.162,0,0,1,9.65.938,10.205,10.205,0,0,1,3.687,4.477,10.162,10.162,0,0,1-.938,9.65,10.205,10.205,0,0,1-4.477,3.687A10.112,10.112,0,0,1,10.176,20.351Zm0-18.246A8.033,8.033,0,0,0,5.664,3.484,8.094,8.094,0,0,0,2.74,7.034a8.06,8.06,0,0,0,.744,7.654,8.094,8.094,0,0,0,3.551,2.924,8.06,8.06,0,0,0,7.654-.744,8.094,8.094,0,0,0,2.924-3.551,8.06,8.06,0,0,0-.744-7.654A8.094,8.094,0,0,0,13.317,2.74,8.02,8.02,0,0,0,10.176,2.105Z" transform="translate(0.654 2.034)" fill="#dd543b"/>
          </g>
        </g>
      </g>
    </g>
  </g>
</svg>
