<svg xmlns="http://www.w3.org/2000/svg" width="145.125" height="83.528" viewBox="0 0 145.125 83.528">
  <g id="Gruppe_203" data-name="Gruppe 203" transform="translate(-359 -3801)">
    <path id="Pfad_1274" data-name="Pfad 1274" d="M-26.946-3.079a3.456,3.456,0,0,1-.889,2.393,3.139,3.139,0,0,1-2.311.813A2.911,2.911,0,0,1-32.548-.9a4.571,4.571,0,0,1-.835-2.942V-5.4a4.453,4.453,0,0,1,.863-2.936,2.958,2.958,0,0,1,2.4-1.031,2.979,2.979,0,0,1,2.295.844A3.839,3.839,0,0,1-26.933-6.1h-1.873a2.489,2.489,0,0,0-.3-1.349A1.19,1.19,0,0,0-30.12-7.82a1.132,1.132,0,0,0-1.06.524,3.662,3.662,0,0,0-.33,1.723v1.746A4.028,4.028,0,0,0-31.2-1.936a1.131,1.131,0,0,0,1.057.514,1.222,1.222,0,0,0,1.016-.359,2.362,2.362,0,0,0,.317-1.3Zm7.655-.711A4.311,4.311,0,0,1-20.17-.9,3.039,3.039,0,0,1-22.61.127,3.074,3.074,0,0,1-25.054-.892a4.248,4.248,0,0,1-.9-2.853V-5.326A4.544,4.544,0,0,1-25.073-8.3a3,3,0,0,1,2.45-1.07,3.016,3.016,0,0,1,2.431,1.051,4.481,4.481,0,0,1,.9,2.948Zm-1.873-1.549a3.8,3.8,0,0,0-.355-1.86,1.19,1.19,0,0,0-1.1-.609,1.194,1.194,0,0,0-1.1.587,3.606,3.606,0,0,0-.368,1.787V-3.79A3.437,3.437,0,0,0-23.728-2a1.227,1.227,0,0,0,1.117.574,1.2,1.2,0,0,0,1.085-.562,3.371,3.371,0,0,0,.362-1.742Zm5.649-3.9,1.746,6.684,1.739-6.684h2.438V0h-1.873V-2.5l.171-3.853L-13.14,0h-1.27l-1.847-6.354.171,3.853V0h-1.866V-9.242Zm9.858,0L-3.91-2.558l1.739-6.684H.267V0H-1.606V-2.5l.171-3.853L-3.282,0h-1.27L-6.4-6.354-6.227-2.5V0H-8.093V-9.242Zm13.432,0v6.4A2.989,2.989,0,0,1,6.982-.638,3.07,3.07,0,0,1,4.742.127,3.1,3.1,0,0,1,2.472-.647a3.012,3.012,0,0,1-.784-2.241V-9.242H3.567v6.36a1.9,1.9,0,0,0,.254,1.124,1.088,1.088,0,0,0,.92.336,1.075,1.075,0,0,0,.914-.333A1.9,1.9,0,0,0,5.91-2.85V-9.242ZM15.653,0H13.787L11.058-6.062V0H9.191V-9.242h1.866l2.736,6.068V-9.242h1.86ZM19.1,0H17.234V-9.242H19.1Zm7.37-7.687H24.185V0H22.312V-7.687H20.065V-9.242h6.4Zm3.961,2.6,1.39-4.151h2.031L31.376-3.352V0H29.485V-3.352L27-9.242h2.031ZM-26.934,12.685a3.722,3.722,0,0,1-.957,2.577,3.38,3.38,0,0,1-2.488.875,3.135,3.135,0,0,1-2.587-1.111,4.923,4.923,0,0,1-.9-3.168V10.183a4.8,4.8,0,0,1,.93-3.162A3.186,3.186,0,0,1-30.352,5.91a3.208,3.208,0,0,1,2.471.909,4.134,4.134,0,0,1,.96,2.611h-2.017a2.681,2.681,0,0,0-.325-1.453,1.281,1.281,0,0,0-1.09-.4,1.219,1.219,0,0,0-1.142.564A3.944,3.944,0,0,0-31.849,10v1.88a4.338,4.338,0,0,0,.332,2.037,1.218,1.218,0,0,0,1.138.554,1.316,1.316,0,0,0,1.094-.386,2.544,2.544,0,0,0,.342-1.4ZM-18.717,16h-2V11.741h-2.967V16H-25.7V6.047h2.01v4.026h2.967V6.047h2Zm6.487-2.037h-2.741L-15.5,16H-17.63l3.11-9.953h1.839L-9.55,16H-11.7Zm-2.3-1.675h1.859L-13.6,8.74Zm7.923,2.044h3.527V16H-8.62V6.047h2.01Zm6.7,0H3.616V16H-1.921V6.047H.089Zm9.83-2.639H6.788v2.639h3.705V16H4.778V6.047h5.7V7.722H6.788v2.352H9.919ZM18.607,16H16.6L13.658,9.472V16h-2.01V6.047h2.01L16.6,12.582V6.047h2Zm8.381-1.128a3.667,3.667,0,0,1-1.425.947,5.208,5.208,0,0,1-1.849.318,3.391,3.391,0,0,1-2.666-1.063,4.6,4.6,0,0,1-.978-3.093V10.189a4.923,4.923,0,0,1,.9-3.168A3.175,3.175,0,0,1,23.591,5.91a3.377,3.377,0,0,1,2.444.8,3.785,3.785,0,0,1,.954,2.509H25.033a2.27,2.27,0,0,0-.4-1.3,1.27,1.27,0,0,0-.984-.345,1.288,1.288,0,0,0-1.183.595,3.79,3.79,0,0,0-.383,1.894v1.8a3.7,3.7,0,0,0,.407,1.979,1.48,1.48,0,0,0,1.336.619,1.746,1.746,0,0,0,.964-.239l.178-.123V12.281H23.563V10.764h3.425Zm6.563-3.179H30.42v2.639h3.705V16H28.41V6.047h5.7V7.722H30.42v2.352h3.131Z" transform="translate(470 3827)" fill="#a8e5a3"/>
    <g id="logo_prize_ergo" transform="translate(330 3782)">
      <g id="Group-11">
        <g id="Group-10-Copy">
          <path id="Fill-3" d="M60.391,72.025l-14.445,30.5L40.683,91.737,29,94.5,43.445,64Z" fill="#749b71" fill-rule="evenodd"/>
          <path id="Fill-5" d="M62.984,67.025,50.946,92.444,45.683,81.652,34,84.418,46.037,59Z" fill="#577455" fill-rule="evenodd"/>
          <path id="Fill-7" d="M59,72.025l14.447,30.5,5.261-10.791L90.391,94.5,75.946,64Z" fill="#749b71" fill-rule="evenodd"/>
          <path id="Fill-9" d="M57,67.025,69.037,92.444,74.3,81.652l11.683,2.766L73.946,59Z" fill="#577455" fill-rule="evenodd"/>
          <path id="Fill-11" d="M87.037,35.987A30.006,30.006,0,1,0,60,79h.338c.637,0,1.275-.037,1.912-.094A30,30,0,0,0,87.037,35.987" fill="#a8e5a3" fill-rule="evenodd"/>
          <path id="Fill-13" d="M81.813,45.594a22.191,22.191,0,0,0-2.606-7.95,11.846,11.846,0,0,0-.619-1.05,21.74,21.74,0,0,0-4.406-5.119c-.206-.187-.431-.375-.656-.562A22.492,22.492,0,1,0,59.313,71H59.5A22.535,22.535,0,0,0,82,48.5a21.227,21.227,0,0,0-.169-2.681A.913.913,0,0,0,81.813,45.594Z" fill="#205d48" fill-rule="evenodd"/>
          <path id="Fill-15" d="M76.525,46.119a16.523,16.523,0,0,0-1.35-4.35,17,17,0,0,0-4.294-5.662A16.729,16.729,0,0,0,59.875,32a16.864,16.864,0,1,0,16.65,14.119" fill="#10182f" fill-rule="evenodd"/>
          <path id="Fill-17" d="M82.569,46a3.084,3.084,0,0,1-2.325-3h-.131A3.1,3.1,0,0,1,77,46.112v.019a3.1,3.1,0,0,1,3.113,3.113h.131a3.1,3.1,0,0,1,2.344-3.019,3.451,3.451,0,0,1,.769-.094v-.019A2.855,2.855,0,0,1,82.569,46" fill="#fff" fill-rule="evenodd"/>
          <path id="Fill-19" d="M81.75,37.744a7.648,7.648,0,0,1-3.075-.638A7.765,7.765,0,0,1,74.006,30h-.262a7.069,7.069,0,0,1-.131,1.425,7.738,7.738,0,0,1-2.138,4.05,8.626,8.626,0,0,1-.881.769A7.784,7.784,0,0,1,66,37.744a7.746,7.746,0,0,1,7.744,7.744h.262a7.667,7.667,0,0,1,.881-3.581,7.662,7.662,0,0,1,4.406-3.75,7.113,7.113,0,0,1,2.456-.412" fill="#fff" fill-rule="evenodd"/>
          <g id="earth_icon" transform="translate(49.492 36.236)">
            <path id="Pfad_157" data-name="Pfad 157" d="M19.218,24.63a8.394,8.394,0,0,1,.081,1.017,8.09,8.09,0,0,1-2.135,5.48,2.017,2.017,0,0,0-1.932-1.413H14.216v-3.05A1.02,1.02,0,0,0,13.2,25.646H7.1V23.613H9.133A1.02,1.02,0,0,0,10.15,22.6V20.563h2.033a2.039,2.039,0,0,0,2.033-2.033V15.948a10.167,10.167,0,1,0,7.116,9.7c0-.346-.02-.681-.051-1.017ZM10.15,33.708a8.121,8.121,0,0,1-7.116-8.062,8.253,8.253,0,0,1,.213-1.82l4.87,4.87v1.017a2.039,2.039,0,0,0,2.033,2.033Z" transform="translate(-0.323 -13.45)" fill="#a8e5a3"/>
            <path id="Pfad_158" data-name="Pfad 158" d="M0,0H23.04V23.04H0Z" fill="none"/>
            <path id="circle" d="M10.176,20.351a10.128,10.128,0,0,1-5.689-1.738A10.205,10.205,0,0,1,.8,14.137a10.162,10.162,0,0,1,.938-9.65A10.205,10.205,0,0,1,6.215.8a10.162,10.162,0,0,1,9.65.938,10.205,10.205,0,0,1,3.687,4.477,10.162,10.162,0,0,1-.938,9.65,10.205,10.205,0,0,1-4.477,3.687A10.112,10.112,0,0,1,10.176,20.351Zm0-18.246A8.033,8.033,0,0,0,5.664,3.484,8.094,8.094,0,0,0,2.74,7.034a8.06,8.06,0,0,0,.744,7.654,8.094,8.094,0,0,0,3.551,2.924,8.06,8.06,0,0,0,7.654-.744,8.094,8.094,0,0,0,2.924-3.551,8.06,8.06,0,0,0-.744-7.654A8.094,8.094,0,0,0,13.317,2.74,8.02,8.02,0,0,0,10.176,2.105Z" transform="translate(0.654 2.034)" fill="#a8e5a3"/>
          </g>
        </g>
      </g>
    </g>
  </g>
</svg>
