<svg xmlns="http://www.w3.org/2000/svg" xmlns:xlink="http://www.w3.org/1999/xlink" width="364" height="258" viewBox="0 0 364 258">
  <defs>
    <radialGradient id="radial-gradient" cx="0.067" cy="0.743" r="0.99" gradientTransform="matrix(0.86, -0.511, 0.511, 0.86, -0.37, 0.138)" gradientUnits="objectBoundingBox">
      <stop offset="0" stop-color="#2c7db7"/>
      <stop offset="1" stop-color="#70b4df"/>
    </radialGradient>
    <filter id="Ellipse_1665" x="56" y="0" width="258" height="258" filterUnits="userSpaceOnUse">
      <feOffset input="SourceAlpha"/>
      <feGaussianBlur stdDeviation="12" result="blur"/>
      <feFlood flood-color="#70b4df" flood-opacity="0.502"/>
      <feComposite operator="in" in2="blur"/>
      <feComposite in="SourceGraphic"/>
    </filter>
    <radialGradient id="radial-gradient-2" cx="0.933" cy="0.147" r="1.438" gradientTransform="matrix(-0.609, 0.479, -0.332, -0.878, 1.55, -0.17)" gradientUnits="objectBoundingBox">
      <stop offset="0" stop-color="#e5e2a3"/>
      <stop offset="1" stop-color="#4cae79"/>
    </radialGradient>
  </defs>
  <g id="earth_small" transform="translate(-1073 -1570)">
    <path id="atmosphere" d="M229,245H153a22,22,0,1,1,0-44h76a22,22,0,1,1,0,44Zm211-33H291a25,25,0,0,1-18.331-42h-.7A21.91,21.91,0,0,1,258,175H171a22,22,0,1,1,0-44h3a25,25,0,1,0,0-50H138a25,25,0,1,1,0-50H287a25,25,0,0,1,16.249,44h11.659A21.939,21.939,0,0,1,331,68h87a22,22,0,1,1,0,44h-2v.079a25,25,0,0,0,0,49.843V162h24a25,25,0,1,1,0,50ZM455,44H377a22.006,22.006,0,0,1-8.563-42.271A21.861,21.861,0,0,1,377,0h78a22.006,22.006,0,0,1,8.563,42.271A21.862,21.862,0,0,1,455,44Z" transform="translate(960 1579)" fill="rgba(255,255,255,0.05)"/>
    <g transform="matrix(1, 0, 0, 1, 1073, 1570)" filter="url(#Ellipse_1665)">
      <circle id="Ellipse_1665-2" data-name="Ellipse 1665" cx="93" cy="93" r="93" transform="translate(92 36)" fill="url(#radial-gradient)"/>
    </g>
    <path id="Vereinigungsmenge_23" data-name="Vereinigungsmenge 23" d="M160,129a6.007,6.007,0,0,0-6-6H142a8,8,0,0,1,0-16h5a6,6,0,1,0,0-12h-9a8,8,0,1,1,0-16h46.954a92.717,92.717,0,0,1-24.477,50ZM87,111a8,8,0,1,1,0-16H99a8,8,0,1,1,0,16Zm-75.954-2A92.6,92.6,0,0,1,0,65H65a8,8,0,0,1,0,16H31a6,6,0,0,0,0,12h4v.252A8,8,0,0,1,33,109ZM131,61a8,8,0,0,1,0-16h33a6,6,0,1,0,0-12h-9a8,8,0,0,1,0-16h17.672a92.474,92.474,0,0,1,13.243,44ZM2.381,44A92.852,92.852,0,0,1,26.487,0H56a8,8,0,0,1,0,16H47a6,6,0,1,0,0,12H58a8,8,0,0,1,0,16Z" transform="translate(1165 1634)" fill="url(#radial-gradient-2)"/>
    <path id="Pfad_257" data-name="Pfad 257" d="M85,32a8.009,8.009,0,0,1-8-8V22a6,6,0,0,0-1.436-3.894C74.648,17.033,73.382,16.315,71,16a8.013,8.013,0,0,1-7.5-5.223A93.142,93.142,0,0,1,157.5,32Z" transform="translate(1165 1600)" fill="#bae9e8"/>
    <path id="Pfad_256" data-name="Pfad 256" d="M50.564,175.776A7.951,7.951,0,0,1,54,175h4a6,6,0,1,0,0-12H56v-.062A8,8,0,0,1,57,147H95a8,8,0,0,1,1,15.938V163H92a6,6,0,1,0,0,12h25a8.014,8.014,0,0,1,7.6,5.495,93.283,93.283,0,0,1-74.035-4.719Z" transform="translate(1165 1606)" fill="#bae9e8"/>
    <path id="shadow" d="M93,186a93.686,93.686,0,0,1-18.743-1.889A92.489,92.489,0,0,1,41,170.117,93.272,93.272,0,0,1,7.308,129.2a92.532,92.532,0,0,1-5.419-17.457,93.907,93.907,0,0,1,0-37.486A92.49,92.49,0,0,1,15.883,41,93.272,93.272,0,0,1,56.8,7.308,92.532,92.532,0,0,1,74.257,1.889a93.907,93.907,0,0,1,37.486,0A92.492,92.492,0,0,1,145,15.883,93.272,93.272,0,0,1,178.692,56.8a92.533,92.533,0,0,1,5.419,17.457,93.908,93.908,0,0,1,0,37.486A92.49,92.49,0,0,1,170.117,145,93.272,93.272,0,0,1,129.2,178.692a92.535,92.535,0,0,1-17.457,5.419A93.689,93.689,0,0,1,93,186ZM93,19A73.654,73.654,0,0,0,51.626,31.638,74.216,74.216,0,0,0,24.815,64.2a73.9,73.9,0,0,0,6.823,70.178A74.216,74.216,0,0,0,64.2,161.185a73.9,73.9,0,0,0,70.178-6.823A74.218,74.218,0,0,0,161.185,121.8a73.9,73.9,0,0,0-6.823-70.178A74.217,74.217,0,0,0,121.8,24.815,73.538,73.538,0,0,0,93,19Z" transform="translate(1165 1606)" fill="rgba(0,0,0,0.1)"/>
  </g>
</svg>
