<svg xmlns="http://www.w3.org/2000/svg" xmlns:xlink="http://www.w3.org/1999/xlink" width="245" height="245" viewBox="0 0 245 245">
  <defs>
    <clipPath id="clip-path">
      <rect id="Rechteck_649" data-name="Rechteck 649" width="245" height="245" rx="8" transform="translate(837 21292)" fill="rgba(255,255,255,0.1)"/>
    </clipPath>
  </defs>
  <g id="Gruppe_maskieren_49" data-name="Gruppe maskieren 49" transform="translate(-837 -21292)" clip-path="url(#clip-path)">
    <g id="icon_first" transform="translate(837 21292)">
      <path id="Pfad_1136" data-name="Pfad 1136" d="M219.655,123.345v5.069c0,29.569-49,53.224-109.828,53.224-33.371,0-63.362-7.181-83.638-18.586,6.759,26.19,52.8,48.155,108.983,48.155C196,211.207,245,185.44,245,156.293,245,143.621,235.284,132.216,219.655,123.345Z" fill="#fcc62b"/>
      <path id="Pfad_1137" data-name="Pfad 1137" d="M135.172,211.207c-60.828,0-109.828-25.767-109.828-54.914v35.483c0,29.569,49,53.224,109.828,53.224S245,221.345,245,191.776V156.293C245,185.44,196,211.207,135.172,211.207Z" fill="#e5af17"/>
      <g id="Gruppe_170" data-name="Gruppe 170">
        <path id="Pfad_1138" data-name="Pfad 1138" d="M38.017,216.7a62.969,62.969,0,0,0,8.448,6.336v-35.06a65.827,65.827,0,0,1-8.448-6.759Z" fill="#ce9811"/>
        <path id="Pfad_1139" data-name="Pfad 1139" d="M223.879,188.4v35.06c2.957-2.112,5.914-4.224,8.448-6.336V181.638A65.827,65.827,0,0,1,223.879,188.4Z" fill="#ce9811"/>
        <path id="Pfad_1140" data-name="Pfad 1140" d="M54.914,228.526c2.534,1.267,5.491,2.534,8.448,3.8V197.69a52.568,52.568,0,0,1-8.448-4.224Z" fill="#ce9811"/>
        <path id="Pfad_1141" data-name="Pfad 1141" d="M206.983,232.328c2.957-1.267,5.914-2.534,8.448-3.8V193.888c-2.534,1.267-5.491,2.957-8.448,4.224Z" fill="#ce9811"/>
        <path id="Pfad_1142" data-name="Pfad 1142" d="M71.81,235.284c2.534.845,5.491,1.69,8.448,2.534V203.6a49.694,49.694,0,0,1-8.448-2.957Z" fill="#ce9811"/>
        <path id="Pfad_1143" data-name="Pfad 1143" d="M190.086,238.241c2.957-.845,5.914-1.69,8.448-2.534V201.069c-2.534.845-5.491,2.112-8.448,2.957Z" fill="#ce9811"/>
        <path id="Pfad_1144" data-name="Pfad 1144" d="M92.931,241.2a59.808,59.808,0,0,1,8.448,1.69V209.095a59.808,59.808,0,0,1-8.448-1.69Z" fill="#ce9811"/>
        <path id="Pfad_1145" data-name="Pfad 1145" d="M168.966,242.466a59.808,59.808,0,0,0,8.448-1.69V206.983c-2.957.422-5.491,1.267-8.448,1.69Z" fill="#ce9811"/>
        <path id="Pfad_1146" data-name="Pfad 1146" d="M118.276,244.578c2.957,0,5.491.422,8.448.422V211.207c-2.957,0-5.491-.422-8.448-.422Z" fill="#ce9811"/>
        <path id="Pfad_1147" data-name="Pfad 1147" d="M143.621,245c2.957,0,5.491-.422,8.448-.422V210.784a56.613,56.613,0,0,1-8.448.422Z" fill="#ce9811"/>
      </g>
      <path id="Pfad_1148" data-name="Pfad 1148" d="M109.828,147.845C49,147.845,0,122.078,0,92.931v35.483c0,29.569,49,53.224,109.828,53.224s109.828-23.655,109.828-53.224V92.931C219.655,122.078,170.655,147.845,109.828,147.845Z" fill="#e5af17"/>
      <g id="Gruppe_171" data-name="Gruppe 171">
        <path id="Pfad_1149" data-name="Pfad 1149" d="M12.672,153.336a62.968,62.968,0,0,0,8.448,6.336v-35.06a65.826,65.826,0,0,1-8.448-6.759Z" fill="#ce9811"/>
        <path id="Pfad_1150" data-name="Pfad 1150" d="M198.534,125.034v35.06c2.957-2.112,5.914-4.224,8.448-6.336V118.276A65.825,65.825,0,0,1,198.534,125.034Z" fill="#ce9811"/>
        <path id="Pfad_1151" data-name="Pfad 1151" d="M29.569,165.164c2.534,1.267,5.491,2.534,8.448,3.8V134.328a52.57,52.57,0,0,1-8.448-4.224Z" fill="#ce9811"/>
        <path id="Pfad_1152" data-name="Pfad 1152" d="M181.638,168.966c2.957-1.267,5.914-2.534,8.448-3.8V130.526c-2.534,1.267-5.491,2.957-8.448,4.224Z" fill="#ce9811"/>
        <path id="Pfad_1153" data-name="Pfad 1153" d="M46.466,171.922c2.534.845,5.491,1.69,8.448,2.534V140.241a49.694,49.694,0,0,1-8.448-2.957Z" fill="#ce9811"/>
        <path id="Pfad_1154" data-name="Pfad 1154" d="M164.741,174.879c2.957-.845,5.914-1.69,8.448-2.534V137.707c-2.534.845-5.491,2.112-8.448,2.957Z" fill="#ce9811"/>
        <path id="Pfad_1155" data-name="Pfad 1155" d="M67.586,177.836a59.81,59.81,0,0,1,8.448,1.69V145.733a59.808,59.808,0,0,1-8.448-1.69Z" fill="#ce9811"/>
        <path id="Pfad_1156" data-name="Pfad 1156" d="M143.621,179.1a59.807,59.807,0,0,0,8.448-1.69V143.621c-2.957.422-5.491,1.267-8.448,1.69Z" fill="#ce9811"/>
        <path id="Pfad_1157" data-name="Pfad 1157" d="M92.931,181.216c2.957,0,5.491.422,8.448.422V147.845c-2.957,0-5.491-.422-8.448-.422Z" fill="#ce9811"/>
        <path id="Pfad_1158" data-name="Pfad 1158" d="M118.276,181.638c2.957,0,5.491-.422,8.448-.422V147.422a56.613,56.613,0,0,1-8.448.422Z" fill="#ce9811"/>
      </g>
      <path id="Pfad_1159" data-name="Pfad 1159" d="M216.7,140.664c-11.405,23.655-54.914,40.974-106.871,40.974a211.785,211.785,0,0,1-53.647-6.759c15.629,10.56,42.664,19.431,78.991,19.431,57.871,0,92.931-22.388,92.931-38.017C228.1,151.224,224.3,145.733,216.7,140.664Z" fill="#ffd947"/>
      <path id="Pfad_1160" data-name="Pfad 1160" d="M130.948,139.4c-60.828,0-109.828-23.655-109.828-53.224V62.095C8.026,70.543,0,80.681,0,92.509c0,29.147,49,54.914,109.828,54.914,29.147,0,55.759-5.914,75.19-15.207C169.388,136.862,150.8,139.4,130.948,139.4Z" fill="#ffd947"/>
      <path id="Pfad_1161" data-name="Pfad 1161" d="M130.948,105.6C70.121,105.6,21.121,79.836,21.121,50.69V86.172c0,29.569,49,53.224,109.828,53.224s109.828-23.655,109.828-53.224V50.69C240.776,79.836,191.776,105.6,130.948,105.6Z" fill="#e5af17"/>
      <g id="Gruppe_172" data-name="Gruppe 172">
        <path id="Pfad_1162" data-name="Pfad 1162" d="M33.793,111.095a62.968,62.968,0,0,0,8.448,6.336V82.371a65.826,65.826,0,0,1-8.448-6.759Z" fill="#ce9811"/>
        <path id="Pfad_1163" data-name="Pfad 1163" d="M219.655,82.793v35.06c2.957-2.112,5.914-4.224,8.448-6.336V76.034A65.825,65.825,0,0,1,219.655,82.793Z" fill="#ce9811"/>
        <path id="Pfad_1164" data-name="Pfad 1164" d="M50.69,122.922c2.534,1.267,5.491,2.534,8.448,3.8V92.086a52.569,52.569,0,0,1-8.448-4.224Z" fill="#ce9811"/>
        <path id="Pfad_1165" data-name="Pfad 1165" d="M202.759,126.724c2.957-1.267,5.914-2.534,8.448-3.8V88.284c-2.534,1.267-5.491,2.957-8.448,4.224Z" fill="#ce9811"/>
        <path id="Pfad_1166" data-name="Pfad 1166" d="M67.586,129.681c2.534.845,5.491,1.69,8.448,2.534V98a49.694,49.694,0,0,1-8.448-2.957Z" fill="#ce9811"/>
        <path id="Pfad_1167" data-name="Pfad 1167" d="M185.862,132.638c2.957-.845,5.914-1.69,8.448-2.534V95.466c-2.534.845-5.491,2.112-8.448,2.957Z" fill="#ce9811"/>
        <path id="Pfad_1168" data-name="Pfad 1168" d="M88.707,135.595a59.808,59.808,0,0,1,8.448,1.69V103.491a59.81,59.81,0,0,1-8.448-1.69Z" fill="#ce9811"/>
        <path id="Pfad_1169" data-name="Pfad 1169" d="M164.741,136.862a59.808,59.808,0,0,0,8.448-1.69V101.379c-2.957.422-5.491,1.267-8.448,1.69Z" fill="#ce9811"/>
        <path id="Pfad_1170" data-name="Pfad 1170" d="M114.052,138.974c2.957,0,5.491.422,8.448.422V105.6c-2.957,0-5.491-.422-8.448-.422Z" fill="#ce9811"/>
        <path id="Pfad_1171" data-name="Pfad 1171" d="M139.4,139.4c2.957,0,5.491-.422,8.448-.422V105.181a56.612,56.612,0,0,1-8.448.422Z" fill="#ce9811"/>
      </g>
      <path id="Pfad_1172" data-name="Pfad 1172" d="M240.776,50.69c0,29.147-49,54.914-109.828,54.914S21.121,79.836,21.121,50.69,70.121,0,130.948,0,240.776,21.543,240.776,50.69Z" fill="#fcc62b"/>
      <path id="Pfad_1173" data-name="Pfad 1173" d="M130.948,88.707c-57.871,0-92.931-22.388-92.931-38.017s35.06-38.017,92.931-38.017S223.879,35.06,223.879,50.69,188.819,88.707,130.948,88.707Z" fill="#ffd947"/>
      <path id="Pfad_1174" data-name="Pfad 1174" d="M159.672,56.6c3.379-.845,5.491-2.957,4.647-5.491l-.845-2.534c-.422-2.112-2.957-3.379-5.491-4.224-3.8-8.026-13.517-10.983-27.879-10.983h-2.112a43.833,43.833,0,0,1-13.517-1.69,16.556,16.556,0,0,1-3.8-1.69.809.809,0,0,0-1.267.422v2.112c.422,2.957,0,2.534-3.379,5.914a16.711,16.711,0,0,0-4.224,6.336c-2.957.845-5.069,2.534-5.491,4.224l-.845,2.534c-.845,2.534,1.267,4.647,4.647,5.491.845,6.336,5.069,11.828,14.362,14.784l-.422,4.224c0,1.267-1.267,2.112-2.534,2.957L92.931,84.905a193.638,193.638,0,0,0,37.172,3.8,186.528,186.528,0,0,0,36.328-3.379l-18.164-6.759a3.624,3.624,0,0,1-2.534-2.957l-.422-4.224C154.181,68.009,158.405,62.517,159.672,56.6Z" fill="#f0c419"/>
    </g>
  </g>
</svg>
