<svg xmlns="http://www.w3.org/2000/svg" xmlns:xlink="http://www.w3.org/1999/xlink" width="245" height="245" viewBox="0 0 245 245">
  <defs>
    <clipPath id="clip-path">
      <rect id="Rechteck_624" data-name="Rechteck 624" width="245" height="245" rx="8" transform="translate(837 16663)" fill="rgba(255,255,255,0.1)"/>
    </clipPath>
  </defs>
  <g id="Gruppe_maskieren_56" data-name="Gruppe maskieren 56" transform="translate(-837 -16663)" clip-path="url(#clip-path)">
    <g id="Paomedia-Small-N-Flat-Microphone" transform="translate(837 6164.75)">
      <path id="Pfad_1208" data-name="Pfad 1208" d="M193.958,10600.333a9.912,9.912,0,0,1,10.208,10.209v10.208c0,40.833-31.2,75.542-71.458,80.646v21.437h61.25a9.912,9.912,0,0,1,10.208,10.209,10.57,10.57,0,0,1-10.208,10.208H51.042a10.568,10.568,0,0,1-10.208-10.208,9.911,9.911,0,0,1,10.208-10.209h61.25V10701.4c-40.266-5.1-71.458-39.813-71.458-80.646v-10.208a9.911,9.911,0,0,1,10.208-10.209,9.911,9.911,0,0,1,10.208,10.209v10.208a61.25,61.25,0,0,0,122.5,0v-10.208A9.912,9.912,0,0,1,193.958,10600.333Z" fill="#95a5a6"/>
      <path id="Pfad_1209" data-name="Pfad 1209" d="M122.5,10498.25a40.894,40.894,0,0,1,40.833,40.833v81.667a40.833,40.833,0,0,1-81.667,0v-81.667A40.893,40.893,0,0,1,122.5,10498.25Z" fill="#bdc3c7"/>
      <path id="Pfad_1210" data-name="Pfad 1210" d="M122.5,10498.25v163.333a40.893,40.893,0,0,1-40.833-40.833v-81.667A40.893,40.893,0,0,1,122.5,10498.25Z" fill="#95a5a6"/>
      <path id="Pfad_1211" data-name="Pfad 1211" d="M163.333,10549.292v10.208H142.917v-10.208Zm0,20.416v10.209H142.917v-10.209Zm0,20.417v10.208H142.917v-10.208Z" fill="#95a5a6"/>
      <path id="Pfad_1212" data-name="Pfad 1212" d="M102.083,10549.292v10.208H81.667v-10.208Zm0,20.416v10.209H81.667v-10.209Zm0,20.417v10.208H81.667v-10.208Z" fill="#7f8c8d"/>
    </g>
  </g>
</svg>
