<svg xmlns="http://www.w3.org/2000/svg" xmlns:xlink="http://www.w3.org/1999/xlink" width="96" height="96" viewBox="0 0 96 96">
  <defs>
    <clipPath id="clip-path">
      <rect id="Bildschirmfoto_2019-06-16_um_17.29.45" data-name="Bildschirmfoto 2019-06-16 um 17.29.45" width="96" height="96" rx="8" transform="translate(592 12069)" fill="#10182f"/>
    </clipPath>
  </defs>
  <g id="Gruppe_maskieren_22" data-name="Gruppe maskieren 22" transform="translate(-592 -12069)" clip-path="url(#clip-path)">
    <g id="icon_nightcoding" transform="translate(592 12069)">
      <path id="Pfad_968" data-name="Pfad 968" d="M36.833,59.167c0,8.833-9.5,16.667-9.5,16.667,0-7-3.5-14-3.5-14,0,5.5-8.167,5.5-8.167,5.5-3.667-4,0-14.833,0-14.833-9,1.167-13.5,6-13.5,14.167,0,5.833,2,9.667,5.167,12.167a45.637,45.637,0,0,0-5.667-2.167A19.377,19.377,0,0,0,20.833,92.833c10.667,0,19.5-7.833,19.5-18.667S36.833,59.167,36.833,59.167Z" fill="#f0c419"/>
      <path id="Pfad_969" data-name="Pfad 969" d="M95.5,93.167,73.333,71V57.667a1.667,1.667,0,1,0-3.333,0v10L48.5,46a1.65,1.65,0,0,0-2.333,2.333L53.833,56H51.667a1.667,1.667,0,0,0,0,3.333H57l25,25H75a1.667,1.667,0,1,0,0,3.333H85.333L93.167,95.5a1.611,1.611,0,0,0,2.333,0A1.611,1.611,0,0,0,95.5,93.167Z" fill="#cb8252"/>
      <path id="Pfad_970" data-name="Pfad 970" d="M50.333,44.167,44,50.5h0c-3.5,3.5-9,3.667-12.167.333L26,45c-3.167-3.167-3-8.667.333-12.167L32.667,26.5c3.5-3.5,9-3.667,12.167-.333L50.667,32C54,35.167,53.833,40.667,50.333,44.167Z" fill="#fbd490"/>
      <path id="Pfad_971" data-name="Pfad 971" d="M32.667,26.333l-6.333,6.333a9.452,9.452,0,0,0-2.667,6.667,9.452,9.452,0,0,0,6.667-2.667h0l6.333-6.333a9.452,9.452,0,0,0,2.667-6.667A9.452,9.452,0,0,0,32.667,26.333Z" fill="#d7b888"/>
      <path id="Pfad_972" data-name="Pfad 972" d="M26.5,24.5a1.65,1.65,0,1,0-2.333,2.333l5,5a1.611,1.611,0,0,0,2.333,0,1.611,1.611,0,0,0,0-2.333Z" fill="#cb8252"/>
      <path id="Pfad_973" data-name="Pfad 973" d="M28.333,22,22,28.333h0c-3.5,3.5-9,3.667-12.167.333L4,22.833c-3.167-3.167-3-8.667.333-12.167l6.333-6.333c3.5-3.5,9-3.667,12.167-.333l5.833,5.833A8.511,8.511,0,0,1,28.333,22Z" fill="#fbd490"/>
      <path id="Pfad_974" data-name="Pfad 974" d="M10.667,4.333,4.333,10.667a9.452,9.452,0,0,0-2.667,6.667,9.452,9.452,0,0,0,6.667-2.667h0l6.333-6.333a9.452,9.452,0,0,0,2.667-6.667A9.452,9.452,0,0,0,10.667,4.333Z" fill="#d7b888"/>
      <path id="Pfad_975" data-name="Pfad 975" d="M2.833.5A1.611,1.611,0,0,0,.5.5a1.611,1.611,0,0,0,0,2.333L7.333,9.667a1.8,1.8,0,0,0,1.167.5,1.8,1.8,0,0,0,1.167-.5,1.611,1.611,0,0,0,0-2.333Z" fill="#cb8252"/>
    </g>
  </g>
</svg>
