<svg xmlns="http://www.w3.org/2000/svg" xmlns:xlink="http://www.w3.org/1999/xlink" width="96" height="96" viewBox="0 0 96 96">
  <defs>
    <clipPath id="clip-path">
      <rect id="Bildschirmfoto_2019-06-16_um_17.29.45" data-name="Bildschirmfoto 2019-06-16 um 17.29.45" width="96" height="96" rx="8" fill="#10182f"/>
    </clipPath>
  </defs>
  <g id="Gruppe_maskieren_23" data-name="Gruppe maskieren 23" clip-path="url(#clip-path)">
    <g id="icon_croissant" transform="translate(0 23.935)">
      <path id="Pfad_976" data-name="Pfad 976" d="M47.173,48.03h0a5.363,5.363,0,0,1-5.318-4.117L32.42,8.234A7.062,7.062,0,0,1,39.282,0H55.235A7.062,7.062,0,0,1,62.1,8.234l-9.435,35.68A5.712,5.712,0,0,1,47.173,48.03Z" transform="translate(-0.11)" fill="#eeaf4b"/>
      <path id="Pfad_977" data-name="Pfad 977" d="M79.593,9.606C73.932,5.489,66.042,3.088,61.41,3.774A7.357,7.357,0,0,1,62.1,8.062l-9.435,35.68a6.093,6.093,0,0,1-.686,1.544,5.1,5.1,0,0,0,2.573.858h0c8.234,2.573,20.927-13.894,27.446-23.329C85.425,18.011,84.4,13.037,79.593,9.606Z" transform="translate(-0.11)" fill="#f4c44e"/>
      <path id="Pfad_978" data-name="Pfad 978" d="M41.855,43.913,32.42,8.234a6.7,6.7,0,0,1,.686-4.46C28.3,3.259,20.756,5.489,15.1,9.606c-4.8,3.431-5.832,8.405-2.573,13.38,6.518,9.435,19.384,26.074,27.446,23.329h0a5.584,5.584,0,0,0,2.4-.686C42.2,45.114,42.026,44.428,41.855,43.913Z" transform="translate(-0.11)" fill="#f4c44e"/>
      <g id="Gruppe_136" data-name="Gruppe 136" transform="translate(0 19.041)">
        <path id="Pfad_979" data-name="Pfad 979" d="M12.522,22.986a6.884,6.884,0,0,1-1.372-2.745A45.115,45.115,0,0,0,.686,36.366c-2.4,6.518,3.088,13.208,9.435,11.493l19.041-5.489C22.814,37.052,16.467,28.647,12.522,22.986Z" transform="translate(-0.11 -19.041)" fill="#f1b501"/>
        <path id="Pfad_980" data-name="Pfad 980" d="M95.546,36.366A45.559,45.559,0,0,0,83.881,19.041a13.145,13.145,0,0,1-1.715,3.945c-3.945,5.661-9.949,13.723-16.124,18.869l20.07,5.832C92.287,49.574,97.947,42.884,95.546,36.366Z" transform="translate(-0.11 -19.041)" fill="#f1b501"/>
      </g>
      <path id="Pfad_981" data-name="Pfad 981" d="M39.11,0h-.172l2.745,10.635A5.664,5.664,0,0,0,47,14.752a5.509,5.509,0,0,0,5.318-4.117L55.406,0H39.11Z" transform="translate(-0.11)" fill="#f4c44e"/>
    </g>
  </g>
</svg>
