<svg xmlns="http://www.w3.org/2000/svg" xmlns:xlink="http://www.w3.org/1999/xlink" width="96" height="96" viewBox="0 0 96 96">
  <defs>
    <clipPath id="clip-path">
      <rect id="Bildschirmfoto_2019-06-16_um_17.29.45" data-name="Bildschirmfoto 2019-06-16 um 17.29.45" width="96" height="96" rx="8" transform="translate(1188 17275)" fill="rgba(255,255,255,0.1)"/>
    </clipPath>
  </defs>
  <g id="Gruppe_maskieren_69" data-name="Gruppe maskieren 69" transform="translate(-1188 -17275)" clip-path="url(#clip-path)">
    <g id="Webalys-Kameleon.pics-Man-6-2" transform="translate(1107.213 17207.09)">
      <g id="Gruppe_334" data-name="Gruppe 334">
        <path id="Pfad_1329" data-name="Pfad 1329" d="M-5371.573-40610.039h-6.222a6.989,6.989,0,0,1-5.24-2.34l-11.961-9.367-7.507-18.766c-6.639-.48-8.877-10.555-8.877-18.176a5.344,5.344,0,0,1,4.683-5.2c2.3,0,2.341,2.523,2.341,2.609v-.266l2.342,2.34c0-42.148,9.366-28.1,30.44-28.1s30.44-14.051,30.44,28.1l2.341-2.34v.266s0-2.609,2.342-2.609a5.35,5.35,0,0,1,4.683,5.2c0,7.621-2.248,17.7-8.9,18.176l-7.507,18.766-11.942,9.367a7.028,7.028,0,0,1-5.25,2.344Z" transform="translate(5500.359 40769.254)" fill="#bf9173"/>
        <path id="Pfad_1331" data-name="Pfad 1331" d="M-5378.181-40675.5c-21.074,0-30.44-14.051-30.44,28.1l-2.342-2.344q-.406-3.949-.417-7.926c.014-19.1,8.4-31.875,33.2-31.875,28.1,0,35.124,16.391,32.782,39.809l-2.342,2.34C-5347.74-40689.547-5357.1-40675.5-5378.181-40675.5Z" transform="translate(5506.965 40757.453)" fill="#692e19"/>
        <g id="Gruppe_330" data-name="Gruppe 330">
          <path id="Pfad_1316" data-name="Pfad 1316" d="M121.762,110.054a4.683,4.683,0,0,0-4.683-4.683h-.014a4.662,4.662,0,0,1-4.653,4.828,4.683,4.683,0,0,0,9.35-.145Z" fill="#3e3e3f"/>
        </g>
        <g id="Gruppe_331" data-name="Gruppe 331">
          <path id="Pfad_1317" data-name="Pfad 1317" d="M145.164,110.054a4.683,4.683,0,0,0-4.683-4.683h-.014a4.662,4.662,0,0,1-4.655,4.821,4.683,4.683,0,0,0,9.352-.138Z" fill="#3e3e3f"/>
        </g>
        <path id="Pfad_1330" data-name="Pfad 1330" d="M-5399.672-40656.766s-11.708-11.707-11.708-28.1c7.024-4.684,21.074-4.684,21.074-4.684s14.05,0,21.074,4.684c0,16.391-11.708,28.1-11.708,28.1l-9.367,4.684Zm9.366-16.391h2.342l2.342,2.34h4.683l2.767-4.613a4.7,4.7,0,0,0,.06-4.719,4.682,4.682,0,0,0-4.074-2.379h-16.236a4.653,4.653,0,0,0-4.077,2.375,4.668,4.668,0,0,0-.611,2.371,4.714,4.714,0,0,0,.665,2.344l2.773,4.621h4.683l2.342-2.34Z" transform="translate(5519.092 40815.992)" fill="#692e19"/>
      </g>
    </g>
  </g>
</svg>
