<svg xmlns="http://www.w3.org/2000/svg" xmlns:xlink="http://www.w3.org/1999/xlink" width="245" height="245" viewBox="0 0 245 245">
  <defs>
    <clipPath id="clip-path">
      <rect id="Rechteck_721" data-name="Rechteck 721" width="245" height="245" rx="8" transform="translate(838 18258)" fill="rgba(255,255,255,0.1)"/>
    </clipPath>
  </defs>
  <g id="Gruppe_maskieren_60" data-name="Gruppe maskieren 60" transform="translate(-838 -18258)" clip-path="url(#clip-path)">
    <g id="Paomedia-Small-N-Flat-Profile-group" transform="translate(838.07 7756.912)">
      <path id="Pfad_1220" data-name="Pfad 1220" d="M63.783,66.335a26.5,26.5,0,0,0-6.378.638A27.713,27.713,0,0,0,53.9,68.248c-.443.181-.841.433-1.276.638-.181.084-.139.231-.318.318a28.085,28.085,0,0,0-3.189,1.6c-.143.093-.5.223-.638.319-.3.2-.345.42-.638.637-.833.6-1.77,1.235-2.551,1.915-.713.641-1.246,1.521-1.914,2.232a36.875,36.875,0,0,0-6.06,7.654,45.424,45.424,0,0,0-5.421,15.627,2.642,2.642,0,0,0-1.276,0c-2.789.906-3.411,6.217-1.594,11.8a15.723,15.723,0,0,0,4.464,7.338c2.429,9.44,7.651,17.39,14.352,22.319v5.419l-5.422,5.1-10.524,5.429c-8.589,4.256-17.253,8.5-25.832,12.757-4.755,2.868-6.513,8.43-6.06,13.716.221,3.317-1.071,7.664,2.232,9.879,3.138,1.612,7.117.694,10.524.959h18.5a25.149,25.149,0,0,1,7.016-6.378l.318-.316h.319c14.4-7.072,28.617-14.287,43.053-21.37l16.584-7.97c-.94-.469-1.931-.816-2.87-1.276l-10.524-5.429-5.422-5.1V140.64a37.292,37.292,0,0,0,10.525-12.757,72.275,72.275,0,0,1-8.293-19.768,29.814,29.814,0,0,1-7.654-11.8A34.935,34.935,0,0,1,72.713,81c.562-4.056,2.511-7.895,6.378-9.886A38.906,38.906,0,0,0,75.264,69.2c-.608-.3-.97-.7-1.594-.956-.444-.181-.825-.162-1.276-.319a26.808,26.808,0,0,0-4.146-1.276c-.108-.016-.21.018-.319,0a25.611,25.611,0,0,0-4.145-.318Z" transform="translate(0 10495.179)" fill="#2c3e50"/>
      <path id="Pfad_1221" data-name="Pfad 1221" d="M137.762,10517.631c-3.613,0-7.174,0-10.593,1.02-1.99,0-3.929,1.021-5.848,2.041a2.3,2.3,0,0,0-2.235,1.021h-.837c-1.806,1.02-3.582,2.04-5.3,3.062h-.837c-.5,1.021-.9,1.021-1.388,2.041-1.4,1.021-2.868,1.021-4.184,3.062-1.194,1.021-2.225,2.041-3.347,3.063a60.563,60.563,0,0,0-9.751,13.268,68.058,68.058,0,0,0-9.478,25.514H82.016c-4.684,2.04-5.837,10.205-2.787,19.39,1.79,6.123,4.769,10.206,7.805,12.246,4.078,16.328,12.717,29.6,23.969,37.76v9.185l-8.919,8.165-17.838,9.185q-21.638,10.715-43.2,21.432c-7.986,4.082-11.075,14.287-10.314,22.451.371,6.123-1.646,13.268,3.9,16.328,5.271,3.063,11.56,1.021,17.283,1.021H173.44c21.115,0,42.169,1.021,63.283,0,6.848,0,8.746-7.144,8.083-13.268.122-8.165.612-17.349-5.858-23.473-5.276-5.1-12.787-7.144-19.227-11.226-9.46-4.083-18.982-9.186-28.432-13.268l-17.849-9.186-8.919-8.164v-9.186c11.257-8.165,19.9-21.431,23.972-37.759,3.041-2.041,6.021-6.123,7.807-12.246,3.051-9.186,1.9-17.349-2.786-19.391h-1.949a67.992,67.992,0,0,0-9.481-25.514,60.214,60.214,0,0,0-9.756-13.268c-1.123-1.02-2.143-2.04-3.347-3.062H168.7a57.077,57.077,0,0,0-11.43-8.165c-1.021,0-2.01-1.021-3.062-1.021-.745,0-1.47-1.02-2.235-1.02-2.276-1.021-4.592-1.021-6.97-2.041h-7.246Z" fill="#34495e"/>
    </g>
  </g>
</svg>
