<svg xmlns="http://www.w3.org/2000/svg" xmlns:xlink="http://www.w3.org/1999/xlink" width="96" height="96" viewBox="0 0 96 96">
  <defs>
    <clipPath id="clip-path">
      <rect id="Bildschirmfoto_2019-06-16_um_17.29.45" data-name="Bildschirmfoto 2019-06-16 um 17.29.45" width="96" height="96" rx="8" transform="translate(637 17275)" fill="rgba(255,255,255,0.1)"/>
    </clipPath>
  </defs>
  <g id="Gruppe_maskieren_66" data-name="Gruppe maskieren 66" transform="translate(-637 -17275)" clip-path="url(#clip-path)">
    <g id="Webalys-Kameleon.pics-Businesswoman-2" transform="translate(574.137 17224.574)">
      <g id="Gruppe_217" data-name="Gruppe 217">
        <path id="Pfad_1282" data-name="Pfad 1282" d="M-4262.6-36656.156c-7.03-1.219-8.873-9.793-8.873-16.355a4.837,4.837,0,0,1,4.246-4.707h2.122v-.055c.038-19.117,2.169-36.039,29.717-36.039s29.676,16.922,29.716,36.039v.055h2.123a4.835,4.835,0,0,1,4.246,4.707c0,6.563-1.832,15.137-8.864,16.355-5.179,19.316-17.446,26.617-27.216,29.871C-4245.149-36629.539-4257.422-36636.84-4262.6-36656.156Z" transform="translate(4346.911 36770.668)" fill="#f0d7b6"/>
        <g id="Gruppe_212" data-name="Gruppe 212" transform="translate(92.433 93.8)">
          <g id="Gruppe_211" data-name="Gruppe 211" transform="translate(0 0)">
            <path id="Pfad_1277" data-name="Pfad 1277" d="M102.514,95.984c3.035,0,5.576.588,6.281,2.407a5.858,5.858,0,0,0-6.281-5.192,5.731,5.731,0,0,0-6.281,5.192C96.938,96.574,99.479,95.984,102.514,95.984Z" transform="translate(-96.234 -93.17)" fill="#3e3e3f"/>
          </g>
        </g>
        <g id="Gruppe_214" data-name="Gruppe 214" transform="translate(117.741 93.8)">
          <g id="Gruppe_213" data-name="Gruppe 213" transform="translate(0 0)">
            <path id="Pfad_1278" data-name="Pfad 1278" d="M127.455,95.984c3.035,0,5.576.588,6.281,2.407a5.858,5.858,0,0,0-6.281-5.192,5.731,5.731,0,0,0-6.281,5.192C121.879,96.574,124.42,95.984,127.455,95.984Z" transform="translate(-121.174 -93.17)" fill="#3e3e3f"/>
          </g>
        </g>
        <path id="Pfad_1280" data-name="Pfad 1280" d="M105.111,57.3a5.024,5.024,0,0,0-2.3-.734C79.462,54.445,77.485,85.326,85.817,93.939c3.8-1.148,17.762-12.311,20.664-25.047,7.427,14.7,39.322,26.074,38.782,25.883C168.283,55.082,108.8,40.491,105.111,57.3Z" transform="translate(-4.021 0)" fill="#3e3e3f"/>
        <g id="Gruppe_216" data-name="Gruppe 216" transform="translate(100.912 121.035)">
          <path id="Pfad_1281" data-name="Pfad 1281" d="M104.59,120.009h21.226s0,6.368-10.613,6.368S104.59,120.009,104.59,120.009Z" transform="translate(-104.59 -120.009)" fill="#f79392"/>
        </g>
      </g>
    </g>
  </g>
</svg>
