<svg xmlns="http://www.w3.org/2000/svg" xmlns:xlink="http://www.w3.org/1999/xlink" width="256" height="128" viewBox="0 0 256 128">
  <defs>
    <clipPath id="clip-path">
      <rect id="Bildschirmfoto_2019-06-16_um_17.29.45" data-name="Bildschirmfoto 2019-06-16 um 17.29.45" width="256" height="128" rx="8" transform="translate(1040 4566)" fill="#10182f"/>
    </clipPath>
  </defs>
  <g id="Gruppe_maskieren_48" data-name="Gruppe maskieren 48" transform="translate(-1040 -4566)" clip-path="url(#clip-path)">
    <g id="Paomedia-Small-N-Flat-Bitcoin" transform="translate(1101.217 -1162.815)">
      <path id="Pfad_1131" data-name="Pfad 1131" d="M122.435,61.217A61.217,61.217,0,1,1,61.217,0,61.22,61.22,0,0,1,122.435,61.217Z" transform="translate(5.565 5734.38)" fill="#4cae79"/>
      <path id="Pfad_1132" data-name="Pfad 1132" d="M111.3,55.652A55.652,55.652,0,1,1,55.652,0,55.654,55.654,0,0,1,111.3,55.652Z" transform="translate(11.13 5734.38)" fill="#4cae79"/>
      <path id="Pfad_1133" data-name="Pfad 1133" d="M55.652,5745.51v11.131h-16.7v11.13h5.565v38.956H38.956v11.13h16.7v11.13h5.565v-11.13h11.13v11.13h5.565v-11.13H80.7c10.758,0,19.478-7.791,19.478-16.7,0-7.235-4.341-14.47-11.13-16.7,3.6-3.339,5.565-6.122,5.565-11.13a16.543,16.543,0,0,0-16.7-16.7V5745.51H72.348v11.131H61.217V5745.51Zm0,22.261H77.913a5.4,5.4,0,0,1,5.565,5.565,5.763,5.763,0,0,1-5.565,5.565H55.652Zm0,22.261H77.913c6.15,0,11.13,3.339,11.13,8.348,0,4.453-4.981,8.348-11.13,8.348H55.652Z" fill="#a8e5a3"/>
      <path id="Pfad_1134" data-name="Pfad 1134" d="M66.782,5728.815A61.217,61.217,0,1,0,128,5790.032,61.129,61.129,0,0,0,66.782,5728.815Zm0,11.13A50.087,50.087,0,1,1,16.7,5790.032,49.981,49.981,0,0,1,66.782,5739.945Z" fill="#a8e5a3"/>
      <path id="Pfad_1135" data-name="Pfad 1135" d="M38.956,5762.206v5.565h5.565v-5.565Zm16.7,0v5.565H78.608c2.66.556,4.781,2.226,4.87,5.009.122-1.67,0-4.453,0-5.009a5.4,5.4,0,0,0-5.565-5.565H55.652Zm0,22.261v5.565h24c5.1.556,9.077,3.9,9.394,7.792.156-1.67,0-4.453,0-5.009,0-5.009-4.981-8.348-11.13-8.348H55.652Zm44.177,13.357c-1.5,8.348-9.439,14.469-19.133,14.469H77.913v5.565H80.7c1.347,0,2.733-.556,4-.556,8.876-1.67,15.477-8.348,15.477-16.139A21.912,21.912,0,0,0,99.829,5797.824Zm-60.872,14.469v5.565h16.7v-5.565h-16.7Zm22.261,0v5.565h11.13v-5.565H61.217Zm-5.565,11.13v5.565h5.565v-5.565Zm16.7,0v5.565h5.565v-5.565Z" fill="#39835b"/>
    </g>
  </g>
</svg>
