<svg xmlns="http://www.w3.org/2000/svg" xmlns:xlink="http://www.w3.org/1999/xlink" width="256" height="128" viewBox="0 0 256 128">
  <defs>
    <clipPath id="clip-path">
      <rect id="Bildschirmfoto_2019-06-16_um_17.29.45" data-name="Bildschirmfoto 2019-06-16 um 17.29.45" width="256" height="128" rx="8" transform="translate(624 5814)" fill="#10182f"/>
    </clipPath>
  </defs>
  <g id="Gruppe_maskieren_38" data-name="Gruppe maskieren 38" transform="translate(-624 -5814)" clip-path="url(#clip-path)">
    <g id="Paomedia-Small-N-Flat-Trashcan-full" transform="translate(685.217 85.165)">
      <path id="Pfad_1060" data-name="Pfad 1060" d="M16.7,5745.531v94.608a11.147,11.147,0,0,0,11.13,11.131h77.913a11.146,11.146,0,0,0,11.13-11.131v-94.608a11.145,11.145,0,0,1-11.13,11.13H27.826A11.147,11.147,0,0,1,16.7,5745.531Z" fill="#bdc3c7"/>
      <path id="Pfad_1061" data-name="Pfad 1061" d="M16.7,5751.1v26.156a9.769,9.769,0,0,0,5.565,1.67H111.3a9.768,9.768,0,0,0,5.565-1.67V5751.1a11.146,11.146,0,0,1-11.13,11.131H27.826A11.147,11.147,0,0,1,16.7,5751.1Z" fill="#95a5a6"/>
      <path id="Pfad_1062" data-name="Pfad 1062" d="M66.783,5773.357H60.349l-10.784,18.365,9.738,5.565,7.48-12.8,5.565,9.46-4.87,2.783,15.3,4.452,4-15.583-4.87,2.783-8.7-15.026H66.783Zm-14.261,27.826-15.3,4.453,4.87,2.783-8.869,15.026,6.435,11.13H61.217v-11.13H46.087l5.565-9.461,4.868,2.783Zm38.609,3.339-9.567,5.565,7.48,13.357H77.913v-5.565l-11.13,11.13,11.13,11.13v-5.565H95.655l6.255-11.13Z" fill="#4cae79"/>
      <path id="Pfad_1063" data-name="Pfad 1063" d="M16.7,5840.139v5.565a11.147,11.147,0,0,0,11.13,11.13h77.913a11.145,11.145,0,0,0,11.13-11.13v-5.565a11.146,11.146,0,0,1-11.13,11.131H27.826A11.147,11.147,0,0,1,16.7,5840.139Z" fill="#95a5a6"/>
      <path id="Pfad_1064" data-name="Pfad 1064" d="M22.261,5728.835a11.147,11.147,0,0,0-11.13,11.13v22.261a11.147,11.147,0,0,0,11.13,11.13H111.3a11.145,11.145,0,0,0,11.13-11.13v-22.261a11.145,11.145,0,0,0-11.13-11.13H22.261Z" fill="#bdc3c7"/>
      <path id="Pfad_1065" data-name="Pfad 1065" d="M27.826,5734.4a5.4,5.4,0,0,0-5.565,5.565v16.7a5.761,5.761,0,0,0,5.565,5.565h77.913a5.763,5.763,0,0,0,5.565-5.565v-16.7a5.4,5.4,0,0,0-5.565-5.565Z" fill="#7f8c8d"/>
      <path id="Pfad_1066" data-name="Pfad 1066" d="M66.783,5773.357H60.349l-3.133,5.565H76.349l-3.133-5.565H66.783Z" fill="#7f8c8d"/>
      <path id="Pfad_1067" data-name="Pfad 1067" d="M58.09,8l-4.351,3.13L51.652,12.7,50.087,11.13,44.522,16.7H38.957L33.391,11.13l-11.13,11.13v11.13a5.565,5.565,0,0,0,5.565,5.565h77.913a5.566,5.566,0,0,0,5.565-5.565l-5.565-5.565V22.261h-5.565L94.609,16.7H83.478V13.913H77.913L76.177,11.13,74.607,8.87,72.348,11.13,66.783,16.7,61.217,11.13Z" transform="translate(0 5723.27)" fill="#ecf0f1"/>
    </g>
  </g>
</svg>
