<svg xmlns="http://www.w3.org/2000/svg" xmlns:xlink="http://www.w3.org/1999/xlink" width="96" height="96" viewBox="0 0 96 96">
  <defs>
    <clipPath id="clip-path">
      <rect id="Bildschirmfoto_2019-06-16_um_17.29.45" data-name="Bildschirmfoto 2019-06-16 um 17.29.45" width="96" height="96" rx="8" transform="translate(1188 17603)" fill="rgba(255,255,255,0.1)"/>
    </clipPath>
  </defs>
  <g id="Gruppe_maskieren_41" data-name="Gruppe maskieren 41" transform="translate(-1188 -17603)" clip-path="url(#clip-path)">
    <g id="girls" transform="translate(1193.333 17603)">
      <g id="Desktop-HD" transform="translate(-1096 -2464)">
        <g id="Page-1" transform="translate(1096 2464)">
          <path id="Fill-1" d="M42.667,0A42.934,42.934,0,0,0,0,42.947V84.211a6.735,6.735,0,0,0,6.693,6.737H18.032C24.993,94.351,33.487,96,42.667,96S60.341,94.351,67.3,90.947H78.641a6.735,6.735,0,0,0,6.693-6.737V42.947A42.934,42.934,0,0,0,42.667,0" fill="#6e5847" fill-rule="evenodd"/>
          <path id="Fill-3" d="M80.314,50.526c-18.571,0-34.306-13.4-39.767-31.946A42.825,42.825,0,0,0,0,61.474C0,85.192,19.1,96,42.667,96S85.333,85.192,85.333,61.474a43.238,43.238,0,0,0-1.454-11.126c-1.176.109-2.364.179-3.566.179" fill="#fdc794" fill-rule="evenodd"/>
          <path id="Stroke-5" d="M46.85,58.386l7.111,4.771L46.85,67.93,53.961,72.7,46.85,77.473" fill="none" stroke="#f9a671" stroke-linecap="round" stroke-linejoin="round" stroke-width="5.333" fill-rule="evenodd"/>
          <path id="Fill-7" d="M67.84,70.849a4.748,4.748,0,0,1,4.352-2.867,4.952,4.952,0,0,1,4.747,4.778,4.647,4.647,0,0,1-.154,1.805,7.959,7.959,0,0,1-2.5,4.059L67.84,84.211l-6.333-5.587A7.959,7.959,0,0,1,59,74.566a4.646,4.646,0,0,1-.154-1.805A4.952,4.952,0,0,1,63.6,67.982a4.6,4.6,0,0,1,4.243,2.867" fill="#e64c3c" fill-rule="evenodd"/>
          <path id="Stroke-9" d="M33.464,48.842a9.987,9.987,0,0,0-14.2,0" fill="none" stroke="#f9a671" stroke-linecap="round" stroke-linejoin="round" stroke-width="5.333" fill-rule="evenodd"/>
        </g>
      </g>
    </g>
  </g>
</svg>
