<svg xmlns="http://www.w3.org/2000/svg" xmlns:xlink="http://www.w3.org/1999/xlink" width="256" height="128" viewBox="0 0 256 128">
  <defs>
    <clipPath id="clip-path">
      <rect id="Bildschirmfoto_2019-06-16_um_17.29.45" data-name="Bildschirmfoto 2019-06-16 um 17.29.45" width="256" height="128" rx="8" transform="translate(624 4498)" fill="#10182f"/>
    </clipPath>
  </defs>
  <g id="Gruppe_maskieren_1" data-name="Gruppe maskieren 1" transform="translate(-624 -4498)" clip-path="url(#clip-path)">
    <g id="icon_delivery" transform="translate(701.782 4498.1)">
      <path id="Pfad_261" data-name="Pfad 261" d="M12.4,44.2c-1.927-3.131-5.3-6.142-9.273-6.022" fill="none" stroke="#436b1c" stroke-linecap="round" stroke-miterlimit="10" stroke-width="2.409"/>
      <g id="Gruppe_108" data-name="Gruppe 108">
        <path id="Pfad_262" data-name="Pfad 262" d="M60.337,15.415a8.815,8.815,0,0,0-8.792-8.189h0A4.483,4.483,0,0,0,51.3,5.058a5.862,5.862,0,0,0-4.7-4.095,5.914,5.914,0,0,0-4.7,1.566A6.347,6.347,0,0,0,37.7.843a6.22,6.22,0,0,0-6.263,6.263h0a8.125,8.125,0,0,0-7.467,8.069,10.541,10.541,0,0,0,.241,1.927A9.414,9.414,0,0,0,15.175,26.5a8.9,8.9,0,0,0,1.325,4.7,6.626,6.626,0,0,0-2.529,5.3,6.727,6.727,0,0,0,2.168,4.938C21.8,36.853,27.7,52.268,34.685,64.552c2.288,4.095,27.338-.241,29.386,2.288,2.288-2.047,3.733-37.7,3.854-40.827A11.419,11.419,0,0,0,60.337,15.415Z" fill="#98c86a"/>
      </g>
      <path id="Pfad_263" data-name="Pfad 263" d="M10,39.743" fill="none" stroke="#000" stroke-linecap="round" stroke-miterlimit="10" stroke-width="2.409"/>
      <path id="Pfad_264" data-name="Pfad 264" d="M63.468,62.023l1.686-.963a9.9,9.9,0,0,1,10,0l1.686.963a9.9,9.9,0,0,0,10,0l4.7-2.047A35.855,35.855,0,0,0,92.854,56a159.525,159.525,0,0,0,7.587-43.958c.12-6.022-4.817-15.3-13.007-11.08-8.069,4.215-13.85,20.112-17.945,27.7A164.115,164.115,0,0,0,55.881,63.107,9.256,9.256,0,0,0,63.468,62.023Z" fill="#eeaf4b"/>
      <path id="Pfad_265" data-name="Pfad 265" d="M2.65,59.735l3.131,1.927a11.523,11.523,0,0,0,11.8,0l.843-.482a9.9,9.9,0,0,1,10,0l1.686.963a9.315,9.315,0,0,0,5.9,1.325c1.445-4.817.963-10.839-1.325-14.934C26.857,34.805,20.353,37.575,14.091,43.6a9.89,9.89,0,0,1-4.215,2.409C3.011,47.932-2.047,51.184.843,59.855A1.309,1.309,0,0,1,2.65,59.735Z" fill="#ed3f32"/>
      <path id="Pfad_266" data-name="Pfad 266" d="M85.869,46.608A6.569,6.569,0,0,1,77.679,50.7,6.373,6.373,0,0,0,69.49,54.8" fill="none" stroke="#a46f3e" stroke-linecap="round" stroke-miterlimit="10" stroke-width="2.409"/>
      <path id="Pfad_267" data-name="Pfad 267" d="M91.409,30.229a6.569,6.569,0,0,1-8.189,4.095,6.373,6.373,0,0,0-8.189,4.095" fill="none" stroke="#a46f3e" stroke-linecap="round" stroke-miterlimit="10" stroke-width="2.409"/>
      <path id="Pfad_268" data-name="Pfad 268" d="M94.179,15.3a5.429,5.429,0,0,1-6.865,3.372,5.479,5.479,0,0,0-6.865,3.372" fill="none" stroke="#a46f3e" stroke-linecap="round" stroke-miterlimit="10" stroke-width="2.409"/>
      <g id="Gruppe_109" data-name="Gruppe 109">
        <path id="Pfad_269" data-name="Pfad 269" d="M40.827,33c-2.168,2.89-5.66,6.263-4.336,12.4L40.1,61.782h0l1.686-.843a9.62,9.62,0,0,1,10,.12l1.686,1.084a8.268,8.268,0,0,0,2.65,1.084,169.6,169.6,0,0,1,9.514-26.134c-1.806-4.576-5.66-6.022-8.43-7.587h0a3.2,3.2,0,0,1-.6-4.938,3.018,3.018,0,0,0,.6-2.288l-.241-1.325a2.7,2.7,0,0,0-3.131-2.047L39.623,22.039a2.7,2.7,0,0,0-2.047,3.131l.241,1.325A2.4,2.4,0,0,0,39.382,28.3a3.282,3.282,0,0,1,1.927,4.336C41.068,32.637,40.947,32.878,40.827,33Z" fill="#dae7ef"/>
      </g>
      <path id="Pfad_270" data-name="Pfad 270" d="M57.326,25.171,38.057,29.386a1.675,1.675,0,0,1-2.047-1.325l-.963-4.215A1.675,1.675,0,0,1,36.371,21.8L55.64,17.583a1.675,1.675,0,0,1,2.047,1.325l.963,4.215A1.675,1.675,0,0,1,57.326,25.171Z" fill="#fff"/>
      <path id="Pfad_271" data-name="Pfad 271" d="M95.744,59.253l-4.095,58.41A10.78,10.78,0,0,1,80.69,127.9H14.934A10.785,10.785,0,0,1,3.974,117.663L0,61.18a1.618,1.618,0,0,1,2.529-1.445L5.66,61.662a11.523,11.523,0,0,0,11.8,0l.843-.482a9.9,9.9,0,0,1,10,0l1.686.963a9.9,9.9,0,0,0,10,0l1.686-.963a9.9,9.9,0,0,1,10,0l1.686.963a9.9,9.9,0,0,0,10,0l1.686-.963a9.9,9.9,0,0,1,10,0l1.686.963a9.9,9.9,0,0,0,10,0l7.949-3.493A.71.71,0,0,1,95.744,59.253Z" fill="#fbd490"/>
      <line id="Linie_3" data-name="Linie 3" x2="15.656" transform="translate(12.164 95.504)" fill="none" stroke="#e0b877" stroke-linecap="round" stroke-miterlimit="10" stroke-width="2.409"/>
      <line id="Linie_4" data-name="Linie 4" x2="20.474" transform="translate(12.164 105.138)" fill="none" stroke="#e0b877" stroke-linecap="round" stroke-miterlimit="10" stroke-width="2.409"/>
      <line id="Linie_5" data-name="Linie 5" x2="25.291" transform="translate(12.164 114.773)" fill="none" stroke="#e0b877" stroke-linecap="round" stroke-miterlimit="10" stroke-width="2.409"/>
      <line id="Linie_6" data-name="Linie 6" x2="4.817" transform="translate(47.089 114.773)" fill="none" stroke="#e0b877" stroke-linecap="round" stroke-miterlimit="10" stroke-width="2.409"/>
    </g>
  </g>
</svg>
