<svg xmlns="http://www.w3.org/2000/svg" xmlns:xlink="http://www.w3.org/1999/xlink" width="96" height="96" viewBox="0 0 96 96">
  <defs>
    <clipPath id="clip-path">
      <rect id="Bildschirmfoto_2019-06-16_um_17.29.45" data-name="Bildschirmfoto 2019-06-16 um 17.29.45" width="96" height="96" rx="8" transform="translate(592 10352)" fill="#10182f"/>
    </clipPath>
  </defs>
  <g id="Gruppe_maskieren_58" data-name="Gruppe maskieren 58" transform="translate(-592 -10352)" clip-path="url(#clip-path)">
    <g id="Thesquid.ink-Free-Flat-Sample-Bell" transform="translate(607 10352)">
      <g id="Ball_2_">
        <g id="Gruppe_179" data-name="Gruppe 179">
          <circle id="Ellipse_1728" data-name="Ellipse 1728" cx="9" cy="9" r="9" transform="translate(24 78)" fill="#cca352"/>
        </g>
      </g>
      <g id="Bell">
        <g id="Gruppe_180" data-name="Gruppe 180">
          <path id="Pfad_1216" data-name="Pfad 1216" d="M60,69a2.99,2.99,0,0,1-3-3c0-27-15-36-21-36,0-7.922,6-21,6-21A9,9,0,0,0,24,9s6,13.078,6,21C24,30,9,39,9,66a2.99,2.99,0,0,1-3,3,6,6,0,0,0-6,6v6a6,6,0,0,0,6,6H60a6,6,0,0,0,6-6V75A6,6,0,0,0,60,69Z" fill="#fc6" fill-rule="evenodd"/>
        </g>
      </g>
      <g id="Bow">
        <g id="Gruppe_181" data-name="Gruppe 181">
          <path id="Pfad_1217" data-name="Pfad 1217" d="M6,18V36c0,5.813,3,6,6,6,6,0,18-12,18-12V24S18,12,12,12C9,12,6,12,6,18Zm48-6c-6,0-18,12-18,12v6S48,42,54,42c3,0,6-.187,6-6V18C60,12,57,12,54,12Z" fill="#ed7161" fill-rule="evenodd"/>
        </g>
      </g>
      <g id="Knot">
        <g id="Gruppe_182" data-name="Gruppe 182">
          <path id="Pfad_1218" data-name="Pfad 1218" d="M36,21H30a3,3,0,0,0-3,3v6a3,3,0,0,0,3,3h6a3,3,0,0,0,3-3V24A3,3,0,0,0,36,21Z" fill="#ba594c"/>
        </g>
      </g>
    </g>
  </g>
</svg>
