<svg xmlns="http://www.w3.org/2000/svg" xmlns:xlink="http://www.w3.org/1999/xlink" width="256" height="128" viewBox="0 0 256 128">
  <defs>
    <clipPath id="clip-path">
      <path id="Bildschirmfoto_2019-06-16_um_17.36.30" data-name="Bildschirmfoto 2019-06-16 um 17.36.30" d="M8,0H248a8,8,0,0,1,8,8V120a8,8,0,0,1-8,8H8a8,8,0,0,1-8-8V8A8,8,0,0,1,8,0Z" transform="translate(832 3469)" fill="#10182f"/>
    </clipPath>
  </defs>
  <g id="Gruppe_maskieren_63" data-name="Gruppe maskieren 63" transform="translate(-832 -3469)" clip-path="url(#clip-path)">
    <g id="Paomedia-Small-N-Flat-Cogs" transform="translate(875.894 -3472.687)">
      <path id="Pfad_1262" data-name="Pfad 1262" d="M107.79,6941.687v6.737a18.47,18.47,0,0,0-5.895,2.695l-5.053-5.39L92,6950.444l5.053,5.39c-1.132,1.347-1.886,4.042-2.317,6.063H87.58v6.737h7.155a12.76,12.76,0,0,0,2.317,5.39L92,6979.414l4.844,4.716,5.053-4.716c1.738.674,3.793,1.347,5.895,2.021v7.411h6.737v-7.411c2.1-.673,4.157-1.347,5.895-2.021l5.053,4.716,4.844-4.716-5.053-5.39a12.757,12.757,0,0,0,2.317-5.39h7.155V6961.9h-7.155c-.431-2.021-1.186-4.715-2.317-6.063l5.053-5.39-4.844-4.715-5.053,5.39a18.491,18.491,0,0,0-5.895-2.695v-6.737Zm3.368,13.474a9.812,9.812,0,0,1,10.105,10.105,10.105,10.105,0,1,1-20.211,0A9.812,9.812,0,0,1,111.159,6955.161Z" fill="#7f8c8d"/>
      <path id="Pfad_1263" data-name="Pfad 1263" d="M128,6974.7v7.411a14.355,14.355,0,0,0-5.262,1.347l-3.577-6.063-5.9,3.368,3.584,6.063a45.968,45.968,0,0,0-4,4.042l-6.1-4.042-3.368,6.063,6.1,3.369a51.781,51.781,0,0,0-1.475,5.39h-6.946v6.737H108a18.765,18.765,0,0,0,1.475,5.39l-6.1,3.369,3.368,6.063,6.1-3.369a45.97,45.97,0,0,0,4,4.042l-3.584,6.063,5.9,3.369,3.577-6.063a14.365,14.365,0,0,0,5.262,1.347v6.737h6.737v-6.737a14.365,14.365,0,0,0,5.262-1.347l3.577,6.063,5.9-3.369-3.584-6.063a45.97,45.97,0,0,0,4-4.042l6.1,3.369,3.368-6.063-6.1-3.369a18.756,18.756,0,0,0,1.475-5.39h6.946v-6.737H154.74a51.814,51.814,0,0,0-1.475-5.39l6.1-3.369L156,6986.824l-6.1,4.042a45.972,45.972,0,0,0-4-4.042l3.584-6.063-5.9-3.368L140,6983.456a14.355,14.355,0,0,0-5.262-1.347V6974.7Zm3.368,13.474a17.2,17.2,0,0,1,16.842,16.842,16.842,16.842,0,0,1-33.684,0A17.2,17.2,0,0,1,131.369,6988.172Z" fill="#95a5a6"/>
      <path id="Pfad_1264" data-name="Pfad 1264" d="M67.369,6961.224l-13.684.673v14.147a26.379,26.379,0,0,0-7.159,1.347l-7.157-12.127L27.79,6972l6.947,12.127a71.836,71.836,0,0,0-5.263,5.39l-12.211-6.737-6.737,11.453,12.211,7.41a30.85,30.85,0,0,0-2.105,7.411H6.526v13.474H20.842a43.583,43.583,0,0,0,1.894,7.411l-12.211,6.737,6.737,11.452,12.211-6.737c1.6,2.021,3.374,3.369,5.263,5.39l-7.157,12.127,11.79,6.737,6.947-12.126c2.425.673,5.026,1.347,7.579,2.021v14.147H67.369V7055.54c2.425-.673,4.8-1.347,7.155-2.021l7.161,12.126,11.581-6.737-6.952-12.127a71.368,71.368,0,0,0,5.268-5.39l12.207,6.737,6.952-11.452-12.423-6.737a71.3,71.3,0,0,0,2.1-7.411h14.107v-14.147H100.211a37.1,37.1,0,0,0-1.893-6.737l12.207-7.41-6.737-11.453-12.207,6.737c-1.6-1.347-3.375-3.368-5.268-4.715l7.161-12.8-11.79-6.737-6.946,12.127a28.929,28.929,0,0,0-7.58-1.347l.21-14.821Zm-6.737,34.358a20.027,20.027,0,0,1,20.211,20.211,20.211,20.211,0,0,1-40.421,0A20.027,20.027,0,0,1,60.632,6995.582Z" fill="#bdc3c7"/>
    </g>
  </g>
</svg>
