<svg xmlns="http://www.w3.org/2000/svg" xmlns:xlink="http://www.w3.org/1999/xlink" width="256" height="128" viewBox="0 0 256 128">
  <defs>
    <clipPath id="clip-path">
      <rect id="Bildschirmfoto_2019-06-16_um_17.29.45" data-name="Bildschirmfoto 2019-06-16 um 17.29.45" width="256" height="128" rx="8" transform="translate(624 2984)" fill="#10182f"/>
    </clipPath>
  </defs>
  <g id="Gruppe_maskieren_4" data-name="Gruppe maskieren 4" transform="translate(-624 -2984)" clip-path="url(#clip-path)">
    <g id="faq_3" transform="translate(703.448 2984)">
      <path id="Pfad_785" data-name="Pfad 785" d="M81.655,35.09v77.9a8.617,8.617,0,0,1-8.607,8.607H8.607A8.808,8.808,0,0,1,0,112.772v-77.9a8.433,8.433,0,0,1,8.607-8.386H73.269A8.433,8.433,0,0,1,81.655,35.09Z" fill="#4cae79"/>
      <rect id="Rechteck_708" data-name="Rechteck 708" width="20.082" height="13.462" transform="translate(52.183 88.234) rotate(22.88)" fill="#fff"/>
      <line id="Linie_8" data-name="Linie 8" x2="55.172" transform="translate(13.241 39.724)" fill="none" stroke="#ecf0f1" stroke-linecap="round" stroke-miterlimit="10" stroke-width="4.414"/>
      <ellipse id="Ellipse_1690" data-name="Ellipse 1690" cx="4.414" cy="6.621" rx="4.414" ry="6.621" transform="translate(57.379 39.724)" fill="none" stroke="#ecf0f1" stroke-linecap="round" stroke-miterlimit="10" stroke-width="4.414"/>
      <path id="Pfad_786" data-name="Pfad 786" d="M22.731,128H10.372a3.867,3.867,0,0,1-3.752-3.752v-2.869H26.483v2.869A3.867,3.867,0,0,1,22.731,128Z" fill="#bdc3c7"/>
      <path id="Pfad_787" data-name="Pfad 787" d="M71.283,128H58.924a3.867,3.867,0,0,1-3.752-3.752v-2.869H75.034v2.869A3.867,3.867,0,0,1,71.283,128Z" fill="#bdc3c7"/>
      <path id="Pfad_788" data-name="Pfad 788" d="M86.069,61.793H81.655v4.414h4.414a6.621,6.621,0,0,1,0,13.241H81.655v4.414h4.414a11.034,11.034,0,1,0,0-22.069Z" fill="#546a79"/>
      <path id="Pfad_789" data-name="Pfad 789" d="M55.172,8.828H28.69a4.427,4.427,0,0,1-4.414-4.414h0A4.427,4.427,0,0,1,28.69,0H55.172a4.427,4.427,0,0,1,4.414,4.414h0A4.427,4.427,0,0,1,55.172,8.828Z" fill="#556080"/>
      <g id="Gruppe_119" data-name="Gruppe 119">
        <rect id="Rechteck_709" data-name="Rechteck 709" width="4.414" height="17.655" transform="translate(30.897 8.828)" fill="#38454f"/>
        <rect id="Rechteck_710" data-name="Rechteck 710" width="4.414" height="17.655" transform="translate(48.552 8.828)" fill="#38454f"/>
      </g>
    </g>
  </g>
</svg>
