<svg xmlns="http://www.w3.org/2000/svg" xmlns:xlink="http://www.w3.org/1999/xlink" width="96" height="96" viewBox="0 0 96 96">
  <defs>
    <clipPath id="clip-path">
      <rect id="Bildschirmfoto_2019-06-16_um_17.29.45" data-name="Bildschirmfoto 2019-06-16 um 17.29.45" width="96" height="96" rx="8" transform="translate(637 17603)" fill="rgba(255,255,255,0.1)"/>
    </clipPath>
  </defs>
  <g id="Gruppe_maskieren_68" data-name="Gruppe maskieren 68" transform="translate(-637 -17603)" clip-path="url(#clip-path)">
    <g id="Webalys-Kameleon.pics-Man-16-2" transform="translate(552.998 17535.805)">
      <g id="Gruppe_341" data-name="Gruppe 341">
        <path id="Vereinigungsmenge_24" data-name="Vereinigungsmenge 24" d="M-5308.855-42105.551h-6.374a7.149,7.149,0,0,1-5.369-2.414l-12.252-9.582-7.7-19.246c-6.8-.5-9.1-10.8-9.1-18.621a5.48,5.48,0,0,1,4.8-5.328c2.366,0,2.4,2.586,2.4,2.664v-2.664c.043-21.6,2.458-36,33.6-36v.086c31.145,0,33.559,14.4,33.6,36v2.668s0-2.668,2.4-2.668a5.473,5.473,0,0,1,4.8,5.324c0,7.828-2.308,18.176-9.139,18.629l-7.668,19.156-12.252,9.582a7.163,7.163,0,0,1-5.369,2.41Z" transform="translate(5440.857 42268.742)" fill="#fdd"/>
        <path id="Pfad_1329" data-name="Pfad 1329" d="M-5311.409-42100.75h-6.375a7.169,7.169,0,0,1-5.369-2.4l-12.252-9.6-7.169-17.906-6.948-41.914a21.662,21.662,0,0,1-.134-2.309,21.746,21.746,0,0,1,5.546-14.613,21.8,21.8,0,0,1,16.224-7.258h57.281a39.029,39.029,0,0,1-6.566,20.148,5.388,5.388,0,0,1,1.386,1.211,5.617,5.617,0,0,1,1.028,4.828l-5.5,39.906-7.159,17.906-12.252,9.6a7.169,7.169,0,0,1-5.369,2.4Zm0-31.039h6.809a7.182,7.182,0,0,1,6.83,4.926l3.156,9.477h2.4l7.2-14.4v-.074l4.8-24v-17.074c-5.316,5.508-13.555,9.789-26.4,9.789-1.68,0-3.273-.043-4.8-.109-30.689-1.2-31.2-13.887-31.2-14.285h0v21.688l4.8,24v.074l7.2,14.4h2.4l3.166-9.48a7.2,7.2,0,0,1,6.831-4.922Z" transform="translate(5443.409 42263.945)" fill="#f99134"/>
        <g id="Gruppe_336" data-name="Gruppe 336">
          <path id="Pfad_1325" data-name="Pfad 1325" d="M122.4,139.2h19.2s0,7.2-9.6,7.2S122.4,139.2,122.4,139.2Z" fill="#fbd7d7"/>
        </g>
        <path id="Pfad_1326" data-name="Pfad 1326" d="M147.6,102.3a24.72,24.72,0,0,0-11.7,3.9h-7.8a24.72,24.72,0,0,0-11.7-3.9,30,30,0,0,0-15.6,3.9v1.951h1.949c0,11.7,3.9,17.549,14.057,17.549s12.269-9.749,12.269-12.454S132,110.1,132,110.1s2.926.442,2.926,3.146,2.112,12.454,12.269,12.454,14.057-5.849,14.057-17.549H163.2V106.2a30.012,30.012,0,0,0-15.6-3.9Z" fill="#3e3e3f"/>
        <g id="Gruppe_338" data-name="Gruppe 338">
          <g id="Gruppe_337" data-name="Gruppe 337">
            <path id="Pfad_1327" data-name="Pfad 1327" d="M116.4,106.2c-5.386,0-9.749,2.414-9.749,7.8a9.689,9.689,0,0,0,1.92,5.806l12.773-12.766a13.714,13.714,0,0,0-4.944-.84Z" fill="#9e9fa0"/>
          </g>
        </g>
        <g id="Gruppe_340" data-name="Gruppe 340">
          <g id="Gruppe_339" data-name="Gruppe 339">
            <path id="Pfad_1328" data-name="Pfad 1328" d="M147.79,106.2c-5.386,0-9.749,2.414-9.749,7.8a9.689,9.689,0,0,0,1.92,5.806l12.773-12.766a13.724,13.724,0,0,0-4.944-.84Z" fill="#9e9fa0"/>
          </g>
        </g>
      </g>
    </g>
  </g>
</svg>
