<svg xmlns="http://www.w3.org/2000/svg" xmlns:xlink="http://www.w3.org/1999/xlink" width="96" height="96" viewBox="0 0 96 96">
  <defs>
    <clipPath id="clip-path">
      <rect id="Bildschirmfoto_2019-06-16_um_17.29.45" data-name="Bildschirmfoto 2019-06-16 um 17.29.45" width="96" height="96" rx="8" transform="translate(608 14197)" fill="#10182f"/>
    </clipPath>
  </defs>
  <g id="Gruppe_maskieren_26" data-name="Gruppe maskieren 26" transform="translate(-608 -14197)" clip-path="url(#clip-path)">
    <g id="icon_codingfinale" transform="translate(617.263 14197)">
      <path id="Pfad_1000" data-name="Pfad 1000" d="M42.105,8.421H35.368a1.591,1.591,0,0,0-1.684,1.684,1.591,1.591,0,0,0,1.684,1.684h1.684v6.737h3.368V11.789h1.684a1.591,1.591,0,0,0,1.684-1.684A1.591,1.591,0,0,0,42.105,8.421Z" fill="#f3d55b"/>
      <path id="Pfad_1001" data-name="Pfad 1001" d="M38.737,20.211A10.105,10.105,0,1,1,48.842,10.105,10.135,10.135,0,0,1,38.737,20.211Zm0-16.842a6.737,6.737,0,1,0,6.737,6.737A6.757,6.757,0,0,0,38.737,3.368Z" fill="#d1d4d1"/>
      <circle id="Ellipse_1712" data-name="Ellipse 1712" cx="38.737" cy="38.737" r="38.737" transform="translate(0 18.526)" fill="#ecf0f1"/>
      <path id="Pfad_1002" data-name="Pfad 1002" d="M40.421,90.947a1.662,1.662,0,0,1-1.684-1.516,2.434,2.434,0,0,1,.337-1.179,1.75,1.75,0,0,1,1.347-.674,20.635,20.635,0,0,0,3.2-.337,1.578,1.578,0,0,1,1.853,1.347v.337a1.813,1.813,0,0,1-1.347,1.684,30.248,30.248,0,0,0-3.705.337Zm-6.568-.337h-.168a19.868,19.868,0,0,1-3.368-.674c-.505-.168-.842-.337-1.011-.842a1.789,1.789,0,0,1-.168-1.347,1.6,1.6,0,0,1,2.021-1.179,19.584,19.584,0,0,0,3.032.674,1.64,1.64,0,0,1,1.347,1.684v.337A1.813,1.813,0,0,1,33.853,90.611Zm16.337-1.853a1.706,1.706,0,0,1-1.516-1.011,1.845,1.845,0,0,1,0-1.347,2.03,2.03,0,0,1,.842-.842,14.93,14.93,0,0,0,2.863-1.347,2.083,2.083,0,0,1,2.358.674,1.262,1.262,0,0,1,.168.842,1.532,1.532,0,0,1-.674,1.347h0l-.337.168a18.252,18.252,0,0,1-3.2,1.347C50.695,88.758,50.526,88.758,50.189,88.758ZM24.253,87.579a1.831,1.831,0,0,1-.842-.168c-1.011-.505-2.021-1.179-3.032-1.684a1.385,1.385,0,0,1-.674-1.011,1.9,1.9,0,0,1,.168-1.347,1.813,1.813,0,0,1,2.358-.505,21.726,21.726,0,0,0,2.695,1.516,1.936,1.936,0,0,1,1.011,1.516,1.518,1.518,0,0,1-.168.842A2.268,2.268,0,0,1,24.253,87.579Zm34.695-3.874a1.532,1.532,0,0,1-1.347-.674c-.337-.168-.337-.674-.337-1.179a1.271,1.271,0,0,1,.674-1.179c.842-.674,1.516-1.347,2.358-2.021h0a1.628,1.628,0,0,1,2.358,0,1.628,1.628,0,0,1,0,2.358h0c-.842.842-1.684,1.516-2.526,2.358A1.816,1.816,0,0,1,58.947,83.705ZM16.168,81.684a1.529,1.529,0,0,1-1.179-.505h0c-.842-.842-1.516-1.684-2.358-2.526a1.6,1.6,0,0,1-.337-1.179,1.7,1.7,0,0,1,.674-1.179,1.338,1.338,0,0,1,2.189,0,14.544,14.544,0,0,0,2.189,2.358h0a1.628,1.628,0,0,1,0,2.358A1.271,1.271,0,0,1,16.168,81.684Zm49.516-5.389c-.337,0-.674,0-.842-.337a1.656,1.656,0,0,1-.505-2.358,21.727,21.727,0,0,0,1.516-2.695,1.521,1.521,0,0,1,2.189-.674,1.769,1.769,0,0,1,.842,1.516,1.518,1.518,0,0,1-.168.842c-.505,1.011-1.179,2.021-1.684,3.032A2.079,2.079,0,0,1,65.684,76.295ZM10.274,73.432a1.769,1.769,0,0,1-1.516-.842c-.505-1.011-1.011-2.189-1.516-3.2a1.845,1.845,0,0,1,0-1.347A1.725,1.725,0,0,1,8.253,67.2a1.752,1.752,0,0,1,2.189,1.011,14.93,14.93,0,0,0,1.347,2.863,1.262,1.262,0,0,1,.168.842,1.769,1.769,0,0,1-.842,1.516ZM69.726,67.2h-.505a1.732,1.732,0,0,1-1.179-2.021,19.583,19.583,0,0,0,.674-3.032A1.669,1.669,0,0,1,70.568,60.8a1.507,1.507,0,0,1,1.347,1.684v.337a19.867,19.867,0,0,1-.674,3.368A1.706,1.706,0,0,1,69.726,67.2ZM7.074,64a1.813,1.813,0,0,1-1.684-1.347c-.168-1.347-.168-2.526-.337-3.705a2.434,2.434,0,0,1,.337-1.179,2.24,2.24,0,0,1,1.347-.505,1.688,1.688,0,0,1,1.684,1.684,23.014,23.014,0,0,0,.337,3.2v.337a1.813,1.813,0,0,1-1.347,1.684C7.242,64,7.242,64,7.074,64Zm63.663-6.737a1.688,1.688,0,0,1-1.684-1.684,23.013,23.013,0,0,0-.337-3.2v-.168a1.813,1.813,0,0,1,1.347-1.684,1.578,1.578,0,0,1,1.853,1.347,25.127,25.127,0,0,1,.337,3.537,1.591,1.591,0,0,1-1.516,1.853ZM7.074,53.895H6.737a1.64,1.64,0,0,1-1.347-1.684v-.337a19.868,19.868,0,0,1,.674-3.368,1.6,1.6,0,0,1,2.021-1.179c.505.168.842.337,1.011.842a1.79,1.79,0,0,1,.168,1.347,19.583,19.583,0,0,0-.674,3.032A1.376,1.376,0,0,1,7.074,53.895Zm61.474-6.4h0a1.706,1.706,0,0,1-1.516-1.011,18.713,18.713,0,0,0-1.179-2.695l-.168-.337a1.262,1.262,0,0,1-.168-.842,1.618,1.618,0,0,1,1.011-1.516,1.774,1.774,0,0,1,2.189.674c.505,1.011,1.011,2.189,1.516,3.2a1.752,1.752,0,0,1-1.011,2.189A1.277,1.277,0,0,1,68.547,47.495ZM10.274,44.463a1.518,1.518,0,0,1-.842-.168,1.769,1.769,0,0,1-.842-1.516,1.518,1.518,0,0,1,.168-.842c.505-1.011,1.179-2.021,1.684-3.032A1.656,1.656,0,0,1,12.8,38.4a1.7,1.7,0,0,1,.674,1.179,1.9,1.9,0,0,1-.168,1.347,10.891,10.891,0,0,0-1.516,2.695h0A2.01,2.01,0,0,1,10.274,44.463Zm53.389-5.726a1.532,1.532,0,0,1-1.347-.674c-.674-.842-1.347-1.516-2.021-2.358l-.168-.168h0a2.394,2.394,0,0,1-.337-1.011,1.529,1.529,0,0,1,.505-1.179,1.628,1.628,0,0,1,2.358,0h0c.842.842,1.516,1.684,2.358,2.526a1.6,1.6,0,0,1,.337,1.179,1.271,1.271,0,0,1-.674,1.179A1.456,1.456,0,0,1,63.663,38.737ZM16,36.379a1.667,1.667,0,0,1-1.179-2.863h0c.842-.842,1.684-1.516,2.526-2.358a1.79,1.79,0,0,1,2.358.168,1.647,1.647,0,0,1-.337,2.358c-.842.674-1.516,1.347-2.358,2.021h0C17.011,36.211,16.505,36.379,16,36.379ZM56.084,32a1.286,1.286,0,0,1-.842-.337c-.842-.505-1.684-1.011-2.695-1.516h-.168a1.936,1.936,0,0,1-1.011-1.516,1.518,1.518,0,0,1,.168-.842,1.665,1.665,0,0,1,2.358-.674c1.011.505,2.021,1.179,3.032,1.684a1.385,1.385,0,0,1,.674,1.011,3.708,3.708,0,0,1-.168,1.347C57.263,31.832,56.758,32,56.084,32ZM24.253,30.484a1.769,1.769,0,0,1-1.516-.842,1.262,1.262,0,0,1-.168-.842,1.769,1.769,0,0,1,.842-1.516,25.912,25.912,0,0,1,3.2-1.347A1.752,1.752,0,0,1,28.8,26.947a1.845,1.845,0,0,1,0,1.347,1.725,1.725,0,0,1-1.011.842,21.925,21.925,0,0,0-2.863,1.347h0C24.758,30.316,24.421,30.484,24.253,30.484Zm22.737-2.526h-.505a19.582,19.582,0,0,0-3.032-.674A1.791,1.791,0,0,1,41.937,25.6v-.168a1.578,1.578,0,0,1,1.853-1.347h.168a23.847,23.847,0,0,1,3.368.674c.505.168.842.337,1.011.842a1.789,1.789,0,0,1,.168,1.347A1.706,1.706,0,0,1,46.989,27.958Zm-13.305-.674A1.813,1.813,0,0,1,32,25.937v-.168a1.813,1.813,0,0,1,1.347-1.684,25.126,25.126,0,0,1,3.537-.337,1.832,1.832,0,0,1,1.853,1.516,1.832,1.832,0,0,1-1.516,1.853,20.636,20.636,0,0,0-3.2.337C33.853,27.284,33.853,27.284,33.684,27.284Z" fill="#38454f"/>
      <path id="Pfad_1003" data-name="Pfad 1003" d="M34.863,61.137h0a4.164,4.164,0,0,1,.674-6.4L57.263,38.4c.337-.168.842.168.505.505L41.263,60.632A4.044,4.044,0,0,1,34.863,61.137Z" fill="#48a0dc"/>
    </g>
  </g>
</svg>
