<svg xmlns="http://www.w3.org/2000/svg" xmlns:xlink="http://www.w3.org/1999/xlink" width="96" height="96" viewBox="0 0 96 96">
  <defs>
    <clipPath id="clip-path">
      <rect id="Bildschirmfoto_2019-06-16_um_17.29.45" data-name="Bildschirmfoto 2019-06-16 um 17.29.45" width="96" height="96" rx="8" transform="translate(913 17603)" fill="rgba(255,255,255,0.1)"/>
    </clipPath>
  </defs>
  <g id="Gruppe_maskieren_65" data-name="Gruppe maskieren 65" transform="translate(-913 -17603)" clip-path="url(#clip-path)">
    <g id="Webalys-Kameleon.pics-Boss-4" transform="translate(829.102 17535.852)">
      <g id="Gruppe_215" data-name="Gruppe 215">
        <path id="Pfad_1265" data-name="Pfad 1265" d="M-781.977-17444.723h-12.736a7.17,7.17,0,0,1-5.369-2.4l-12.235-9.59-7.693-19.236c-6.8-.492-9.093-10.8-9.093-18.6a5.468,5.468,0,0,1,4.8-5.328c2.361,0,2.4,2.58,2.4,2.66v-2.66c.044-21.582,2.456-35.973,33.575-35.973s33.531,14.391,33.57,35.973v2.662s0-2.662,2.4-2.662a5.464,5.464,0,0,1,4.8,5.328c0,7.8-2.3,18.115-9.1,18.613l-7.688,19.227-12.257,9.59a7.168,7.168,0,0,1-5.354,2.4Z" transform="translate(920.232 17607.795)" fill="#e3c4c0"/>
        <path id="Pfad_1271" data-name="Pfad 1271" d="M162.611,82.194a13.218,13.218,0,0,0,.35-3.026c0-6.816-2.178-11.47-31.063-11.924v-.058c-1.52-.024-3.091-.038-4.76-.038-30.013,0-31.277,19.137-31.212,23.212a7.5,7.5,0,0,0,.034.772v16.859l4.8,9.593V134.37l2.36,16.787L122.3,163.148h19.185l19.185-11.991,2.36-16.787V117.583h.074l4.8-9.593V95.926a21.5,21.5,0,0,0-5.29-13.732Zm-11.528,61.769h-2.4l-4.8-14.389H119.907l-4.8,14.389h-2.4l-7.194-14.389V90.345c8.007,5.386,16.336,5.688,26.38,5.645h0c6.235-.029,18.926.074,26.38-6.684v40.262Z" fill="#84462d"/>
        <path id="Pfad_1272" data-name="Pfad 1272" d="M131.9,95.993V67.186c-1.518-.024-3.089-.038-4.758-.038-33.574,0-31.176,23.981-31.176,23.981v16.861l4.8,9.593V134.37l2.36,16.787,19.185,11.991H131.9V129.574H119.907l-4.8,14.389h-2.4l-7.194-14.389V90.326C110.768,93.856,114.957,96.058,131.9,95.993Z" fill="#84462d"/>
        <g id="Gruppe_205" data-name="Gruppe 205">
          <path id="Pfad_1273" data-name="Pfad 1273" d="M124.7,112.713a4.8,4.8,0,0,0-4.8-4.8h-.014c0,.053.014.1.014.151a4.8,4.8,0,0,1-4.782,4.8,4.8,4.8,0,0,0,9.578-.151Z" fill="#3e3e3f"/>
        </g>
        <g id="Gruppe_206" data-name="Gruppe 206">
          <path id="Pfad_1274" data-name="Pfad 1274" d="M148.67,112.713a4.8,4.8,0,0,0-4.8-4.8h-.014c0,.05.014.1.014.149a4.8,4.8,0,0,1-4.782,4.8,4.8,4.8,0,0,0,9.578-.149Z" fill="#3e3e3f"/>
        </g>
        <g id="Gruppe_214" data-name="Gruppe 214">
          <path id="Pfad_1281" data-name="Pfad 1281" d="M122.305,136.694H141.49s0,9.593-9.593,9.593S122.305,136.694,122.305,136.694Z" fill="#c7a1a1"/>
        </g>
      </g>
    </g>
  </g>
</svg>
