<svg xmlns="http://www.w3.org/2000/svg" xmlns:xlink="http://www.w3.org/1999/xlink" width="96" height="96" viewBox="0 0 96 96">
  <defs>
    <clipPath id="clip-path">
      <rect id="Bildschirmfoto_2019-06-16_um_17.29.45" data-name="Bildschirmfoto 2019-06-16 um 17.29.45" width="96" height="96" rx="8" transform="translate(592 11201)" fill="#10182f"/>
    </clipPath>
  </defs>
  <g id="Gruppe_maskieren_19" data-name="Gruppe maskieren 19" transform="translate(-592 -11201)" clip-path="url(#clip-path)">
    <g id="icon_presentation" transform="translate(592 11205.647)">
      <path id="Pfad_910" data-name="Pfad 910" d="M6.508,45.718H3.579A3.611,3.611,0,0,1,0,42.139V33.027a3.611,3.611,0,0,1,3.579-3.579H6.508Z" fill="#2c2f38"/>
      <path id="Pfad_911" data-name="Pfad 911" d="M32.7,52.388l-21.964-1.3a4.485,4.485,0,0,1-4.23-4.556V28.472a3.927,3.927,0,0,1,3.742-3.9l22.289-1.3V52.388Z" fill="#e64c3c"/>
      <path id="Pfad_912" data-name="Pfad 912" d="M68.333,73.539,36.444,57.595a6.879,6.879,0,0,1-3.742-6.02V23.916a6.725,6.725,0,0,1,3.579-6.02L68.17.813a6.837,6.837,0,0,1,10.087,6.02V67.357A6.9,6.9,0,0,1,68.333,73.539Z" fill="#ecf0f1"/>
      <path id="Pfad_913" data-name="Pfad 913" d="M79.722,29.448H78.095v16.27h1.627a6.527,6.527,0,0,0,6.508-6.508V35.956A6.527,6.527,0,0,0,79.722,29.448Z" fill="#e64c3c"/>
      <path id="Pfad_914" data-name="Pfad 914" d="M91.11,27.821a17.062,17.062,0,0,1,3.254,9.762c.163,4.23-1.952,7.809-3.254,9.762" fill="none" stroke="#d1d4d1" stroke-linecap="round" stroke-miterlimit="10" stroke-width="3.254"/>
      <path id="Pfad_915" data-name="Pfad 915" d="M13.178,51.25v5.857h4.881a1.627,1.627,0,1,1,0,3.254H13.178v3.254h4.881a1.627,1.627,0,0,1,0,3.254H13.178v3.254h4.881a1.627,1.627,0,0,1,0,3.254H13.178V76.63h4.881a1.627,1.627,0,1,1,0,3.254H13.178v1.139a5.694,5.694,0,0,0,11.389,0V51.9Z" fill="#c03a2b"/>
      <path id="Pfad_916" data-name="Pfad 916" d="M19.686,78.257a1.537,1.537,0,0,0-1.627-1.627H13.178v3.254h4.881A1.75,1.75,0,0,0,19.686,78.257Z" fill="#e64c3c"/>
      <path id="Pfad_917" data-name="Pfad 917" d="M19.686,71.749a1.537,1.537,0,0,0-1.627-1.627H13.178v3.254h4.881A1.75,1.75,0,0,0,19.686,71.749Z" fill="#e64c3c"/>
      <path id="Pfad_918" data-name="Pfad 918" d="M19.686,65.241a1.537,1.537,0,0,0-1.627-1.627H13.178v3.254h4.881A1.75,1.75,0,0,0,19.686,65.241Z" fill="#e64c3c"/>
      <path id="Pfad_919" data-name="Pfad 919" d="M19.686,58.734a1.537,1.537,0,0,0-1.627-1.627H13.178v3.254h4.881A1.75,1.75,0,0,0,19.686,58.734Z" fill="#e64c3c"/>
      <path id="Pfad_920" data-name="Pfad 920" d="M68.007.813,65.079,2.44V71.912l3.091,1.627a6.825,6.825,0,0,0,9.925-6.02V6.833A6.837,6.837,0,0,0,68.007.813Z" fill="#556080"/>
      <g id="Gruppe_130" data-name="Gruppe 130">
        <path id="Pfad_921" data-name="Pfad 921" d="M50.273,18.873a1.614,1.614,0,0,0-2.115-.813l-7.321,3.579a6.385,6.385,0,0,0-3.417,5.694v3.579a1.627,1.627,0,1,0,3.254,0V27.333A3.149,3.149,0,0,1,42.3,24.567l7.159-3.579A1.614,1.614,0,0,0,50.273,18.873Z" fill="#fff"/>
        <path id="Pfad_922" data-name="Pfad 922" d="M39.047,34.329a1.537,1.537,0,0,0-1.627,1.627V39.21a1.627,1.627,0,0,0,3.254,0V35.956A1.537,1.537,0,0,0,39.047,34.329Z" fill="#fff"/>
      </g>
    </g>
  </g>
</svg>
