<svg xmlns="http://www.w3.org/2000/svg" xmlns:xlink="http://www.w3.org/1999/xlink" width="96" height="96" viewBox="0 0 96 96">
  <defs>
    <clipPath id="clip-path">
      <rect id="Bildschirmfoto_2019-06-16_um_17.29.45" data-name="Bildschirmfoto 2019-06-16 um 17.29.45" width="96" height="96" rx="8" fill="#10182f"/>
    </clipPath>
  </defs>
  <g id="Gruppe_maskieren_24" data-name="Gruppe maskieren 24" clip-path="url(#clip-path)">
    <g id="icon_lunch2" transform="translate(0 4.138)">
      <path id="Pfad_982" data-name="Pfad 982" d="M92.69,59.586H3.31A3.32,3.32,0,0,1,0,56.276H0a3.32,3.32,0,0,1,3.31-3.31H92.69A3.32,3.32,0,0,1,96,56.276h0A3.32,3.32,0,0,1,92.69,59.586Z" transform="translate(0)" fill="#d2d5d7"/>
      <path id="Pfad_983" data-name="Pfad 983" d="M4.138,59.586c4.8,7.614,25.655,16.883,25.655,28.138H66.207c0-11.255,20.855-20.524,25.655-28.138Z" transform="translate(0)" fill="#e6e6e6"/>
      <path id="Pfad_984" data-name="Pfad 984" d="M14.9,48A16.6,16.6,0,0,1,31.448,31.448h3.31" transform="translate(0)" fill="none" stroke="#dbb579" stroke-linecap="round" stroke-miterlimit="10" stroke-width="3.31"/>
      <path id="Pfad_985" data-name="Pfad 985" d="M24.828,48a6.64,6.64,0,0,1,6.621-6.621h8.276" transform="translate(0)" fill="none" stroke="#dbb579" stroke-linecap="round" stroke-miterlimit="10" stroke-width="3.31"/>
      <path id="Pfad_986" data-name="Pfad 986" d="M38.069,36.414H31.448A11.515,11.515,0,0,0,19.862,48" transform="translate(0)" fill="none" stroke="#fbd490" stroke-linecap="round" stroke-miterlimit="10" stroke-width="3.31"/>
      <line id="Linie_15" data-name="Linie 15" x2="8.276" transform="translate(31.448 46.345)" fill="none" stroke="#fbd490" stroke-linecap="round" stroke-miterlimit="10" stroke-width="3.31"/>
      <path id="Pfad_987" data-name="Pfad 987" d="M79.448,48A16.6,16.6,0,0,0,62.9,31.448H51.31" transform="translate(0)" fill="none" stroke="#fbd490" stroke-linecap="round" stroke-miterlimit="10" stroke-width="3.31"/>
      <path id="Pfad_988" data-name="Pfad 988" d="M69.517,48A6.64,6.64,0,0,0,62.9,41.379H54.621" transform="translate(0)" fill="none" stroke="#fbd490" stroke-linecap="round" stroke-miterlimit="10" stroke-width="3.31"/>
      <path id="Pfad_989" data-name="Pfad 989" d="M52.966,36.414H62.9A11.515,11.515,0,0,1,74.483,48" transform="translate(0)" fill="none" stroke="#dbb579" stroke-linecap="round" stroke-miterlimit="10" stroke-width="3.31"/>
      <line id="Linie_16" data-name="Linie 16" x1="8.276" transform="translate(54.621 46.345)" fill="none" stroke="#dbb579" stroke-linecap="round" stroke-miterlimit="10" stroke-width="3.31"/>
      <path id="Pfad_990" data-name="Pfad 990" d="M26.483,28.138a3.32,3.32,0,0,1,3.31-3.31c11.917,0,14.9,11.255,14.9,23.172" transform="translate(0)" fill="none" stroke="#fbd490" stroke-linecap="round" stroke-miterlimit="10" stroke-width="3.31"/>
      <path id="Pfad_991" data-name="Pfad 991" d="M19.862,31.448V29.793a9.96,9.96,0,0,1,9.931-9.931c14.566,0,19.862,13.572,19.862,28.138" transform="translate(0)" fill="none" stroke="#dbb579" stroke-linecap="round" stroke-miterlimit="10" stroke-width="3.31"/>
      <circle id="Ellipse_1708" data-name="Ellipse 1708" cx="7.448" cy="7.448" r="7.448" transform="translate(34.759 3.31)" fill="#a46f3e"/>
      <circle id="Ellipse_1709" data-name="Ellipse 1709" cx="7.448" cy="7.448" r="7.448" transform="translate(64.552 14.897)" fill="#a46f3e"/>
      <circle id="Ellipse_1710" data-name="Ellipse 1710" cx="7.448" cy="7.448" r="7.448" transform="translate(48 13.241)" fill="#4c312c"/>
      <circle id="Ellipse_1711" data-name="Ellipse 1711" cx="7.448" cy="7.448" r="7.448" transform="translate(57.931)" fill="#4c312c"/>
      <path id="Pfad_992" data-name="Pfad 992" d="M68.524,81.1H27.476a15.463,15.463,0,0,1,1.655,3.31H66.7A16.44,16.44,0,0,1,68.524,81.1Z" transform="translate(0)" fill="#f75b57"/>
      <path id="Pfad_993" data-name="Pfad 993" d="M68.524,81.1c.828-1.159,1.655-2.152,2.648-3.31H24.828a23.192,23.192,0,0,1,2.648,3.31Z" transform="translate(0)" fill="#fff"/>
      <path id="Pfad_994" data-name="Pfad 994" d="M21.352,74.483c1.159,1.159,2.483,2.152,3.476,3.31H71.172a33.636,33.636,0,0,1,3.476-3.31Z" transform="translate(0)" fill="#88c057"/>
    </g>
  </g>
</svg>
