<svg xmlns="http://www.w3.org/2000/svg" xmlns:xlink="http://www.w3.org/1999/xlink" width="96" height="96" viewBox="0 0 96 96">
  <defs>
    <clipPath id="clip-path">
      <rect id="Bildschirmfoto_2019-06-16_um_17.29.45" data-name="Bildschirmfoto 2019-06-16 um 17.29.45" width="96" height="96" rx="8" transform="translate(592 10685)" fill="#10182f"/>
    </clipPath>
  </defs>
  <g id="Gruppe_maskieren_15" data-name="Gruppe maskieren 15" transform="translate(-592 -10685)" clip-path="url(#clip-path)">
    <g id="icon_lunchtime" transform="translate(595.898 10684.984)">
      <ellipse id="Ellipse_1695" data-name="Ellipse 1695" cx="24.918" cy="4.984" rx="24.918" ry="4.984" transform="translate(23.256 86.049)" fill="#f4f4f4"/>
      <ellipse id="Ellipse_1696" data-name="Ellipse 1696" cx="16.612" cy="3.322" rx="16.612" ry="3.322" transform="translate(23.256 87.71)" fill="#d8d8d8"/>
      <path id="Pfad_873" data-name="Pfad 873" d="M76.58,54.154c0-5.15-17.11-9.3-38.373-9.3S0,49,0,54.154v.166a38.373,38.373,0,1,0,76.746,0A.163.163,0,0,1,76.58,54.154Z" fill="#e6e6e6"/>
      <line id="Linie_9" data-name="Linie 9" x2="68.108" y2="6.645" transform="translate(19.934 11.628)" fill="none" stroke="#a46f3e" stroke-miterlimit="10" stroke-width="3.322"/>
      <path id="Pfad_874" data-name="Pfad 874" d="M26.579,38.207a4.217,4.217,0,0,1,0-6.645,4.217,4.217,0,0,0,0-6.645,4.217,4.217,0,0,1,0-6.645,4.217,4.217,0,0,0,0-6.645,4.217,4.217,0,0,1,0-6.645" fill="none" stroke="#eeaf4b" stroke-miterlimit="10" stroke-width="3.322"/>
      <path id="Pfad_875" data-name="Pfad 875" d="M33.224,4.984a4.217,4.217,0,0,0,0,6.645,4.217,4.217,0,0,1,0,6.645,4.217,4.217,0,0,0,0,6.645,4.217,4.217,0,0,1,0,6.645,4.217,4.217,0,0,0,0,6.645" fill="none" stroke="#eeaf4b" stroke-miterlimit="10" stroke-width="3.322"/>
      <path id="Pfad_876" data-name="Pfad 876" d="M39.868,38.207a4.217,4.217,0,0,1,0-6.645,4.217,4.217,0,0,0,0-6.645,4.217,4.217,0,0,1,0-6.645,4.217,4.217,0,0,0,0-6.645,4.217,4.217,0,0,1,0-6.645" fill="none" stroke="#eeaf4b" stroke-miterlimit="10" stroke-width="3.322"/>
      <path id="Pfad_877" data-name="Pfad 877" d="M46.513,4.984a4.217,4.217,0,0,0,0,6.645,4.217,4.217,0,0,1,0,6.645,4.217,4.217,0,0,0,0,6.645,4.217,4.217,0,0,1,0,6.645,4.217,4.217,0,0,0,0,6.645" fill="none" stroke="#eeaf4b" stroke-miterlimit="10" stroke-width="3.322"/>
      <ellipse id="Ellipse_1697" data-name="Ellipse 1697" cx="38.373" cy="9.303" rx="38.373" ry="9.303" transform="translate(0 44.852)" fill="#fbd490"/>
      <path id="Pfad_878" data-name="Pfad 878" d="M48.174,59.47a4.217,4.217,0,0,1,6.645,0" fill="none" stroke="#eeaf4b" stroke-miterlimit="10" stroke-width="3.322"/>
      <path id="Pfad_879" data-name="Pfad 879" d="M58.141,57.809a4.217,4.217,0,0,1,6.645,0" fill="none" stroke="#eeaf4b" stroke-miterlimit="10" stroke-width="3.322"/>
      <path id="Pfad_880" data-name="Pfad 880" d="M64.786,54.487a4.217,4.217,0,0,1,6.645,0" fill="none" stroke="#eeaf4b" stroke-miterlimit="10" stroke-width="3.322"/>
      <path id="Pfad_881" data-name="Pfad 881" d="M54.819,52.825a4.217,4.217,0,0,1,6.645,0" fill="none" stroke="#eeaf4b" stroke-miterlimit="10" stroke-width="3.322"/>
      <path id="Pfad_882" data-name="Pfad 882" d="M44.852,54.487a4.217,4.217,0,0,1,6.645,0" fill="none" stroke="#eeaf4b" stroke-miterlimit="10" stroke-width="3.322"/>
      <path id="Pfad_883" data-name="Pfad 883" d="M44.852,49.5a4.217,4.217,0,0,1,6.645,0" fill="none" stroke="#eeaf4b" stroke-miterlimit="10" stroke-width="3.322"/>
      <path id="Pfad_884" data-name="Pfad 884" d="M34.885,52.825a4.217,4.217,0,0,1,6.645,0" fill="none" stroke="#eeaf4b" stroke-miterlimit="10" stroke-width="3.322"/>
      <path id="Pfad_885" data-name="Pfad 885" d="M36.546,59.47a4.217,4.217,0,0,1,6.645,0" fill="none" stroke="#eeaf4b" stroke-miterlimit="10" stroke-width="3.322"/>
      <path id="Pfad_886" data-name="Pfad 886" d="M26.579,59.47a4.217,4.217,0,0,1,6.645,0" fill="none" stroke="#eeaf4b" stroke-miterlimit="10" stroke-width="3.322"/>
      <path id="Pfad_887" data-name="Pfad 887" d="M6.645,57.809a4.217,4.217,0,0,1,6.645,0" fill="none" stroke="#eeaf4b" stroke-miterlimit="10" stroke-width="3.322"/>
      <path id="Pfad_888" data-name="Pfad 888" d="M18.273,57.809a4.217,4.217,0,0,1,6.645,0" fill="none" stroke="#eeaf4b" stroke-miterlimit="10" stroke-width="3.322"/>
      <path id="Pfad_889" data-name="Pfad 889" d="M23.256,52.825a4.217,4.217,0,0,1,6.645,0" fill="none" stroke="#eeaf4b" stroke-miterlimit="10" stroke-width="3.322"/>
      <path id="Pfad_890" data-name="Pfad 890" d="M9.967,52.825a4.217,4.217,0,0,1,6.645,0" fill="none" stroke="#eeaf4b" stroke-miterlimit="10" stroke-width="3.322"/>
      <line id="Linie_10" data-name="Linie 10" y1="9.967" x2="71.431" transform="translate(14.951 1.661)" fill="none" stroke="#af7f58" stroke-miterlimit="10" stroke-width="3.322"/>
      <path id="Pfad_891" data-name="Pfad 891" d="M27.077,86.713C11.462,84.222,8.306,64.454,8.306,64.454c4.817,2.326,8.8,4.651,10.3,8.306,5.316.332,8.14,1.993,7.309,7.143,14.452,3.322,13.954,5.98,9.8,8.14C33.224,87.544,27.077,86.713,27.077,86.713Z" fill="#ededed"/>
    </g>
  </g>
</svg>
