<svg xmlns="http://www.w3.org/2000/svg" xmlns:xlink="http://www.w3.org/1999/xlink" width="96" height="96" viewBox="0 0 96 96">
  <defs>
    <clipPath id="clip-path">
      <rect id="Bildschirmfoto_2019-06-16_um_17.29.45" data-name="Bildschirmfoto 2019-06-16 um 17.29.45" width="96" height="96" rx="8" transform="translate(1188 15293)" fill="rgba(255,255,255,0.1)"/>
    </clipPath>
  </defs>
  <g id="Gruppe_maskieren_30" data-name="Gruppe maskieren 30" transform="translate(-1188 -15293)" clip-path="url(#clip-path)">
    <g id="faq_4" transform="translate(1188 15295.522)">
      <path id="Pfad_1009" data-name="Pfad 1009" d="M71.431,10.576a1.709,1.709,0,0,1-1.464.814,8.057,8.057,0,0,0-8.136,8.136,1.627,1.627,0,1,1-3.254,0A11.385,11.385,0,0,1,68.339,8.3,36.99,36.99,0,0,0,48.814,1.627v7.81a1.627,1.627,0,0,1-3.254,0V1.627A36.99,36.99,0,0,0,26.034,8.3,11.385,11.385,0,0,1,35.8,19.525a1.627,1.627,0,1,1-3.254,0,8.057,8.057,0,0,0-8.136-8.136,1.709,1.709,0,0,1-1.464-.814A37.573,37.573,0,0,0,9.763,39.051v27.5C18.875,75.5,32.542,81.356,48,81.356c14.481,0,27.5-5.044,36.61-13.18V39.051A37.573,37.573,0,0,0,71.431,10.576Z" fill="#d1d4d1"/>
      <path id="Pfad_1010" data-name="Pfad 1010" d="M58.576,19.525a1.627,1.627,0,1,0,3.254,0,8.057,8.057,0,0,1,8.136-8.136,1.709,1.709,0,0,0,1.464-.814A35.739,35.739,0,0,0,68.5,8.3,11.387,11.387,0,0,0,58.576,19.525Z" fill="#ecf0f1"/>
      <path id="Pfad_1011" data-name="Pfad 1011" d="M24.407,11.39a8.057,8.057,0,0,1,8.136,8.136,1.627,1.627,0,1,0,3.254,0A11.385,11.385,0,0,0,26.034,8.3a35.739,35.739,0,0,0-2.929,2.278A1.288,1.288,0,0,0,24.407,11.39Z" fill="#ecf0f1"/>
      <path id="Pfad_1012" data-name="Pfad 1012" d="M47.186,11.064a1.537,1.537,0,0,0,1.627-1.627V1.627H45.559v7.81A1.537,1.537,0,0,0,47.186,11.064Z" fill="#ecf0f1"/>
      <path id="Pfad_1013" data-name="Pfad 1013" d="M48,81.356c-13.505,0-25.871-4.393-34.82-11.715V80.38c8.136,7.973,20.339,10.576,34.007,10.576,12.854,0,24.407-2.115,32.542-9.275V71.756A55.454,55.454,0,0,1,48,81.356Z" fill="#e6e7e8"/>
      <path id="Pfad_1014" data-name="Pfad 1014" d="M6.02,35.8a3.482,3.482,0,0,0-2.766,3.417v4.068a.7.7,0,0,1-.651.651h0a2.57,2.57,0,0,0-2.6,2.6v5.207a1.88,1.88,0,0,0,1.953,1.953H2.6a.7.7,0,0,1,.651.651v4.068A3.482,3.482,0,0,0,6.02,61.831a3.3,3.3,0,0,0,3.742-3.254V39.051A3.3,3.3,0,0,0,6.02,35.8Z" fill="#ecf0f1"/>
      <path id="Pfad_1015" data-name="Pfad 1015" d="M4.881,50.441a1.477,1.477,0,0,1-1.139-.488,1.573,1.573,0,0,1,0-2.278,1.573,1.573,0,0,1,2.278,0,1.573,1.573,0,0,1,0,2.278A1.477,1.477,0,0,1,4.881,50.441Z" fill="#a5a5a4"/>
      <path id="Pfad_1016" data-name="Pfad 1016" d="M88.353,61.831a3.482,3.482,0,0,0,2.766-3.417V55a1.283,1.283,0,0,1,1.3-1.3h0a1.88,1.88,0,0,0,1.953-1.953V45.885a1.88,1.88,0,0,0-1.953-1.953h0a1.283,1.283,0,0,1-1.3-1.3V39.214A3.482,3.482,0,0,0,88.353,35.8a3.3,3.3,0,0,0-3.742,3.254V58.576A3.3,3.3,0,0,0,88.353,61.831Z" fill="#ecf0f1"/>
      <path id="Pfad_1017" data-name="Pfad 1017" d="M89.492,50.441a1.611,1.611,0,0,1-1.139-2.766,1.573,1.573,0,0,1,2.278,0,1.627,1.627,0,0,1-1.139,2.766Z" fill="#a5a5a4"/>
      <path id="Pfad_1018" data-name="Pfad 1018" d="M94.373,8.136h-2.6L87.864,4.231v-2.6a1.627,1.627,0,1,0-3.254,0v2.6L80.705,8.136H78.1a1.537,1.537,0,0,0-1.627,1.627A1.537,1.537,0,0,0,78.1,11.39h2.6l3.905,3.905v2.6a1.627,1.627,0,1,0,3.254,0v-2.6l3.905-3.905h2.6A1.537,1.537,0,0,0,96,9.763,1.537,1.537,0,0,0,94.373,8.136Z" fill="#f3d55b"/>
      <path id="Pfad_1019" data-name="Pfad 1019" d="M47.186,13.017C26.522,13.017,9.763,27.5,9.763,42.956v20.5C18.875,70.129,32.542,76.475,48,76.475c14.481,0,27.5-5.695,36.61-11.878V42.956C84.61,27.5,67.851,13.017,47.186,13.017Z" fill="#ecf0f1"/>
      <path id="Pfad_1020" data-name="Pfad 1020" d="M13.18,69.641v4.231c8.136,7.973,20.339,10.576,34.007,10.576,12.854,0,24.407-2.115,32.542-9.275V71.756A55.454,55.454,0,0,1,48,81.356C34.495,81.356,22.129,76.963,13.18,69.641Z" fill="#fff"/>
      <path id="Pfad_1021" data-name="Pfad 1021" d="M47.186,19.525c-20.664,0-37.424,12.2-37.424,25.383v17.41A73.861,73.861,0,0,0,48,73.22c14.481,0,27.5-4.881,36.61-9.925V44.908C84.61,31.729,67.851,19.525,47.186,19.525Z" fill="#38454f"/>
      <path id="Pfad_1022" data-name="Pfad 1022" d="M74.847,55.322H73.22V42.305h1.627a6.528,6.528,0,0,1,6.508,6.508h0A6.528,6.528,0,0,1,74.847,55.322Z" fill="#fac176"/>
      <path id="Pfad_1023" data-name="Pfad 1023" d="M19.525,55.322h1.627V42.305H19.525a6.528,6.528,0,0,0-6.508,6.508h0A6.528,6.528,0,0,0,19.525,55.322Z" fill="#fac176"/>
      <path id="Pfad_1024" data-name="Pfad 1024" d="M61.017,25.546a3.869,3.869,0,0,1,4.719,1.3l7.81,12.2a19.7,19.7,0,0,0,.651-11.39c-6.834-4.881-16.434-8.136-27.01-8.136-10.9,0-20.664,3.417-27.5,8.624a20.338,20.338,0,0,0,1.79,10.9l9.275-12.2a4.088,4.088,0,0,1,4.719-1.3c2.929,1.3,7,2.115,12.854,2.115S58.251,26.847,61.017,25.546Z" fill="#af8066"/>
      <path id="Pfad_1025" data-name="Pfad 1025" d="M65.9,70.78l.814-.325c5.532-2.6,6.508-8.136,6.508-14.319V38.563L65.736,27.01a3.589,3.589,0,0,0-4.719-1.3c-2.766,1.3-6.834,2.115-12.854,2.115-5.858,0-10.088-.814-12.854-2.115a3.869,3.869,0,0,0-4.719,1.3L21.315,39.051c0-.163-.163-.325-.163-.488V55.485c0,6.02,1.139,11.39,6.508,14.156l3.905,1.627A67.854,67.854,0,0,0,48,73.22,69.932,69.932,0,0,0,65.9,70.78Z" fill="#fdd7ad"/>
      <circle id="Ellipse_1716" data-name="Ellipse 1716" cx="1.627" cy="1.627" r="1.627" transform="translate(53.695 48.814)" fill="#f5efca"/>
      <circle id="Ellipse_1717" data-name="Ellipse 1717" cx="1.627" cy="1.627" r="1.627" transform="translate(40.678 50.441)" fill="#f5efca"/>
      <circle id="Ellipse_1718" data-name="Ellipse 1718" cx="1.627" cy="1.627" r="1.627" transform="translate(37.424 53.695)" fill="#f5efca"/>
      <circle id="Ellipse_1719" data-name="Ellipse 1719" cx="1.627" cy="1.627" r="1.627" transform="translate(56.949 52.068)" fill="#f5efca"/>
      <line id="Linie_19" data-name="Linie 19" y2="4.881" transform="translate(47.186 45.559)" fill="none" stroke="#fac176" stroke-linecap="round" stroke-miterlimit="10" stroke-width="3.254"/>
      <path id="Pfad_1026" data-name="Pfad 1026" d="M47.186,50.441h.325c5.044,0,5.695,7.485.651,8.136h-.976" fill="none" stroke="#fac176" stroke-linecap="round" stroke-miterlimit="10" stroke-width="3.254"/>
      <circle id="Ellipse_1720" data-name="Ellipse 1720" cx="2.441" cy="2.441" r="2.441" transform="translate(30.915 40.678)" fill="#59474e"/>
      <circle id="Ellipse_1721" data-name="Ellipse 1721" cx="2.441" cy="2.441" r="2.441" transform="translate(58.576 40.678)" fill="#59474e"/>
      <line id="Linie_20" data-name="Linie 20" y2="3.254" transform="translate(74.847 47.186)" fill="none" stroke="#f5efca" stroke-linecap="round" stroke-miterlimit="10" stroke-width="3.254"/>
      <line id="Linie_21" data-name="Linie 21" y2="3.254" transform="translate(19.525 47.186)" fill="none" stroke="#f5efca" stroke-linecap="round" stroke-miterlimit="10" stroke-width="3.254"/>
      <line id="Linie_22" data-name="Linie 22" x2="3.254" transform="translate(45.559 68.339)" fill="none" stroke="#fac176" stroke-linecap="round" stroke-miterlimit="10" stroke-width="3.254"/>
      <line id="Linie_23" data-name="Linie 23" x2="9.763" transform="translate(42.305 63.458)" fill="none" stroke="#f0785a" stroke-linecap="round" stroke-miterlimit="10" stroke-width="3.254"/>
      <line id="Linie_24" data-name="Linie 24" x2="9.763" transform="translate(30.915 32.542)" fill="none" stroke="#fac176" stroke-linecap="round" stroke-miterlimit="10" stroke-width="3.254"/>
      <line id="Linie_25" data-name="Linie 25" x2="9.763" transform="translate(53.695 32.542)" fill="none" stroke="#fac176" stroke-linecap="round" stroke-miterlimit="10" stroke-width="3.254"/>
    </g>
  </g>
</svg>
