<svg xmlns="http://www.w3.org/2000/svg" xmlns:xlink="http://www.w3.org/1999/xlink" width="96" height="96" viewBox="0 0 96 96">
  <defs>
    <clipPath id="clip-path">
      <rect id="Bildschirmfoto_2019-06-16_um_17.29.45" data-name="Bildschirmfoto 2019-06-16 um 17.29.45" width="96" height="96" rx="8" transform="translate(636 15293)" fill="rgba(255,255,255,0.1)"/>
    </clipPath>
  </defs>
  <g id="Gruppe_maskieren_55" data-name="Gruppe maskieren 55" transform="translate(-636 -15293)" clip-path="url(#clip-path)">
    <g id="Paomedia-Small-N-Flat-Wrench-screwdriver" transform="translate(631.645 10801.467)">
      <g id="Gruppe_175" data-name="Gruppe 175">
        <g id="Gruppe_173" data-name="Gruppe 173" transform="translate(-4.363)">
          <path id="Pfad_1199" data-name="Pfad 1199" d="M26.589,4491.974v4.363l17.044,17.017-4.363,13.09-13.09,4.363L9.136,4513.79a18.2,18.2,0,0,0-.409,3.927s-.019.436,0,.873c-.016.436,0,.873,0,1.309a24.1,24.1,0,0,0,24,24,24.8,24.8,0,0,0,5.727-.873l9.409,9.163,17.588,17.889,13.09,13.09a12.342,12.342,0,0,0,8.727,3.491A12.016,12.016,0,0,0,99.4,4574.439a12.358,12.358,0,0,0-3.408-8.726l-.135-.437L82.9,4552.623l-17.588-17.89-9.412-9.163a27.654,27.654,0,0,0,.82-5.672,23.824,23.824,0,0,0-24-24H30.952v-3.927Zm60.675,75.92a6.355,6.355,0,0,1,6.545,6.545,6.545,6.545,0,1,1-13.09,0A6.355,6.355,0,0,1,87.264,4567.894Z" fill="#7f8c8d"/>
          <path id="Pfad_1200" data-name="Pfad 1200" d="M30.543,4491.537a12.029,12.029,0,0,0-3.954.437l17.044,17.017-4.363,13.09-13.09,4.363L9.136,4509.427a18.19,18.19,0,0,0-.409,3.927s-.019.436,0,.873c-.016.436,0,.873,0,1.309a24.1,24.1,0,0,0,24,24,24.8,24.8,0,0,0,5.727-.873l9.409,9.163,17.588,17.89,13.09,13.089a12.342,12.342,0,0,0,8.727,3.491A12.016,12.016,0,0,0,99.4,4570.076a12.359,12.359,0,0,0-3.408-8.726l-.135-.437L82.9,4548.26l-17.588-17.889-9.412-9.163a27.654,27.654,0,0,0,.82-5.672,23.824,23.824,0,0,0-24-24H30.543Zm56.722,71.994a6.355,6.355,0,0,1,6.545,6.544,6.545,6.545,0,1,1-13.09,0A6.355,6.355,0,0,1,87.265,4563.531Z" fill="#95a5a6"/>
        </g>
        <path id="Pfad_1201" data-name="Pfad 1201" d="M48,4530.807l-8.59,8.29-.136.437h0c-.005,0-.013,0,0,.436a8.3,8.3,0,0,1,0,3.927l4.227,3.927,8.863,9.163a7.4,7.4,0,0,1,4.363,0l8.727-8.727-2.182-2.182-4.363-4.363,6.545-6.545-4.363-4.363-6.545,6.545Z" fill="#7f8c8d"/>
        <path id="Pfad_1202" data-name="Pfad 1202" d="M50.177,4537.352l4.363,4.363,39.269-39.27-4.363-4.363Z" fill="#bdc3c7"/>
        <path id="Pfad_1203" data-name="Pfad 1203" d="M91.628,4500.264l-39.269,39.27,2.182,2.182,39.269-39.27Z" fill="#95a5a6"/>
        <path id="Pfad_1204" data-name="Pfad 1204" d="M95.992,4491.537l-10.908,6.545,8.727,8.727,6.545-10.908Z" fill="#95a5a6"/>
        <g id="Gruppe_174" data-name="Gruppe 174">
          <path id="Pfad_1205" data-name="Pfad 1205" d="M48,4526.443l-8.727,8.727c1.472,3.491-1.815,10.472-4.363,13.09-2.549,2.182-9.233,5.672-13.09,4.363L4.363,4570.076l17.453,17.453,17.453-17.453c-1.472-3.927,1.815-10.908,4.363-13.089,2.548-2.618,9.233-6.109,13.09-4.363l8.727-8.727Z" fill="#f39c12"/>
          <path id="Pfad_1206" data-name="Pfad 1206" d="M48,4526.443l-8.727,8.727c1.472,3.491-1.815,10.472-4.363,13.09-2.549,2.182-9.233,5.672-13.09,4.363L4.363,4570.076l8.727,8.727,43.633-43.632Z" fill="#f1c40f"/>
          <path id="Pfad_1207" data-name="Pfad 1207" d="M39.405,4534.733l-.136.437c.048,0-.038,0,0,.436C39.312,4535.17,39.371,4535.17,39.405,4534.733Zm23.862,6.981-6.545,6.545c-3.857-1.746-10.542,1.745-13.09,4.363-2.464,2.182-5.489,8.727-4.363,12.653.767-3.491,2.7-6.981,4.363-8.29,2.548-2.618,9.233-6.109,13.09-4.363l8.727-8.727Zm-24.134,24-17.317,17.453L6.545,4567.894l-2.182,2.182,17.453,17.453,17.453-17.453A8.483,8.483,0,0,1,39.133,4565.713Z" fill="#e67e22"/>
        </g>
      </g>
    </g>
  </g>
</svg>
