<svg xmlns="http://www.w3.org/2000/svg" xmlns:xlink="http://www.w3.org/1999/xlink" width="96" height="96" viewBox="0 0 96 96">
  <defs>
    <clipPath id="clip-path">
      <rect id="Bildschirmfoto_2019-06-16_um_17.29.45" data-name="Bildschirmfoto 2019-06-16 um 17.29.45" width="96" height="96" rx="8" transform="translate(592 10352)" fill="#10182f"/>
    </clipPath>
  </defs>
  <g id="Gruppe_maskieren_57" data-name="Gruppe maskieren 57" transform="translate(-592 -10352)" clip-path="url(#clip-path)">
    <g id="Thesquid.ink-Free-Flat-Sample-Carrot" transform="translate(592 10352.001)">
      <g id="Leafs">
        <g id="Gruppe_176" data-name="Gruppe 176">
          <path id="Pfad_1213" data-name="Pfad 1213" d="M95.161.839a2.866,2.866,0,0,0-4.052,0L68.861,23.074,77.666,7.236a2.923,2.923,0,0,0-1.008-3.912,2.706,2.706,0,0,0-3.768,1.05L54.349,37.721a2.892,2.892,0,0,0-.311,1.648,2.46,2.46,0,0,0,.309,1.375,2.692,2.692,0,0,0,2.041,1.248h.027a2.94,2.94,0,0,0,1.793-.323L91.581,23.008a2.681,2.681,0,0,0,1.1-3.7,2.863,2.863,0,0,0-3.861-.927L72.57,27.466,95.161,4.887A2.86,2.86,0,0,0,95.161.839ZM63.642,32.459l.209-.374c.009.009.011.02.018.029.054.053.125.071.18.119Z" fill="#75a64b"/>
        </g>
      </g>
      <g id="Body_1_">
        <g id="Gruppe_177" data-name="Gruppe 177">
          <path id="Pfad_1214" data-name="Pfad 1214" d="M76.513,32.2l-6.358-6.358L63.8,19.489c-4.236-4.236-8.64-8.316-19.077,2.12C40.281,26.045,2.327,80.954,2.327,80.954s-5.235,7.482,0,12.717,12.717,0,12.717,0,54.911-37.952,59.35-42.389C84.831,40.845,80.751,36.443,76.513,32.2Z" fill="#fb8512"/>
        </g>
      </g>
      <g id="Stripes">
        <g id="Gruppe_178" data-name="Gruppe 178">
          <path id="Pfad_1215" data-name="Pfad 1215" d="M25.922,48.852a2.779,2.779,0,0,0-.8-.534q-1.618,2.294-3.238,4.6l6.212,6.223a2.864,2.864,0,1,0,4.049-4.053Zm-3,21.006a2.864,2.864,0,0,0-4.049,4.052l3.219,3.231a2.864,2.864,0,1,0,4.049-4.052ZM53.15,44.131a2.866,2.866,0,0,0,0-4.053L40.928,27.846a2.788,2.788,0,0,0-.744-.5c-1,1.34-2.113,2.862-3.321,4.523.008.008.009.018.017.026L49.1,44.133A2.864,2.864,0,0,0,53.15,44.131Zm24.009-4.053L64.937,27.846A2.864,2.864,0,0,0,60.888,31.9L73.11,44.13a2.864,2.864,0,1,0,4.049-4.052ZM48.884,57.856a2.866,2.866,0,0,0,0,4.052l4.749,4.76q2.435-1.731,4.728-3.372l-5.428-5.44A2.862,2.862,0,0,0,48.884,57.856Z" fill="#ab6017"/>
        </g>
      </g>
    </g>
  </g>
</svg>
