<svg xmlns="http://www.w3.org/2000/svg" xmlns:xlink="http://www.w3.org/1999/xlink" width="96" height="96" viewBox="0 0 96 96">
  <defs>
    <clipPath id="clip-path">
      <rect id="Bildschirmfoto_2019-06-16_um_17.29.45" data-name="Bildschirmfoto 2019-06-16 um 17.29.45" width="96" height="96" rx="8" transform="translate(912 15622)" fill="rgba(255,255,255,0.1)"/>
    </clipPath>
  </defs>
  <g id="Gruppe_maskieren_50" data-name="Gruppe maskieren 50" transform="translate(-912 -15622)" clip-path="url(#clip-path)">
    <g id="icon_design" transform="translate(912 15622)">
      <path id="Pfad_1175" data-name="Pfad 1175" d="M29.116,48.051a14.874,14.874,0,0,1-5.7-3.563l-9.366-9.366c-.611-.611-1.018-1.222-1.527-1.832h0a14.963,14.963,0,0,0,2.443,29.726H28.2A14.989,14.989,0,0,0,43.164,48.051a15.187,15.187,0,0,0-.2-2.138,14.98,14.98,0,0,1-3.97,2.138A14.932,14.932,0,0,0,29.116,48.051Z" fill="#cc66a1"/>
      <path id="Pfad_1176" data-name="Pfad 1176" d="M53.243,45.913a10.9,10.9,0,0,1-1.629-1.425c-.509-.509-.916-1.018-1.425-1.629a15.188,15.188,0,0,1-2.138.2,15.187,15.187,0,0,1-2.138-.2,10.9,10.9,0,0,1-1.425,1.629c-.509.509-1.018.916-1.629,1.425a15.188,15.188,0,0,1,.2,2.138,15.187,15.187,0,0,1-.2,2.138,10.9,10.9,0,0,1,1.629,1.425h0c.509.509.916,1.018,1.425,1.629a15.188,15.188,0,0,1,2.138-.2,15.188,15.188,0,0,1,2.138.2,10.9,10.9,0,0,1,1.425-1.629h0c.509-.509,1.018-.916,1.629-1.425a15.188,15.188,0,0,1-.2-2.138A15.188,15.188,0,0,1,53.243,45.913Z" fill="none"/>
      <path id="Pfad_1177" data-name="Pfad 1177" d="M62.914,12.522a14.962,14.962,0,0,0-29.523,0,12.134,12.134,0,0,1,1.832,1.527l9.366,9.366a14.353,14.353,0,0,1,3.461,5.7,14.635,14.635,0,0,1,0,9.773,17.359,17.359,0,0,1-2.138,4.072,15.188,15.188,0,0,0,2.138.2,15.187,15.187,0,0,0,2.138-.2,16.707,16.707,0,0,0,4.378-1.323,15.157,15.157,0,0,0,7.126-6.923A15.4,15.4,0,0,0,63.321,28.2V14.965A10.22,10.22,0,0,0,62.914,12.522Z" fill="#f29c1f"/>
      <path id="Pfad_1178" data-name="Pfad 1178" d="M60.98,82.053l-9.366-9.366a14.98,14.98,0,0,1-3.563-15.474,17.359,17.359,0,0,1,2.138-4.072,15.188,15.188,0,0,0-2.138-.2,15.187,15.187,0,0,0-2.138.2,16.707,16.707,0,0,0-4.378,1.323,15.157,15.157,0,0,0-7.126,6.923A15.482,15.482,0,0,0,32.679,67.9V81.137a16,16,0,0,0,.407,2.341,14.962,14.962,0,0,0,29.523,0A9.534,9.534,0,0,1,60.98,82.053Z" fill="#90bae1"/>
      <path id="Pfad_1179" data-name="Pfad 1179" d="M83.58,33.391a12.134,12.134,0,0,1-1.527,1.832L72.687,44.59a14.98,14.98,0,0,1-15.474,3.563,17.359,17.359,0,0,1-4.072-2.138,15.188,15.188,0,0,0-.2,2.138,15.187,15.187,0,0,0,.2,2.138,16.707,16.707,0,0,0,1.323,4.378,14.3,14.3,0,0,0,6.923,6.923A15.333,15.333,0,0,0,67.9,63.118H81.137a16.708,16.708,0,0,0,2.341-.2,14.972,14.972,0,0,0,.1-29.523Z" fill="#b1e97c"/>
      <path id="Pfad_1180" data-name="Pfad 1180" d="M82.053,14.049a14.853,14.853,0,0,0-19.139-1.527,18.79,18.79,0,0,1,.407,2.341V28.1a15.793,15.793,0,0,1-1.629,6.515,14.507,14.507,0,0,1-7.024,6.923,15.618,15.618,0,0,1-4.378,1.323,10.279,10.279,0,0,0,1.323,1.629c.509.509,1.018.916,1.629,1.425a16.733,16.733,0,0,0,3.97,2.138,14.635,14.635,0,0,0,9.773,0,14.874,14.874,0,0,0,5.7-3.563l9.366-9.366c.611-.611,1.018-1.222,1.527-1.832A14.758,14.758,0,0,0,82.053,14.049Z" fill="#f3d55b"/>
      <path id="Pfad_1181" data-name="Pfad 1181" d="M83.58,62.812a18.175,18.175,0,0,1-2.341.2H68a15.058,15.058,0,0,1-13.438-8.45,15.618,15.618,0,0,1-1.323-4.378,10.9,10.9,0,0,0-1.629,1.425c-.509.509-.916,1.018-1.425,1.629a15.575,15.575,0,0,0-2.138,4.072,14.635,14.635,0,0,0,0,9.773,14.874,14.874,0,0,0,3.563,5.7l9.366,9.366c.611.611,1.222,1.018,1.832,1.527A14.907,14.907,0,0,0,83.58,62.812Z" fill="#71c285"/>
      <path id="Pfad_1182" data-name="Pfad 1182" d="M48.051,29.116a14.874,14.874,0,0,0-3.563-5.7l-9.366-9.366c-.611-.611-1.222-1.018-1.832-1.527a14.862,14.862,0,0,0-19.139,1.527,15.032,15.032,0,0,0-1.527,19.444,17.971,17.971,0,0,1,2.341,0H28.2A14.75,14.75,0,0,1,42.961,46.117v-.1A10.9,10.9,0,0,0,44.59,44.59c.509-.509.916-1.12,1.425-1.629a15.575,15.575,0,0,0,2.138-4.072A15.3,15.3,0,0,0,48.051,29.116Z" fill="#f38774"/>
      <path id="Pfad_1183" data-name="Pfad 1183" d="M28.2,33.493H14.965a17.952,17.952,0,0,0-2.341,0v-.1a8.109,8.109,0,0,0,1.527,1.731l9.366,9.366a14.353,14.353,0,0,0,5.7,3.461,14.635,14.635,0,0,1,9.773,0,14.366,14.366,0,0,0,3.97-1.934A14.907,14.907,0,0,0,28.2,33.493Z" fill="#cc66a1"/>
      <path id="Pfad_1184" data-name="Pfad 1184" d="M44.59,51.614c-.509-.509-1.018-.916-1.629-1.425a15.575,15.575,0,0,0-4.072-2.138,14.635,14.635,0,0,0-9.773,0,14.874,14.874,0,0,0-5.7,3.563L14.049,60.98c-.611.611-1.018,1.222-1.527,1.832a14.991,14.991,0,0,0,1.527,19.241A14.715,14.715,0,0,0,33.086,83.58a18.79,18.79,0,0,1-.407-2.341V68a15.78,15.78,0,0,1,8.755-13.438,15.618,15.618,0,0,1,4.378-1.323A6.211,6.211,0,0,0,44.59,51.614Z" fill="#a88cb7"/>
    </g>
  </g>
</svg>
