<svg xmlns="http://www.w3.org/2000/svg" xmlns:xlink="http://www.w3.org/1999/xlink" width="256" height="128" viewBox="0 0 256 128">
  <defs>
    <clipPath id="clip-path">
      <rect id="Bildschirmfoto_2019-06-16_um_17.29.45" data-name="Bildschirmfoto 2019-06-16 um 17.29.45" width="256" height="128" rx="8" transform="translate(624 4982)" fill="#10182f"/>
    </clipPath>
  </defs>
  <g id="Gruppe_maskieren_62" data-name="Gruppe maskieren 62" transform="translate(-624 -4982)" clip-path="url(#clip-path)">
    <g id="Paomedia-Small-N-Flat-Basket" transform="translate(683.429 -897.994)">
      <rect id="Rechteck_730" data-name="Rechteck 730" width="3.503" height="6.709" transform="translate(107.114 5885.123)" fill="#c0392b"/>
      <path id="Pfad_1225" data-name="Pfad 1225" d="M11.429,5933.708v62.857a11.445,11.445,0,0,0,11.429,11.428h91.428a11.444,11.444,0,0,0,11.429-11.428v-62.857Z" fill="#f39c12"/>
      <path id="Pfad_1226" data-name="Pfad 1226" d="M11.429,5927.994v62.857a11.445,11.445,0,0,0,11.429,11.428h91.428a11.443,11.443,0,0,0,11.429-11.428v-62.857Z" fill="#f1c40f"/>
      <path id="Pfad_1227" data-name="Pfad 1227" d="M108.977,5887.422a5.618,5.618,0,0,0-8.08,0l-36.366,36.572c-2.234,1.714-2.234,5.714,0,8a5.617,5.617,0,0,0,8.08,0l36.366-36.571A5.613,5.613,0,0,0,108.977,5887.422Z" fill="#c0392b"/>
      <rect id="Rechteck_731" data-name="Rechteck 731" width="114.286" height="17.143" transform="translate(11.429 5927.994)" fill="#f39c12"/>
      <path id="Pfad_1228" data-name="Pfad 1228" d="M11.429,5916.565a11.428,11.428,0,1,0,0,22.857H125.714a11.428,11.428,0,1,0,0-22.857Z" fill="#f1c40f"/>
      <path id="Pfad_1229" data-name="Pfad 1229" d="M108.977,5881.708a5.617,5.617,0,0,0-8.08,0L64.531,5918.28c-2.234,1.715-2.234,5.714,0,8a5.617,5.617,0,0,0,8.08,0l36.366-36.571A5.612,5.612,0,0,0,108.977,5881.708Z" fill="#e74c3c"/>
      <g id="Gruppe_185" data-name="Gruppe 185" transform="translate(-28.571)">
        <path id="Pfad_1230" data-name="Pfad 1230" d="M51.429,80v8.571a2.857,2.857,0,0,0,5.714,0V80Z" transform="translate(0 5876.565)" fill="#f39c12"/>
        <path id="Pfad_1231" data-name="Pfad 1231" d="M54.286,5950.851a2.774,2.774,0,0,0-2.857,2.857v2.857h5.714v-2.857A2.774,2.774,0,0,0,54.286,5950.851Z" fill="#e67e22"/>
      </g>
      <g id="Gruppe_186" data-name="Gruppe 186" transform="translate(-28.571 22.857)">
        <path id="Pfad_1232" data-name="Pfad 1232" d="M51.429,80v8.571a2.857,2.857,0,0,0,5.714,0V80Z" transform="translate(0 5876.565)" fill="#f39c12"/>
        <path id="Pfad_1233" data-name="Pfad 1233" d="M54.286,5950.851a2.774,2.774,0,0,0-2.857,2.857v2.857h5.714v-2.857A2.774,2.774,0,0,0,54.286,5950.851Z" fill="#e67e22"/>
      </g>
      <g id="Gruppe_187" data-name="Gruppe 187" transform="translate(-17.143)">
        <path id="Pfad_1234" data-name="Pfad 1234" d="M51.429,80v8.571a2.857,2.857,0,0,0,5.714,0V80Z" transform="translate(0 5876.565)" fill="#f39c12"/>
        <path id="Pfad_1235" data-name="Pfad 1235" d="M54.286,5950.851a2.774,2.774,0,0,0-2.857,2.857v2.857h5.714v-2.857A2.774,2.774,0,0,0,54.286,5950.851Z" fill="#e67e22"/>
      </g>
      <g id="Gruppe_188" data-name="Gruppe 188" transform="translate(-17.143 22.857)">
        <path id="Pfad_1236" data-name="Pfad 1236" d="M51.429,80v8.571a2.857,2.857,0,0,0,5.714,0V80Z" transform="translate(0 5876.565)" fill="#f39c12"/>
        <path id="Pfad_1237" data-name="Pfad 1237" d="M54.286,5950.851a2.774,2.774,0,0,0-2.857,2.857v2.857h5.714v-2.857A2.774,2.774,0,0,0,54.286,5950.851Z" fill="#e67e22"/>
      </g>
      <g id="Gruppe_189" data-name="Gruppe 189" transform="translate(-5.714)">
        <path id="Pfad_1238" data-name="Pfad 1238" d="M51.429,80v8.571a2.857,2.857,0,0,0,5.714,0V80Z" transform="translate(0 5876.565)" fill="#f39c12"/>
        <path id="Pfad_1239" data-name="Pfad 1239" d="M54.286,5950.851a2.774,2.774,0,0,0-2.857,2.857v2.857h5.714v-2.857A2.774,2.774,0,0,0,54.286,5950.851Z" fill="#e67e22"/>
      </g>
      <g id="Gruppe_190" data-name="Gruppe 190" transform="translate(5.714)">
        <path id="Pfad_1240" data-name="Pfad 1240" d="M51.429,80v8.571a2.857,2.857,0,0,0,5.714,0V80Z" transform="translate(0 5876.565)" fill="#f39c12"/>
        <path id="Pfad_1241" data-name="Pfad 1241" d="M54.286,5950.851a2.774,2.774,0,0,0-2.857,2.857v2.857h5.714v-2.857A2.774,2.774,0,0,0,54.286,5950.851Z" fill="#e67e22"/>
      </g>
      <g id="Gruppe_191" data-name="Gruppe 191" transform="translate(5.714 22.857)">
        <path id="Pfad_1242" data-name="Pfad 1242" d="M51.429,80v8.571a2.857,2.857,0,0,0,5.714,0V80Z" transform="translate(0 5876.565)" fill="#f39c12"/>
        <path id="Pfad_1243" data-name="Pfad 1243" d="M54.286,5950.851a2.774,2.774,0,0,0-2.857,2.857v2.857h5.714v-2.857A2.774,2.774,0,0,0,54.286,5950.851Z" fill="#e67e22"/>
      </g>
      <g id="Gruppe_192" data-name="Gruppe 192" transform="translate(-5.714 22.857)">
        <path id="Pfad_1244" data-name="Pfad 1244" d="M51.429,80v8.571a2.857,2.857,0,0,0,5.714,0V80Z" transform="translate(0 5876.565)" fill="#f39c12"/>
        <path id="Pfad_1245" data-name="Pfad 1245" d="M54.286,5950.851a2.774,2.774,0,0,0-2.857,2.857v2.857h5.714v-2.857A2.774,2.774,0,0,0,54.286,5950.851Z" fill="#e67e22"/>
      </g>
      <g id="Gruppe_193" data-name="Gruppe 193" transform="translate(22.857)">
        <path id="Pfad_1246" data-name="Pfad 1246" d="M51.429,80v8.571a2.857,2.857,0,0,0,5.714,0V80Z" transform="translate(0 5876.565)" fill="#f39c12"/>
        <path id="Pfad_1247" data-name="Pfad 1247" d="M54.286,5950.851a2.774,2.774,0,0,0-2.857,2.857v2.857h5.714v-2.857A2.774,2.774,0,0,0,54.286,5950.851Z" fill="#e67e22"/>
      </g>
      <g id="Gruppe_194" data-name="Gruppe 194" transform="translate(22.857 22.857)">
        <path id="Pfad_1248" data-name="Pfad 1248" d="M51.429,80v8.571a2.857,2.857,0,0,0,5.714,0V80Z" transform="translate(0 5876.565)" fill="#f39c12"/>
        <path id="Pfad_1249" data-name="Pfad 1249" d="M54.286,5950.851a2.774,2.774,0,0,0-2.857,2.857v2.857h5.714v-2.857A2.774,2.774,0,0,0,54.286,5950.851Z" fill="#e67e22"/>
      </g>
      <g id="Gruppe_195" data-name="Gruppe 195" transform="translate(34.286)">
        <path id="Pfad_1250" data-name="Pfad 1250" d="M51.429,80v8.571a2.857,2.857,0,0,0,5.714,0V80Z" transform="translate(0 5876.565)" fill="#f39c12"/>
        <path id="Pfad_1251" data-name="Pfad 1251" d="M54.286,5950.851a2.774,2.774,0,0,0-2.857,2.857v2.857h5.714v-2.857A2.774,2.774,0,0,0,54.286,5950.851Z" fill="#e67e22"/>
      </g>
      <g id="Gruppe_196" data-name="Gruppe 196" transform="translate(34.286 22.857)">
        <path id="Pfad_1252" data-name="Pfad 1252" d="M51.429,80v8.571a2.857,2.857,0,0,0,5.714,0V80Z" transform="translate(0 5876.565)" fill="#f39c12"/>
        <path id="Pfad_1253" data-name="Pfad 1253" d="M54.286,5950.851a2.774,2.774,0,0,0-2.857,2.857v2.857h5.714v-2.857A2.774,2.774,0,0,0,54.286,5950.851Z" fill="#e67e22"/>
      </g>
      <g id="Gruppe_197" data-name="Gruppe 197" transform="translate(45.714)">
        <path id="Pfad_1254" data-name="Pfad 1254" d="M51.429,80v8.571a2.857,2.857,0,0,0,5.714,0V80Z" transform="translate(0 5876.565)" fill="#f39c12"/>
        <path id="Pfad_1255" data-name="Pfad 1255" d="M54.286,5950.851a2.774,2.774,0,0,0-2.857,2.857v2.857h5.714v-2.857A2.774,2.774,0,0,0,54.286,5950.851Z" fill="#e67e22"/>
      </g>
      <g id="Gruppe_198" data-name="Gruppe 198" transform="translate(57.143)">
        <path id="Pfad_1256" data-name="Pfad 1256" d="M51.429,80v8.571a2.857,2.857,0,0,0,5.714,0V80Z" transform="translate(0 5876.565)" fill="#f39c12"/>
        <path id="Pfad_1257" data-name="Pfad 1257" d="M54.286,5950.851a2.774,2.774,0,0,0-2.857,2.857v2.857h5.714v-2.857A2.774,2.774,0,0,0,54.286,5950.851Z" fill="#e67e22"/>
      </g>
      <g id="Gruppe_199" data-name="Gruppe 199" transform="translate(57.143 22.857)">
        <path id="Pfad_1258" data-name="Pfad 1258" d="M51.429,80v8.571a2.857,2.857,0,0,0,5.714,0V80Z" transform="translate(0 5876.565)" fill="#f39c12"/>
        <path id="Pfad_1259" data-name="Pfad 1259" d="M54.286,5950.851a2.774,2.774,0,0,0-2.857,2.857v2.857h5.714v-2.857A2.774,2.774,0,0,0,54.286,5950.851Z" fill="#e67e22"/>
      </g>
      <g id="Gruppe_200" data-name="Gruppe 200" transform="translate(45.714 22.857)">
        <path id="Pfad_1260" data-name="Pfad 1260" d="M51.429,80v8.571a2.857,2.857,0,0,0,5.714,0V80Z" transform="translate(0 5876.565)" fill="#f39c12"/>
        <path id="Pfad_1261" data-name="Pfad 1261" d="M54.286,5950.851a2.774,2.774,0,0,0-2.857,2.857v2.857h5.714v-2.857A2.774,2.774,0,0,0,54.286,5950.851Z" fill="#e67e22"/>
      </g>
    </g>
  </g>
</svg>
