<svg xmlns="http://www.w3.org/2000/svg" width="32" height="25.775" viewBox="0 0 32 25.775">
  <g id="icon_twitter" transform="translate(-0.1)">
    <path id="Pfad_247" data-name="Pfad 247" d="M32.1,3.386a3.259,3.259,0,0,1-3.167,0c1.311-.765,1.42-1.42,1.857-2.84a11.2,11.2,0,0,1-4.15,1.529A6.107,6.107,0,0,0,21.943,0,6.572,6.572,0,0,0,15.39,6.553a7.375,7.375,0,0,0,.218,1.529A19.058,19.058,0,0,1,2.175,1.2,6.672,6.672,0,0,0,1.3,4.478,6.627,6.627,0,0,0,4.25,9.939,8.445,8.445,0,0,1,1.3,9.065v.109a6.454,6.454,0,0,0,5.242,6.334,6.73,6.73,0,0,1-2.949.109A6.46,6.46,0,0,0,9.711,20.1,13.307,13.307,0,0,1,.1,22.826a18.306,18.306,0,0,0,9.939,2.949c12.014,0,18.567-9.939,18.567-18.567V6.334C29.7,5.461,31.226,4.7,32.1,3.386Z" fill="#fff"/>
  </g>
</svg>
