<svg xmlns="http://www.w3.org/2000/svg" width="58.934" height="25.775" viewBox="0 0 58.934 25.775">
  <g id="icon_meetup" transform="translate(-0.006 0.02)">
    <path id="Pfad_241" data-name="Pfad 241" d="M11.966,2.612h0c-1.842,0-2.394,2.578-3.5,9.761,0,.368-.184.737-.184,1.289-.737-1.289-1.473-2.763-2.21-3.868C2.758,3.9,2.758,3.717,1.653,3.717a1.313,1.313,0,0,0-1.105.553c-.737.553-.921.921.737,14.181a1.434,1.434,0,0,0,1.658,1.289,1.434,1.434,0,0,0,1.289-1.658c-.184-2.21-.553-4.6-.737-6.63C7.73,18.819,7.914,19,9.019,19c1.658,0,1.658-.921,2.394-6.078.184-1.105.368-2.578.737-4.052.737,2.763,1.658,6.814,2.394,10.313a1.563,1.563,0,0,0,1.473,1.289h.368a1.532,1.532,0,0,0,1.105-1.842C14.176,2.8,13.439,2.428,11.966,2.612Z" transform="translate(0 0.132)" fill="#fff"/>
    <path id="Pfad_242" data-name="Pfad 242" d="M17.04,15.82a3.134,3.134,0,0,1-2.394.368,2.4,2.4,0,0,1-1.658-1.842V13.61c4.052.921,4.973.737,5.525-.368.368-.553,1.289-4.6.553-6.63a2.614,2.614,0,0,0-1.289-1.473,3.764,3.764,0,0,0-4.052.737c-2.21,1.658-4.236,5.525-3.683,8.84a5.4,5.4,0,0,0,3.683,4.236,6.544,6.544,0,0,0,1.842.368,6.067,6.067,0,0,0,3.5-1.105A1.5,1.5,0,0,0,19.251,16,1.677,1.677,0,0,0,17.04,15.82ZM15.567,8.269c.184-.184.368-.368.553-.368a18.94,18.94,0,0,1-.184,3.131,13.6,13.6,0,0,1-2.21-.368A8.261,8.261,0,0,1,15.567,8.269Z" transform="translate(4.412 1.005)" fill="#fff"/>
    <path id="Pfad_243" data-name="Pfad 243" d="M22.64,15.82a3.134,3.134,0,0,1-2.394.368,2.4,2.4,0,0,1-1.658-1.842V13.61c4.052.921,4.973.737,5.525-.368.368-.553,1.289-4.6.553-6.63a2.614,2.614,0,0,0-1.289-1.473,3.764,3.764,0,0,0-4.052.737c-2.21,1.658-4.236,5.525-3.683,8.84a5.4,5.4,0,0,0,3.683,4.236,6.544,6.544,0,0,0,1.842.368,6.067,6.067,0,0,0,3.5-1.105A1.5,1.5,0,0,0,24.85,16,1.677,1.677,0,0,0,22.64,15.82ZM21.167,8.269c.184-.184.368-.368.553-.368a18.939,18.939,0,0,1-.184,3.131,13.6,13.6,0,0,1-2.21-.368A8.261,8.261,0,0,1,21.167,8.269Z" transform="translate(6.897 1.005)" fill="#fff"/>
    <path id="Pfad_244" data-name="Pfad 244" d="M29.3,12.724a7.555,7.555,0,0,1-2.026.184h0V9.593c0-2.578-.184-6.63,0-7.735A1.633,1.633,0,0,0,26.173.016a1.633,1.633,0,0,0-1.842,1.105c-.368,1.289-.184,4.42-.184,8.472v3.5H22.858a1.568,1.568,0,1,0-.184,3.131h1.658c.184,3.131.553,7.183.553,7.367a1.423,1.423,0,0,0,1.473,1.289h.184a1.292,1.292,0,0,0,1.289-1.658s-.368-3.868-.553-7.183c.737,0,1.473-.184,2.21-.184A1.434,1.434,0,0,0,30.777,14.2,1.453,1.453,0,0,0,29.3,12.724Z" transform="translate(9.414 0)" fill="#fff"/>
    <path id="Pfad_245" data-name="Pfad 245" d="M35.694,6.7c-.737,0-1.658.553-1.658,1.289-.553,4.788-2.026,6.262-3.131,6.814-1.105-1.842-.921-5.157-.553-6.446a1.59,1.59,0,0,0-3.131-.553c-.184.737-1.105,6.814,2.026,9.761a1.353,1.353,0,0,0,1.105.368h.368c3.683-.737,5.893-4.052,6.446-9.761A1.453,1.453,0,0,0,35.694,6.7Z" transform="translate(11.867 1.963)" fill="#fff"/>
    <path id="Pfad_246" data-name="Pfad 246" d="M44.588,9.175c-.553-3.315-3.131-5.525-5.893-5.157-2.394.368-7.551,3.315-4.973,23.021A1.563,1.563,0,0,0,35.2,28.328h.184a1.434,1.434,0,0,0,1.289-1.658c-.368-2.947-.553-5.525-.737-7.735C43.3,17.094,45.324,12.49,44.588,9.175ZM36.116,15.8c.368-6.446,2.026-8.472,3.131-8.656h.184c.921,0,2.026,1.105,2.21,2.578C42.009,11.753,40.72,14.332,36.116,15.8Z" transform="translate(14.211 -2.573)" fill="#fff"/>
  </g>
</svg>
