<svg xmlns="http://www.w3.org/2000/svg" width="17.018" height="25.775" viewBox="0 0 17.018 25.775">
  <path id="hackerstolz_icon" d="M14.413,16.2a2.6,2.6,0,1,0,0-5.21,2.631,2.631,0,0,0-2.555,2.034v.223h-.62v-.223h0a2.738,2.738,0,0,0-5.309-.174H4.044C6.2,10.866,5.755,7.542,5.755,7.542H15.6V.1L13.62,2.878V0L11.61,2.729V0L9.849,2.6H0V14.24a5.6,5.6,0,0,0,1.166-.124v4.341s1.712,1.439,4.614,3.4h0l6.475,3.92,2.555-5.185c.124-.223.248-.471.347-.695h0a5.7,5.7,0,0,0,.447-1.985v-.794l-1.513,2.258H9.973l-6.5-3.82-.744-1.885c.074-.025.124-.074.2-.1H5.805a2.735,2.735,0,0,0,5.408.571v-.248h.62v.273A2.681,2.681,0,0,0,14.413,16.2Zm-5.855-.372a2.233,2.233,0,1,1,2.233-2.233A2.239,2.239,0,0,1,8.559,15.827Zm5.855-4.366a2.109,2.109,0,1,1-2.084,2.406h0v-.645A2.091,2.091,0,0,1,14.413,11.461Z" fill="#fff"/>
</svg>
