<svg id="HackerStolz_Logo" data-name="HackerStolz Logo" xmlns="http://www.w3.org/2000/svg" width="258.032" height="48.176" viewBox="0 0 258.032 48.176">
  <g id="Gruppe_77" data-name="Gruppe 77" transform="translate(38.443 13.252)">
    <g id="Gruppe_76" data-name="Gruppe 76">
      <path id="Pfad_92" data-name="Pfad 92" d="M94.554,52.594V44.676H90.649v7.918H82.911V30.14h7.738v8.389h3.905V30.14h7.63V52.595Z" transform="translate(-82.911 -29.418)" fill="#fff"/>
      <path id="Pfad_93" data-name="Pfad 93" d="M137.218,47.4v-.65a.618.618,0,0,0-.687-.651,32.978,32.978,0,0,0-6.327,1.121l-1.121-5.713a39.4,39.4,0,0,1,9.293-1.229c4.52,0,6.183,1.663,6.183,5.1,0,2.169-.217,4.772-.217,7.232,0,.687.506.832,1.735.832l-.687,4.809c-1.085.072-1.916.145-2.928.145a5,5,0,0,1-3.833-1.41h-.253a6.464,6.464,0,0,1-4.411,1.41c-3.471,0-5.28-2.024-5.28-5.244C128.684,48.85,131.794,47.8,137.218,47.4Zm.217,5.243V51.272c-1.265.181-1.88.543-1.88,1.446,0,.651.253,1.013.831,1.013A.948.948,0,0,0,137.435,52.646Z" transform="translate(-107.461 -34.857)" fill="#fff"/>
      <path id="Pfad_94" data-name="Pfad 94" d="M176.675,52.935a19,19,0,0,0,3.652-.471l.8,5.027a18.066,18.066,0,0,1-5.352.9c-5.459,0-8.1-3.435-8.1-8.714,0-5.388,2.676-9.4,8.208-9.4a14.411,14.411,0,0,1,5.532.976l-.76,5.713a14,14,0,0,0-3.977-1.013c-1.157,0-1.446,1.3-1.446,3.471C175.229,51.777,175.482,52.935,176.675,52.935Z" transform="translate(-128.371 -34.856)" fill="#fff"/>
      <path id="Pfad_95" data-name="Pfad 95" d="M209.452,51.759l-2.1-5.677h-.144v5.677H199.8V30.088l7.412-1.506V40.514h.144l2.531-4.569,7.847-1.506-4.049,9c1.265,2.785,2.639,5.569,3.905,8.317h-8.137Z" transform="translate(-145.602 -28.582)" fill="#fff"/>
      <path id="Pfad_96" data-name="Pfad 96" d="M255.667,47.257a40.32,40.32,0,0,1-.29,4.05H246.3c.108,1.409.94,1.952,2.386,1.952a37.433,37.433,0,0,0,5.5-.76l.615,4.881a26.778,26.778,0,0,1-7.159,1.013c-5.858,0-8.932-3.471-8.932-8.932,0-5.857,2.965-9.184,8.967-9.184C253.75,40.278,255.667,43.062,255.667,47.257Zm-9.51.759h2.6v-.578c0-.868-.289-1.338-1.265-1.338C246.41,46.1,246.157,46.823,246.157,48.016Z" transform="translate(-166.471 -34.854)" fill="#fff"/>
      <path id="Pfad_97" data-name="Pfad 97" d="M286.548,58.241H279.1V40.921h6.436l.217,1.158h.144c1.121-1.049,2.351-1.411,5.279-1.411l-.217,6H288.5c-1.41,0-1.953.4-1.953,1.88v9.691Z" transform="translate(-188.134 -35.064)" fill="#fff"/>
      <path id="Pfad_98" data-name="Pfad 98" d="M322.989,30.085l-.831,6.365a39.022,39.022,0,0,0-5.858-.9c-.94,0-1.482.218-1.482.868,0,.543.578.651,1.41,1.012,2.423,1.086,7.376,2.314,7.376,7.449,0,4.954-2.892,7.665-8.389,7.665a29.536,29.536,0,0,1-7.7-.976l.508-6.111a29.589,29.589,0,0,0,6.544,1.228c.76,0,1.121-.253,1.121-.794s-.47-.76-1.229-1.121c-2.423-1.158-7.593-2.242-7.593-7.81,0-4.809,3.037-7.593,8.28-7.593A44.426,44.426,0,0,1,322.989,30.085Z" transform="translate(-203.025 -29)" fill="#fff"/>
      <path id="Pfad_99" data-name="Pfad 99" d="M345.736,50.687V42.841H343.82V37.96H346.1l.47-3.219h6.689V37.96h3.291v4.881h-3.326V49.53c0,.325.144.47.434.47.687,0,1.446-.072,2.856-.145l-.217,5.206a48.877,48.877,0,0,1-5.1.362C347.58,55.424,345.736,54.267,345.736,50.687Z" transform="translate(-222.846 -31.885)" fill="#fff"/>
      <path id="Pfad_100" data-name="Pfad 100" d="M390.809,49.065c0,6.653-2.531,9.328-8.569,9.328-6.147,0-8.786-2.749-8.786-9.075,0-6.4,2.784-9.04,8.786-9.04C388.169,40.279,390.809,42.919,390.809,49.065Zm-9.8-.145v.868c0,2.928.072,3.652,1.265,3.652.9,0,1.049-.687,1.049-3.472V48.956c0-2.639-.072-3.363-1.157-3.363C381.117,45.593,381.01,46.318,381.01,48.921Z" transform="translate(-238.74 -34.856)" fill="#fff"/>
      <path id="Pfad_101" data-name="Pfad 101" d="M414.545,30.088l7.413-1.506v17.03c0,.687.4.976,1.338.976l-.543,5.533h-2.965c-3.507,0-5.244-1.518-5.244-4.845V30.088Z" transform="translate(-260.778 -28.582)" fill="#fff"/>
      <path id="Pfad_102" data-name="Pfad 102" d="M435.1,58.534l-.181-4.086,5.677-7.557h-5.857V41.214h15.15l.217,3.8-5.532,8.135H449.5l-2.259,5.387Z" transform="translate(-271.611 -35.357)" fill="#fff"/>
    </g>
  </g>
  <path id="Pfad_103" data-name="Pfad 103" d="M15.893,30.511a5.124,5.124,0,0,0,5.15-4.6h1.052a4.818,4.818,0,1,0,0-1.329H21.042a5.2,5.2,0,0,0-10.078-.942H7.808c3.765-3.71,2.99-9.691,2.99-9.691H29.182V.055L25.472,5.26V0L21.707,5.094V0L18.44,4.873H0V26.636a12.343,12.343,0,0,0,2.16-.222V34.5s3.212,2.713,8.639,6.368l12.071,7.31,4.707-9.691c.222-.443.443-.886.664-1.274a10.555,10.555,0,0,0,.83-3.71v-1.5l-2.824,4.208h-7.7l-12.127-7.2L5.039,25.472c.166-.055.222-.166.388-.166L5.7,25.14h4.984v.166A5.164,5.164,0,0,0,15.893,30.511ZM26.912,21.43a3.931,3.931,0,1,1-3.931,3.931A3.947,3.947,0,0,1,26.912,21.43Zm-11.019-.277a4.208,4.208,0,1,1-4.208,4.208A4.207,4.207,0,0,1,15.893,21.153Z" fill="#fff"/>
  <g id="Gruppe_80" data-name="Gruppe 80" transform="translate(223.083 1.448)">
    <g id="Gruppe_78" data-name="Gruppe 78" transform="translate(7.515 31.879)">
      <path id="Pfad_104" data-name="Pfad 104" d="M505.413,73.863a.191.191,0,0,0-.095-.131,6.612,6.612,0,0,1-.711-.5,5.223,5.223,0,0,0-2.051-1.212,1.394,1.394,0,0,0-.727.2.952.952,0,0,1-.451.15.968.968,0,0,1-.432-.193,1.532,1.532,0,0,0-.747-.3c-.567-.035-1.389.616-2.051,1.159a7.533,7.533,0,0,1-.711.562.225.225,0,0,0-.095.158.31.31,0,0,0,.032.2c.172.3,1.745,2.792,4,2.657s3.83-2.35,4-2.59A.208.208,0,0,0,505.413,73.863Zm-4.035.632a2.671,2.671,0,0,1-1.316-.331,2.688,2.688,0,0,0,.286-.161.762.762,0,0,1,.357-.152.555.555,0,0,1,.309.1.679.679,0,0,0,.364.119.687.687,0,0,0,.364-.112.547.547,0,0,1,.309-.092.815.815,0,0,1,.357.153,2.625,2.625,0,0,0,.286.155A2.867,2.867,0,0,1,501.378,74.5Z" transform="translate(-497.339 -71.877)" fill="#fff"/>
    </g>
    <g id="Gruppe_79" data-name="Gruppe 79" transform="translate(1.58 18.677)">
      <path id="Pfad_105" data-name="Pfad 105" d="M513.534,53.939a4.149,4.149,0,1,1,4.149-4.149A4.147,4.147,0,0,1,513.534,53.939Z" transform="translate(-497.865 -44.603)" fill="none"/>
      <path id="Pfad_106" data-name="Pfad 106" d="M490.418,53.981a3.876,3.876,0,1,1,3.876-3.876A3.891,3.891,0,0,1,490.418,53.981Z" transform="translate(-485.614 -44.919)" fill="none"/>
      <path id="Pfad_107" data-name="Pfad 107" d="M505.341,48.536v-.164h1.733V46.9h-2.006a5.126,5.126,0,0,0-9.936.928h-1.037a4.86,4.86,0,1,0,0,1.31h1.037a5.122,5.122,0,0,0,10.209-.6Zm-12.12.054a3.876,3.876,0,1,1-3.876-3.876A3.891,3.891,0,0,1,493.221,48.59Zm11.138,0a4.149,4.149,0,1,1-4.149-4.149A4.147,4.147,0,0,1,504.358,48.59Z" transform="translate(-484.54 -43.404)" fill="#fff"/>
    </g>
    <path id="Pfad_108" data-name="Pfad 108" d="M481.956,24.494a.272.272,0,0,0,.124.365l.887.437A.3.3,0,0,0,483,25.3a4.847,4.847,0,0,0-.283,1.628,4.8,4.8,0,0,0,9.554.6H493.3a5.122,5.122,0,0,0,10.209-.6v-.164h4.913a10.918,10.918,0,0,0,5.556,1.474s6.377-11.182-3.107-20.357a17.335,17.335,0,0,0-20.19-2.671A12.88,12.88,0,0,0,488.38,6.9c-.988.115-4.511.865-6.51,5.756a8.944,8.944,0,0,0,.628,8.364l1.735-2.353s2.57.413,8.915-.546A58.3,58.3,0,0,0,503.4,15.739s-.764,5.9,2.948,9.554H503.24a4.946,4.946,0,0,0-.429-.952l.7-.354a.273.273,0,0,0-.247-.487l-.752.381a5.094,5.094,0,0,0-1.324-1.254l.629-1.031a.273.273,0,0,0-.466-.284l-.635,1.04a5.128,5.128,0,0,0-2.061-.544V20.618a.273.273,0,1,0-.546,0v1.2a5.151,5.151,0,0,0-2.167.593l-.626-.829a.273.273,0,0,0-.436.329l.593.785a5.057,5.057,0,0,0-2.168,3.527h-1.037a4.78,4.78,0,0,0-1.938-3.177l.578-.916a.273.273,0,0,0-.462-.291l-.577.915a4.763,4.763,0,0,0-2.351-.625H487.5l-.026-1.144a.284.284,0,0,0-.28-.267.273.273,0,0,0-.267.28l.027,1.164a4.787,4.787,0,0,0-1.829.593l-.576-.772a.273.273,0,0,0-.437.327l.555.743a4.753,4.753,0,0,0-1.468,1.754l-.884-.436A.272.272,0,0,0,481.956,24.494Zm12.276,2.492a4.149,4.149,0,1,1,4.149,4.149A4.147,4.147,0,0,1,494.232,26.985Zm-10.591,0a3.876,3.876,0,1,1,3.876,3.876A3.891,3.891,0,0,1,483.64,26.985Z" transform="translate(-481.132 -3.122)" fill="#fff"/>
  </g>
</svg>
