<svg xmlns="http://www.w3.org/2000/svg" width="176.718" height="47.952" viewBox="0 0 176.718 47.952">
  <g id="Stadt-Mannheim" transform="translate(0 -0.003)">
    <g id="Gruppe_81" data-name="Gruppe 81" transform="translate(167.373 0.003)">
      <path id="Pfad_109" data-name="Pfad 109" d="M515.464,7.827V6.245h-2.241c-.343,0-.871.053-.884.053,1.265-.83,2.61-1.819,2.61-3.177,0-1.331-1.107-1.925-2.8-1.925a4.255,4.255,0,0,0-2.8.989l.95,1.252a2.425,2.425,0,0,1,1.516-.659c.62,0,.975.264.975.765,0,.989-2.228,2.465-3.559,3.362v.923h6.222ZM507.729,0h9.344V9.348h-9.344V0Z" transform="translate(-507.729 -0.003)" fill="#fff" fill-rule="evenodd"/>
    </g>
    <g id="Gruppe_82" data-name="Gruppe 82" transform="translate(54.942 28.643)">
      <path id="Pfad_110" data-name="Pfad 110" d="M172.683,94.59h-.916l-.988-3.6c-.134-.481-.249-1.121-.249-1.121h-.018s-.134.632-.276,1.121l-1.041,3.6h-.925l-1.6-5.926h1.077l.863,3.479c.116.462.213,1.068.213,1.068h.018s.125-.632.249-1.086l.961-3.462h1l.943,3.444c.124.472.24,1.086.24,1.086h.018s.089-.587.213-1.067l.881-3.462h.97Z" transform="translate(-166.668 -88.077)" fill="#fff"/>
      <path id="Pfad_111" data-name="Pfad 111" d="M192.689,89.092a.605.605,0,1,1,.623-.605A.608.608,0,0,1,192.689,89.092Zm-.472,4.974V89.759h.952v4.307h-.952Z" transform="translate(-183.7 -87.552)" fill="#fff"/>
      <path id="Pfad_112" data-name="Pfad 112" d="M201.856,94.205a.79.79,0,0,0-.418-.089c-.579,0-.908.6-.988.757v2.794H199.5V93.36h.952v.623a1.339,1.339,0,0,1,1.112-.73,1.043,1.043,0,0,1,.525.107Z" transform="translate(-188.676 -91.153)" fill="#fff"/>
      <path id="Pfad_113" data-name="Pfad 113" d="M208.14,91.783v-.721h.694V89.825h.943v1.237h1.041v.721h-1.041V94.07c0,.427.115.623.463.623a1.119,1.119,0,0,0,.569-.178l.267.712a2.031,2.031,0,0,1-1.005.249,1.1,1.1,0,0,1-1.237-1.255V91.783h-.694Z" transform="translate(-194.469 -88.855)" fill="#fff"/>
      <path id="Pfad_114" data-name="Pfad 114" d="M219.85,97.781a2.5,2.5,0,0,1-1.45-.418l.347-.676a1.914,1.914,0,0,0,1.059.356c.489,0,.783-.178.783-.5,0-.338-.4-.454-1.023-.738s-1.059-.6-1.059-1.29c0-.748.578-1.264,1.495-1.264a2.383,2.383,0,0,1,1.335.374l-.374.659a1.686,1.686,0,0,0-.934-.294c-.436,0-.65.178-.65.472,0,.347.374.463.854.659.694.284,1.246.6,1.246,1.326C221.479,97.292,220.856,97.781,219.85,97.781Z" transform="translate(-201.346 -91.152)" fill="#fff"/>
      <path id="Pfad_115" data-name="Pfad 115" d="M231.757,97.774a2.265,2.265,0,0,1,.036-4.52,2.2,2.2,0,0,1,1.317.383l-.347.667a1.582,1.582,0,0,0-.952-.3c-.783,0-1.157.623-1.157,1.486s.374,1.531,1.174,1.531a1.81,1.81,0,0,0,.988-.3l.311.65A2.115,2.115,0,0,1,231.757,97.774Z" transform="translate(-208.893 -91.153)" fill="#fff"/>
      <path id="Pfad_116" data-name="Pfad 116" d="M245.4,93.614V90.766c0-.481-.169-.756-.658-.756a1.5,1.5,0,0,0-1.05.649v2.954h-.943V87.207h.943v2.66a1.768,1.768,0,0,1,1.37-.667,1.2,1.2,0,0,1,1.281,1.37v3.043H245.4Z" transform="translate(-217.672 -87.1)" fill="#fff"/>
      <path id="Pfad_117" data-name="Pfad 117" d="M259.13,97.667a4.049,4.049,0,0,1-.072-.489,1.594,1.594,0,0,1-1.245.6,1.164,1.164,0,0,1-1.264-1.192c0-1.121,1.2-1.5,2.3-1.5h.169v-.312c0-.454-.169-.738-.774-.738a1.716,1.716,0,0,0-1.1.436l-.445-.6a2.376,2.376,0,0,1,1.646-.605c1.067,0,1.619.454,1.619,1.522v1.753a5.432,5.432,0,0,0,.107,1.139Zm-.116-1.967h-.169c-.792,0-1.353.223-1.353.828a.516.516,0,0,0,.569.516,1.251,1.251,0,0,0,.952-.48Z" transform="translate(-226.92 -91.153)" fill="#fff"/>
      <path id="Pfad_118" data-name="Pfad 118" d="M270.842,93.4H269.9V89.81h-.685v-.721h.685v-.525a1.532,1.532,0,0,1,1.637-1.682,2.026,2.026,0,0,1,.9.16l-.231.747a1.418,1.418,0,0,0-.578-.116c-.525,0-.783.338-.783.961v.454h1.05v.721h-1.05V93.4Z" transform="translate(-235.409 -86.882)" fill="#fff"/>
      <path id="Pfad_119" data-name="Pfad 119" d="M278.608,91.783v-.721h.694V89.825h.943v1.237h1.041v.721h-1.041V94.07c0,.427.116.623.463.623a1.12,1.12,0,0,0,.57-.178l.267.712a2.032,2.032,0,0,1-1.006.249,1.1,1.1,0,0,1-1.237-1.255V91.783h-.694Z" transform="translate(-241.707 -88.855)" fill="#fff"/>
      <path id="Pfad_120" data-name="Pfad 120" d="M290.319,97.781a2.5,2.5,0,0,1-1.45-.418l.347-.676a1.916,1.916,0,0,0,1.059.356c.49,0,.783-.178.783-.5,0-.338-.4-.454-1.023-.738s-1.059-.6-1.059-1.29c0-.748.578-1.264,1.495-1.264a2.384,2.384,0,0,1,1.335.374l-.374.659a1.686,1.686,0,0,0-.934-.294c-.436,0-.65.178-.65.472,0,.347.374.463.854.659.694.284,1.246.6,1.246,1.326C291.948,97.292,291.325,97.781,290.319,97.781Z" transform="translate(-248.585 -91.152)" fill="#fff"/>
      <path id="Pfad_121" data-name="Pfad 121" d="M300.587,98.571v-.783h1.922v.783Z" transform="translate(-256.44 -94.193)" fill="#fff"/>
      <path id="Pfad_122" data-name="Pfad 122" d="M316.216,93.577v2.848c0,.481.169.756.658.756a1.493,1.493,0,0,0,1.041-.649V93.577h.943v3.212a5.081,5.081,0,0,0,.107,1.094h-.943a4.145,4.145,0,0,1-.08-.605,1.714,1.714,0,0,1-1.388.712,1.2,1.2,0,0,1-1.282-1.37V93.577Z" transform="translate(-266.285 -91.37)" fill="#fff"/>
      <path id="Pfad_123" data-name="Pfad 123" d="M332.721,97.667V94.819c0-.481-.169-.756-.658-.756a1.493,1.493,0,0,0-1.041.649v2.954h-.952V93.36H331v.579a1.758,1.758,0,0,1,1.379-.685,1.2,1.2,0,0,1,1.282,1.37v3.043h-.943Z" transform="translate(-276.204 -91.153)" fill="#fff"/>
      <path id="Pfad_124" data-name="Pfad 124" d="M345.7,89.236a1.539,1.539,0,0,1,1.041.338V87.26h.943v5.312a4.769,4.769,0,0,0,.125,1.077h-.935a2.249,2.249,0,0,1-.089-.481,1.543,1.543,0,0,1-1.228.587c-1.059,0-1.771-.81-1.771-2.251A2.021,2.021,0,0,1,345.7,89.236Zm.116,3.737a1.222,1.222,0,0,0,.925-.507V90.33a1.209,1.209,0,0,0-.872-.329c-.694,0-1.077.6-1.077,1.495S345.1,92.973,345.814,92.973Z" transform="translate(-285.398 -87.135)" fill="#fff"/>
      <path id="Pfad_125" data-name="Pfad 125" d="M168.915,126.879a2.631,2.631,0,0,1-1.762-.6l.454-.7a1.993,1.993,0,0,0,1.308.481c.658,0,1.059-.383,1.059-.828,0-.614-.65-.836-1.335-1.175-.73-.365-1.326-.774-1.326-1.735a1.655,1.655,0,0,1,1.833-1.584,2.624,2.624,0,0,1,1.655.489l-.436.712a2.088,2.088,0,0,0-1.183-.382c-.534,0-.9.276-.9.747,0,.516.472.721,1.077,1,.783.365,1.6.765,1.6,1.887C170.962,126.2,170.161,126.879,168.915,126.879Z" transform="translate(-166.993 -109.578)" fill="#fff"/>
      <path id="Pfad_126" data-name="Pfad 126" d="M180.491,124.183v-.721h.694v-1.237h.943v1.237h1.041v.721h-1.041v2.287c0,.427.116.623.463.623a1.12,1.12,0,0,0,.57-.178l.267.712a2.031,2.031,0,0,1-1.005.249,1.1,1.1,0,0,1-1.237-1.255v-2.438Z" transform="translate(-175.934 -110.575)" fill="#fff"/>
      <path id="Pfad_127" data-name="Pfad 127" d="M194.162,126.606a.789.789,0,0,0-.418-.089c-.579,0-.908.6-.988.757v2.794H191.8v-4.307h.952v.623a1.34,1.34,0,0,1,1.112-.73,1.043,1.043,0,0,1,.525.107Z" transform="translate(-183.518 -112.873)" fill="#fff"/>
      <path id="Pfad_128" data-name="Pfad 128" d="M202.628,125.978v2.848c0,.481.169.756.658.756a1.493,1.493,0,0,0,1.041-.649v-2.954h.943v3.212a5.08,5.08,0,0,0,.107,1.094h-.943a4.155,4.155,0,0,1-.08-.605,1.714,1.714,0,0,1-1.388.712,1.2,1.2,0,0,1-1.282-1.37v-3.043Z" transform="translate(-190.142 -113.09)" fill="#fff"/>
      <path id="Pfad_129" data-name="Pfad 129" d="M217.371,126.014h-.943v-6.407h.943v3.942l1.6-1.842h1.059l-1.682,1.913,1.744,2.394h-1.112l-1.611-2.287v2.287Z" transform="translate(-200.025 -108.819)" fill="#fff"/>
      <path id="Pfad_130" data-name="Pfad 130" d="M228.5,124.183v-.721h.694v-1.237h.943v1.237h1.041v.721h-1.041v2.287c0,.427.116.623.462.623a1.122,1.122,0,0,0,.57-.178l.267.712a2.03,2.03,0,0,1-1.005.249,1.1,1.1,0,0,1-1.237-1.255v-2.438Z" transform="translate(-208.115 -110.575)" fill="#fff"/>
      <path id="Pfad_131" data-name="Pfad 131" d="M240.643,125.978v2.848c0,.481.169.756.658.756a1.493,1.493,0,0,0,1.041-.649v-2.954h.943v3.212a5.081,5.081,0,0,0,.107,1.094h-.943a4.149,4.149,0,0,1-.08-.605,1.714,1.714,0,0,1-1.388.712,1.2,1.2,0,0,1-1.282-1.37v-3.043Z" transform="translate(-215.625 -113.09)" fill="#fff"/>
      <path id="Pfad_132" data-name="Pfad 132" d="M256.854,126.606a.791.791,0,0,0-.418-.089c-.579,0-.908.6-.988.757v2.794H254.5v-4.307h.952v.623a1.339,1.339,0,0,1,1.112-.73,1.043,1.043,0,0,1,.525.107Z" transform="translate(-225.543 -112.873)" fill="#fff"/>
      <path id="Pfad_133" data-name="Pfad 133" d="M264.658,125.8h-.943v-3.586h-.685v-.721h.685v-.525a1.532,1.532,0,0,1,1.637-1.682,2.026,2.026,0,0,1,.9.16l-.231.747a1.418,1.418,0,0,0-.578-.116c-.525,0-.783.338-.783.961v.454h1.05v.721h-1.05V125.8Z" transform="translate(-231.264 -108.602)" fill="#fff"/>
      <path id="Pfad_134" data-name="Pfad 134" d="M274.859,127.08a2.269,2.269,0,0,1-.018-4.521,2.265,2.265,0,0,1,.018,4.521Zm-.908-4.912a.565.565,0,1,1,.579-.57A.57.57,0,0,1,273.951,122.168Zm.872,1.13c-.765,0-1.05.65-1.05,1.5s.329,1.531,1.094,1.531,1.094-.641,1.094-1.5S275.6,123.3,274.823,123.3Zm.907-1.13a.565.565,0,1,1,.579-.57A.57.57,0,0,1,275.731,122.168Z" transform="translate(-237.798 -109.778)" fill="#fff"/>
      <path id="Pfad_135" data-name="Pfad 135" d="M290.713,126.606a.789.789,0,0,0-.418-.089c-.579,0-.908.6-.988.757v2.794h-.952v-4.307h.952v.623a1.339,1.339,0,0,1,1.112-.73,1.043,1.043,0,0,1,.525.107Z" transform="translate(-248.241 -112.873)" fill="#fff"/>
      <path id="Pfad_136" data-name="Pfad 136" d="M299.258,121.636a1.54,1.54,0,0,1,1.041.338V119.66h.943v5.312a4.776,4.776,0,0,0,.124,1.077h-.934a2.25,2.25,0,0,1-.089-.481,1.543,1.543,0,0,1-1.228.587c-1.059,0-1.771-.81-1.771-2.251A2.022,2.022,0,0,1,299.258,121.636Zm.116,3.737a1.223,1.223,0,0,0,.926-.507V122.73a1.211,1.211,0,0,0-.872-.329c-.694,0-1.077.6-1.077,1.495S298.662,125.373,299.373,125.373Z" transform="translate(-254.266 -108.855)" fill="#fff"/>
      <path id="Pfad_137" data-name="Pfad 137" d="M314.3,129.436a2.111,2.111,0,0,0,1.157-.338l.329.65a2.738,2.738,0,0,1-1.548.427,2.268,2.268,0,0,1-.116-4.521c1.264,0,1.913.916,1.779,2.4h-2.821C313.129,128.839,313.485,129.436,314.3,129.436Zm.685-2.055c-.018-.543-.249-1.006-.881-1.006-.579,0-.9.391-1,1.006Z" transform="translate(-264.15 -112.873)" fill="#fff"/>
      <path id="Pfad_138" data-name="Pfad 138" d="M329.105,126.606a.792.792,0,0,0-.418-.089c-.579,0-.908.6-.988.757v2.794h-.952v-4.307h.952v.623a1.34,1.34,0,0,1,1.113-.73,1.04,1.04,0,0,1,.525.107Z" transform="translate(-273.977 -112.873)" fill="#fff"/>
      <path id="Pfad_139" data-name="Pfad 139" d="M337.572,125.978v2.848c0,.481.169.756.659.756a1.493,1.493,0,0,0,1.041-.649v-2.954h.943v3.212a5.08,5.08,0,0,0,.107,1.094h-.943a4.186,4.186,0,0,1-.08-.605,1.713,1.713,0,0,1-1.388.712,1.2,1.2,0,0,1-1.281-1.37v-3.043Z" transform="translate(-280.601 -113.09)" fill="#fff"/>
      <path id="Pfad_140" data-name="Pfad 140" d="M354.078,130.067V127.22c0-.481-.169-.756-.659-.756a1.494,1.494,0,0,0-1.041.649v2.954h-.952v-4.307h.935v.579a1.757,1.757,0,0,1,1.379-.685,1.2,1.2,0,0,1,1.281,1.37v3.043Z" transform="translate(-290.52 -112.873)" fill="#fff"/>
      <path id="Pfad_141" data-name="Pfad 141" d="M369.29,125.76v.658h-.6a1.534,1.534,0,0,1,.223.81,1.593,1.593,0,0,1-1.806,1.566,2.966,2.966,0,0,1-.5-.045.362.362,0,0,0-.213.294c0,.231.258.294.756.32.916.045,2.127.027,2.127,1.326,0,.9-.979,1.495-2.26,1.495-1.086,0-1.815-.356-1.815-1.174a1.236,1.236,0,0,1,.73-1.077.7.7,0,0,1-.382-.649.877.877,0,0,1,.463-.748,1.449,1.449,0,0,1-.765-1.308,1.618,1.618,0,0,1,1.833-1.575,2.328,2.328,0,0,1,.73.107h1.485Zm-3.185,5.1c0,.374.285.658.961.658.774,0,1.255-.311,1.255-.747,0-.552-.5-.552-1.068-.587a5.586,5.586,0,0,1-.694-.062A.835.835,0,0,0,366.1,130.859Zm1.869-3.63a.9.9,0,1,0-.9.9A.839.839,0,0,0,367.973,127.228Z" transform="translate(-299.752 -112.872)" fill="#fff"/>
    </g>
    <g id="Gruppe_83" data-name="Gruppe 83" transform="translate(55.247 5.52)">
      <path id="Pfad_142" data-name="Pfad 142" d="M177.024,29.911l1.938-6.249c.277-.91.514-1.819.534-1.9h.039c.02.079.1.969.218,1.938l.732,6.21h3.263l-1.8-13.171h-3.105l-2.571,7.871c-.3.91-.613,2.116-.633,2.2h-.04c-.02-.079-.336-1.286-.613-2.2l-2.472-7.871h-3.1l-1.819,13.171h2.868l.771-6.19c.1-.87.158-1.918.158-1.958h.04c0,.04.257,1.068.514,1.9l1.938,6.249h3.144Z" transform="translate(-167.591 -16.74)" fill="#fff"/>
    </g>
    <g id="Gruppe_84" data-name="Gruppe 84" transform="translate(72.419 5.521)">
      <path id="Pfad_143" data-name="Pfad 143" d="M223.679,27.7h5l.791,2.215h3.481l-5.181-13.171h-3.065l-5.023,13.171h3.224l.771-2.215Zm4.113-2.532H224.55l.93-2.709c.375-1.108.652-2.235.672-2.294h.039c.02.059.257,1.167.653,2.294l.949,2.709Z" transform="translate(-219.685 -16.742)" fill="#fff" fill-rule="evenodd"/>
    </g>
    <g id="Gruppe_85" data-name="Gruppe 85" transform="translate(87.511 5.521)">
      <path id="Pfad_144" data-name="Pfad 144" d="M277.251,29.912V16.741h-2.888V23.03c0,1.029.06,1.978.079,2.156H274.4c-.079-.138-.593-1.088-1.443-2.314l-4.272-6.131h-3.224V29.912h2.888V23.05a18.058,18.058,0,0,0-.079-1.839h.039c.04.079.515.89,1.345,2.057l4.687,6.645Z" transform="translate(-265.464 -16.741)" fill="#fff" fill-rule="evenodd"/>
    </g>
    <g id="Gruppe_86" data-name="Gruppe 86" transform="translate(102.405 5.521)">
      <path id="Pfad_145" data-name="Pfad 145" d="M322.433,29.912V16.741h-2.887V23.03c0,1.029.059,1.978.079,2.156h-.04a27.187,27.187,0,0,0-1.444-2.314l-4.271-6.131h-3.224V29.912h2.887V23.05a18.068,18.068,0,0,0-.079-1.839h.04c.039.079.515.89,1.345,2.057l4.687,6.645Z" transform="translate(-310.647 -16.741)" fill="#fff" fill-rule="evenodd"/>
    </g>
    <g id="Gruppe_87" data-name="Gruppe 87" transform="translate(117.299 5.521)">
      <path id="Pfad_146" data-name="Pfad 146" d="M367.6,29.912V16.741h-3.164v5.043h-5.4V16.741h-3.2V29.912h3.2V24.395h5.4v5.517Z" transform="translate(-355.829 -16.741)" fill="#fff"/>
    </g>
    <g id="Gruppe_88" data-name="Gruppe 88" transform="translate(132.194 5.521)">
      <path id="Pfad_147" data-name="Pfad 147" d="M409.023,29.912V27.3h-4.846V24.355h4.153V21.922h-4.153V19.352h4.707V16.741h-7.87V29.912Z" transform="translate(-401.013 -16.741)" fill="#fff"/>
    </g>
    <g id="Gruppe_89" data-name="Gruppe 89" transform="translate(142.976 5.521)">
      <path id="Pfad_148" data-name="Pfad 148" d="M436.944,29.912V16.741H433.72V29.912Z" transform="translate(-433.72 -16.741)" fill="#fff"/>
    </g>
    <g id="Gruppe_90" data-name="Gruppe 90" transform="translate(148.731 5.52)">
      <path id="Pfad_149" data-name="Pfad 149" d="M460.611,29.911l1.938-6.249c.277-.91.515-1.819.534-1.9h.04c.02.079.1.969.218,1.938l.732,6.21h3.263l-1.8-13.171h-3.1l-2.571,7.871c-.3.91-.613,2.116-.633,2.2h-.04c-.019-.079-.336-1.286-.613-2.2L456.1,16.74H453l-1.819,13.171h2.867l.771-6.19c.1-.87.158-1.918.158-1.958h.039c0,.04.257,1.068.515,1.9l1.938,6.249h3.145Z" transform="translate(-451.178 -16.74)" fill="#fff"/>
    </g>
    <g id="Gruppe_91" data-name="Gruppe 91" transform="translate(0 5.282)">
      <path id="Pfad_150" data-name="Pfad 150" d="M3.738,29.665A5.4,5.4,0,0,1,0,28.32l.791-1.108A4.2,4.2,0,0,0,3.8,28.38a2.453,2.453,0,0,0,2.69-2.235c0-1.6-1.5-2.274-3.026-3.026C1.859,22.328.4,21.477.4,19.38c0-2.156,1.819-3.362,3.837-3.362a5.421,5.421,0,0,1,3.461,1.049l-.752,1.147a4.32,4.32,0,0,0-2.73-.91,2.074,2.074,0,0,0-2.294,2c0,1.305,1.068,1.918,2.373,2.532,1.741.831,3.758,1.721,3.758,4.292C8.05,28.2,6.29,29.665,3.738,29.665Z" transform="translate(0 -16.018)" fill="#fff"/>
      <path id="Pfad_151" data-name="Pfad 151" d="M33.8,18.043V29.91H32.238V18.043H28.5V16.738h9.039v1.305Z" transform="translate(-19.105 -16.501)" fill="#fff"/>
    </g>
    <g id="Gruppe_92" data-name="Gruppe 92" transform="translate(18.454 5.52)">
      <path id="Pfad_152" data-name="Pfad 152" d="M57.5,29.91H55.981l5.044-13.172h1.5L67.591,29.91H65.91L64.7,26.647H58.71Zm5.043-9.078c-.415-1.107-.593-1.661-.811-2.274H61.7c-.218.652-.435,1.266-.811,2.274L59.2,25.342h5Z" transform="translate(-55.981 -16.738)" fill="#fff"/>
      <path id="Pfad_153" data-name="Pfad 153" d="M101.087,29.91H98.1V16.738h3.085c5.182,0,7.456,2.631,7.456,6.428S106.348,29.91,101.087,29.91ZM101.126,18H99.643v10.64h1.582c3.8,0,5.8-1.879,5.8-5.439C107.02,19.625,105.141,18,101.126,18Z" transform="translate(-84.215 -16.738)" fill="#fff"/>
    </g>
    <g id="Gruppe_93" data-name="Gruppe 93" transform="translate(43.871 5.52)">
      <path id="Pfad_154" data-name="Pfad 154" d="M138.382,18.043V29.91H136.82V18.043h-3.738V16.738h9.038v1.305Z" transform="translate(-133.082 -16.738)" fill="#fff"/>
    </g>
  </g>
</svg>
