<svg xmlns="http://www.w3.org/2000/svg" width="674.326" height="48.035" viewBox="0 0 674.326 48.035">
  <g id="KIC_EU" data-name="KIC/EU" transform="translate(-1261.76 -1008.46)">
    <g id="logo" transform="translate(1261.76 1008.732)">
      <g id="Layer_1" data-name="Layer 1">
        <rect id="Rechteck_378" data-name="Rechteck 378" width="163.412" height="47.763" fill="#3369a9"/>
        <path id="Pfad_12" data-name="Pfad 12" d="M33.12,37.245a32.351,32.351,0,0,1-5.989.664c-6.586,0-8.021-4.148-8.021-11.306s1.3-11.472,8.021-11.472a32.492,32.492,0,0,1,5.989.672l-.091,1.709a38.481,38.481,0,0,0-5.715-.6c-5.35,0-6.147,3.384-6.147,9.689s.83,9.523,6.18,9.523a34.392,34.392,0,0,0,5.7-.606Z" transform="translate(-3.258 -2.58)" fill="#fff"/>
        <rect id="Rechteck_379" data-name="Rechteck 379" width="1.883" height="23.002" transform="translate(33.786 12.011)" fill="#fff"/>
        <path id="Pfad_13" data-name="Pfad 13" d="M49,15.33h1.883v2.389H49Zm0,6.362h1.883V37.619H49Z" transform="translate(-8.354 -2.614)" fill="#fff"/>
        <path id="Pfad_14" data-name="Pfad 14" d="M57,38.868V22.934h1.875v1.178a10.784,10.784,0,0,1,4.877-1.5c2.2,0,3.376.514,4.148,1.659a12.774,12.774,0,0,1,5.732-1.659c4.338,0,5.325,1.974,5.325,7.872V38.86h-1.85v-8.3c0-4.678-.506-6.238-3.666-6.238a10.568,10.568,0,0,0-4.828,1.352,17,17,0,0,1,.473,4.9v8.3H67.178V30.648c0-4.778-.514-6.3-3.633-6.3a10.029,10.029,0,0,0-4.654,1.335V38.868Z" transform="translate(-9.718 -3.855)" fill="#fff"/>
        <path id="Pfad_15" data-name="Pfad 15" d="M99.818,36.209c.1.954,1.02,1.277,2.074,1.4l-.1,1.526a4.488,4.488,0,0,1-3.6-1.269,17.312,17.312,0,0,1-5.989,1.3c-2.8,0-4.363-1.659-4.363-4.811,0-2.928,1.468-4.33,4.687-4.645l5.417-.547V27.673c0-2.422-1.087-3.318-3.127-3.318-2.289,0-6.014.473-6.014.473L88.7,23.3a39.949,39.949,0,0,1,6.18-.672c3.476,0,4.977,1.659,4.977,5.068Zm-7.067-4.977c-2.14.191-2.936,1.211-2.936,3.119,0,2.041.9,3.218,2.646,3.218a18.141,18.141,0,0,0,5.466-1.12V30.684Z" transform="translate(-14.976 -3.858)" fill="#fff"/>
        <path id="Pfad_16" data-name="Pfad 16" d="M110.662,23.636v7.872c0,3.982.249,4.977,2.547,4.977.888,0,2.928-.224,2.928-.224l.133,1.659a30.079,30.079,0,0,1-3.218.315c-3.16,0-4.305-1.178-4.305-5.807V23.636H106.39V21.977h2.356V17h1.916v4.977h5.359v1.659Z" transform="translate(-18.139 -2.898)" fill="#fff"/>
        <path id="Pfad_17" data-name="Pfad 17" d="M121.56,37.482v-23h1.875v8a14.425,14.425,0,0,1,5.168-1.244c4.363,0,5.317,2.041,5.317,7.872v8.378H132v-8.3c0-4.678-.506-6.238-3.658-6.238a13.844,13.844,0,0,0-4.911,1.078V37.482Z" transform="translate(-20.725 -2.469)" fill="#fff"/>
        <path id="Pfad_18" data-name="Pfad 18" d="M154.572,30.683c0,6.022-1.336,8.5-6.636,8.5s-6.686-2.489-6.686-8.5c0-5.641,1.75-8.063,6.686-8.063s6.636,2.422,6.636,8.063m-1.941,0c0-4.778-1.087-6.371-4.72-6.371S143.2,25.9,143.2,30.683s.572,6.819,4.712,6.819,4.745-1.949,4.745-6.819" transform="translate(-24.083 -3.857)" fill="#fff"/>
        <path id="Pfad_19" data-name="Pfad 19" d="M162.26,38.868V22.934h1.883v1.178a12.5,12.5,0,0,1,5.193-1.5c4.363,0,5.317,2.041,5.317,7.872V38.86h-1.908v-8.3c0-4.678-.514-6.238-3.7-6.238a11.713,11.713,0,0,0-4.9,1.336V38.852Z" transform="translate(-27.665 -3.855)" fill="#fff"/>
        <rect id="Rechteck_380" data-name="Rechteck 380" width="13.33" height="47.763" transform="translate(163.412)" fill="#9a9b9c"/>
        <rect id="Rechteck_381" data-name="Rechteck 381" width="0.846" height="0.846" transform="translate(216.99 18.639)" fill="#fff"/>
        <rect id="Rechteck_382" data-name="Rechteck 382" width="0.846" height="6.636" transform="translate(216.99 20.306)" fill="#fff"/>
        <path id="Pfad_20" data-name="Pfad 20" d="M264.334,22.47h.829v1.659h3.318v.83h-3.318v4.148a.83.83,0,0,0,.83.83h2.488v.83h-2.488a1.659,1.659,0,0,1-1.659-1.659V24.959H263.09v-.83h1.244Z" transform="translate(-44.856 -3.831)" fill="#fff" fill-rule="evenodd"/>
        <path id="Pfad_21" data-name="Pfad 21" d="M258.12,26.945h-5.541a1.659,1.659,0,0,1,.465-1.269,1.568,1.568,0,0,1,.829-.332,6.5,6.5,0,0,1,1.518-.108,6.852,6.852,0,0,1,1.518.108,1.659,1.659,0,0,1,.829.332,1.526,1.526,0,0,1,.44,1.269m-5.541.83h6.495a7.9,7.9,0,0,0-.124-1.659,2.489,2.489,0,0,0-.448-.946,1.966,1.966,0,0,0-1.054-.655,9.564,9.564,0,0,0-2.107-.166,9.738,9.738,0,0,0-2.124.166,1.858,1.858,0,0,0-1.037.655,1.916,1.916,0,0,0-.44.946,9.018,9.018,0,0,0,0,3.268,1.916,1.916,0,0,0,.44.946,1.858,1.858,0,0,0,1.037.655,8.785,8.785,0,0,0,2.124.166,8.626,8.626,0,0,0,2.107-.166,1.966,1.966,0,0,0,1.054-.655,2.2,2.2,0,0,0,.382-.713h-.987a2.882,2.882,0,0,1-.216.249,1.908,1.908,0,0,1-.829.34,9.274,9.274,0,0,1-1.518.083,8.792,8.792,0,0,1-1.518-.083,1.808,1.808,0,0,1-.829-.34,1.485,1.485,0,0,1-.44-1.053c0-.332,0-.713,0-1.053" transform="translate(-42.905 -4.151)" fill="#fff"/>
        <path id="Pfad_22" data-name="Pfad 22" d="M257.531,40.342a14.931,14.931,0,0,0,0-29.862,14.715,14.715,0,0,0-7.466,2l.83,1.435a13.131,13.131,0,0,1,6.636-1.767,13.272,13.272,0,1,1-13.272,13.272H242.6A14.931,14.931,0,0,0,257.531,40.35" transform="translate(-41.362 -1.787)" fill="#fff" fill-rule="evenodd"/>
        <path id="Pfad_23" data-name="Pfad 23" d="M258.212,37.716a11.613,11.613,0,0,0,10.054-5.807l-1.435-.83a9.954,9.954,0,1,1,0-9.954l1.435-.83a11.613,11.613,0,1,0-10.054,17.42" transform="translate(-42.043 -2.47)" fill="#fff" fill-rule="evenodd"/>
        <path id="Pfad_24" data-name="Pfad 24" d="M290.316,28.848h.83a8.549,8.549,0,0,1-.108,1.244,1.161,1.161,0,0,1-.987.912,15,15,0,0,1-2.389.133,18.083,18.083,0,0,1-3-.158,1.269,1.269,0,0,1-1-.78,6.827,6.827,0,0,1-.257-2.3,10.11,10.11,0,0,1,.191-2.306,1.319,1.319,0,0,1,1.2-.987,18.922,18.922,0,0,1,2.737-.141,12.311,12.311,0,0,1,2.489.166,1.46,1.46,0,0,1,.639.324,1.045,1.045,0,0,1,.34.556,6.293,6.293,0,0,1,.083,1.161h-.83v-.224a1.832,1.832,0,0,0-.091-.68.622.622,0,0,0-.365-.307,7.822,7.822,0,0,0-2.289-.2,15.538,15.538,0,0,0-1.966.066,1.974,1.974,0,0,0-.83.224,1.12,1.12,0,0,0-.282.647,7.994,7.994,0,0,0-.091,1.352,10.476,10.476,0,0,0,.041,1.053c.041.431.041.722.066.888a.887.887,0,0,0,.241.556,1.045,1.045,0,0,0,.606.207,20.365,20.365,0,0,0,2.157.083h1.12a6.215,6.215,0,0,0,.879-.058,1.436,1.436,0,0,0,.548-.141.5.5,0,0,0,.249-.3,4.148,4.148,0,0,0,.083-.971" transform="translate(-48.316 -4.17)" fill="#fff"/>
        <rect id="Rechteck_383" data-name="Rechteck 383" width="0.73" height="6.636" transform="translate(243.775 20.315)" fill="#fff"/>
        <path id="Pfad_25" data-name="Pfad 25" d="M295.92,24.49h.73v.83h-.73Zm0,2.024h.73v4.612h-.73Z" transform="translate(-50.453 -4.175)" fill="#fff"/>
        <path id="Pfad_26" data-name="Pfad 26" d="M298.1,26.916h.747v.606a1.592,1.592,0,0,1,.688-.539,4.073,4.073,0,0,1,1.2-.124,5.45,5.45,0,0,1,1.659.166,1.352,1.352,0,0,1,.763.63,1.211,1.211,0,0,1,.688-.622,4.463,4.463,0,0,1,1.46-.174,6.553,6.553,0,0,1,1.41.116,1.593,1.593,0,0,1,.763.44,1.359,1.359,0,0,1,.29.564,6.546,6.546,0,0,1,.066,1.12v2.43h-.73v-2.6a1.659,1.659,0,0,0-.249-1.1,2.414,2.414,0,0,0-1.56-.332,4.869,4.869,0,0,0-1.062.091,1.045,1.045,0,0,0-.547.315,1.136,1.136,0,0,0-.257.589,6.914,6.914,0,0,0-.075,1.211v1.825h-.722v-2.6a3.709,3.709,0,0,0-.058-.73.688.688,0,0,0-.2-.365,2.431,2.431,0,0,0-1.568-.34,4.976,4.976,0,0,0-1.07.091,1.128,1.128,0,0,0-.581.324,1.037,1.037,0,0,0-.232.547,8.442,8.442,0,0,0-.058,1.244v1.825h-.73Z" transform="translate(-50.825 -4.578)" fill="#fff"/>
        <path id="Pfad_27" data-name="Pfad 27" d="M311.48,28.3h-.755v-.2a.987.987,0,0,1,.547-.987,5.342,5.342,0,0,1,2.041-.265,8.966,8.966,0,0,1,1.659.108,1.543,1.543,0,0,1,.83.406,1.154,1.154,0,0,1,.315.572,6.088,6.088,0,0,1,.075,1.161v2.43h-.722v-.539h0a1.186,1.186,0,0,1-.655.481,6.03,6.03,0,0,1-1.443.116,11.323,11.323,0,0,1-1.659-.058,1.468,1.468,0,0,1-.713-.249.9.9,0,0,1-.34-.415,1.868,1.868,0,0,1-.1-.68,1.817,1.817,0,0,1,.149-.83.92.92,0,0,1,.481-.431,5.566,5.566,0,0,1,1.725-.158,12.327,12.327,0,0,1,1.858.083,1.053,1.053,0,0,1,.672.415h.066v-.5a1.335,1.335,0,0,0-.224-.871.912.912,0,0,0-.589-.324,6.636,6.636,0,0,0-1.294-.091,5.152,5.152,0,0,0-1.526.141.572.572,0,0,0-.348.606Zm1.866,1.161h-1.261a1.22,1.22,0,0,0-.506.116.68.68,0,0,0-.29.63.606.606,0,0,0,.34.606,6.719,6.719,0,0,0,1.866.133,4.977,4.977,0,0,0,1.576-.158.6.6,0,0,0,.373-.614.58.58,0,0,0-.415-.6,5.458,5.458,0,0,0-1.659-.158" transform="translate(-52.949 -4.576)" fill="#fff"/>
        <path id="Pfad_28" data-name="Pfad 28" d="M318.761,25.55h.73v1.145h3.227v.622h-3.227v2.829a.722.722,0,0,0,.141.29.829.829,0,0,0,.406.241,3.815,3.815,0,0,0,.829.066,2.538,2.538,0,0,0,.713-.066.6.6,0,0,0,.348-.249.68.68,0,0,0,.108-.3,4.875,4.875,0,0,0,0-.6v-.29h.73v.29a4.64,4.64,0,0,1-.058.83,1.211,1.211,0,0,1-.191.489,1.145,1.145,0,0,1-.606.431,3.949,3.949,0,0,1-1.128.133,4.239,4.239,0,0,1-1.17-.124,1.186,1.186,0,0,1-.63-.4,1.1,1.1,0,0,1-.2-.473,3.915,3.915,0,0,1-.058-.83V27.35H317.6v-.622h1.161Z" transform="translate(-54.15 -4.356)" fill="#fff"/>
        <path id="Pfad_29" data-name="Pfad 29" d="M329.589,30.1h.763a1.253,1.253,0,0,1-.581,1.153,4.222,4.222,0,0,1-1.966.332,12.906,12.906,0,0,1-1.75-.091,2.165,2.165,0,0,1-.912-.307,2.273,2.273,0,0,1-.7-1.958,3.176,3.176,0,0,1,.3-1.543,1.41,1.41,0,0,1,.829-.664,6.728,6.728,0,0,1,1.775-.166,8.3,8.3,0,0,1,1.7.116,1.585,1.585,0,0,1,.83.481,1.742,1.742,0,0,1,.365.705,5.978,5.978,0,0,1,.1,1.211h-5.135a1.85,1.85,0,0,0,.34,1.186,1.269,1.269,0,0,0,.672.3,10.461,10.461,0,0,0,1.493.075,6.246,6.246,0,0,0,1.145-.075.945.945,0,0,0,.547-.265.829.829,0,0,0,.166-.5m0-1.344a1.112,1.112,0,0,0-.357-.937,1.443,1.443,0,0,0-.655-.257,8.9,8.9,0,0,0-1.228-.066,6.942,6.942,0,0,0-1.087.066,1.2,1.2,0,0,0-.581.232,1.261,1.261,0,0,0-.4.962Z" transform="translate(-55.313 -4.578)" fill="#fff"/>
        <rect id="Rechteck_384" data-name="Rechteck 384" width="3.899" height="0.863" transform="translate(275.57 24.163)" fill="#fff"/>
        <path id="Pfad_30" data-name="Pfad 30" d="M337.51,24.49h.879v2.853h1.153l4.305-2.853h1.543l-4.927,3.235,5.184,3.4h-1.559l-4.546-3h-1.153v3h-.879Z" transform="translate(-57.544 -4.175)" fill="#fff"/>
        <rect id="Rechteck_385" data-name="Rechteck 385" width="0.888" height="6.636" transform="translate(288.543 20.315)" fill="#fff"/>
        <path id="Pfad_31" data-name="Pfad 31" d="M356.826,28.848h.829a8.558,8.558,0,0,1-.108,1.244,1.161,1.161,0,0,1-.987.912,15,15,0,0,1-2.389.133,18.008,18.008,0,0,1-3-.158,1.269,1.269,0,0,1-1-.78,6.827,6.827,0,0,1-.257-2.3A10.111,10.111,0,0,1,350.1,25.6a1.319,1.319,0,0,1,1.2-.987,18.923,18.923,0,0,1,2.737-.141,12.31,12.31,0,0,1,2.488.166,1.46,1.46,0,0,1,.639.324,1.045,1.045,0,0,1,.34.556,6.287,6.287,0,0,1,.083,1.161h-.829v-.224a1.659,1.659,0,0,0-.1-.68.581.581,0,0,0-.357-.307,7.822,7.822,0,0,0-2.289-.2,15.537,15.537,0,0,0-1.966.066,1.974,1.974,0,0,0-.83.224,1.12,1.12,0,0,0-.282.647,7.991,7.991,0,0,0-.091,1.352c0,.265,0,.622,0,1.053a5.358,5.358,0,0,0,.075.888.888.888,0,0,0,.241.556,1.045,1.045,0,0,0,.605.207,20.362,20.362,0,0,0,2.157.083h1.12a6.215,6.215,0,0,0,.879-.058,1.435,1.435,0,0,0,.547-.141.5.5,0,0,0,.249-.3,4.749,4.749,0,0,0,.083-.971" transform="translate(-59.656 -4.17)" fill="#fff"/>
      </g>
    </g>
    <g id="europe_logo" transform="translate(1864.033 1008.46)">
      <rect id="Rechteck_386" data-name="Rechteck 386" width="72.053" height="48.035" fill="#039"/>
      <g id="Gruppe_75" data-name="Gruppe 75" transform="translate(17.084 5.337)">
        <g id="Gruppe_7" data-name="Gruppe 7" transform="translate(16.012 0)">
          <g id="c" transform="translate(1.661 0)">
            <path id="t" d="M0,0V2.669H1.334Z" transform="translate(1.269 0) rotate(18)" fill="#fc0"/>
            <path id="Pfad_32" data-name="Pfad 32" d="M0,2.669V0H1.334Z" transform="translate(2.094 2.538) rotate(162)" fill="#fc0"/>
          </g>
          <g id="a" transform="translate(1.738 0.637)">
            <g id="Gruppe_2" data-name="Gruppe 2" transform="translate(3.338 0) rotate(72)">
              <path id="t-2" data-name="t" d="M0,0V2.669H1.334Z" transform="translate(1.269 0) rotate(18)" fill="#fc0"/>
              <path id="Pfad_33" data-name="Pfad 33" d="M0,2.669V0H1.334Z" transform="translate(2.094 2.538) rotate(162)" fill="#fc0"/>
            </g>
            <g id="Gruppe_3" data-name="Gruppe 3" transform="matrix(-0.809, 0.588, -0.588, -0.809, 3.787, 3.445)">
              <path id="t-3" data-name="t" d="M0,0V2.669H1.334Z" transform="translate(1.269 0) rotate(18)" fill="#fc0"/>
              <path id="Pfad_34" data-name="Pfad 34" d="M0,2.669V0H1.334Z" transform="translate(2.094 2.538) rotate(162)" fill="#fc0"/>
            </g>
          </g>
          <g id="Gruppe_6" data-name="Gruppe 6" transform="translate(4.122 5.573) rotate(180)">
            <g id="Gruppe_4" data-name="Gruppe 4" transform="translate(0.532 4.025) rotate(-72)">
              <path id="t-4" data-name="t" d="M0,2.669V0H1.334Z" transform="translate(0.444 0.412) rotate(-18)" fill="#fc0"/>
              <path id="Pfad_35" data-name="Pfad 35" d="M0,0V2.669H1.334Z" transform="translate(1.269 2.95) rotate(-162)" fill="#fc0"/>
            </g>
            <g id="Gruppe_5" data-name="Gruppe 5" transform="matrix(-0.809, -0.588, 0.588, -0.809, 2.053, 3.879)">
              <path id="t-5" data-name="t" d="M0,2.669V0H1.334Z" transform="translate(0.444 0.412) rotate(-18)" fill="#fc0"/>
              <path id="Pfad_36" data-name="Pfad 36" d="M0,0V2.669H1.334Z" transform="translate(1.269 2.95) rotate(-162)" fill="#fc0"/>
            </g>
          </g>
        </g>
        <g id="Gruppe_13" data-name="Gruppe 13" transform="translate(16.012 32.023)">
          <g id="c-2" data-name="c" transform="translate(1.661 0)">
            <path id="t-6" data-name="t" d="M0,0V2.669H1.334Z" transform="translate(1.269 0) rotate(18)" fill="#fc0"/>
            <path id="Pfad_37" data-name="Pfad 37" d="M0,2.669V0H1.334Z" transform="translate(2.094 2.538) rotate(162)" fill="#fc0"/>
          </g>
          <g id="a-2" data-name="a" transform="translate(1.738 0.637)">
            <g id="Gruppe_8" data-name="Gruppe 8" transform="translate(3.338 0) rotate(72)">
              <path id="t-7" data-name="t" d="M0,0V2.669H1.334Z" transform="translate(1.269 0) rotate(18)" fill="#fc0"/>
              <path id="Pfad_38" data-name="Pfad 38" d="M0,2.669V0H1.334Z" transform="translate(2.094 2.538) rotate(162)" fill="#fc0"/>
            </g>
            <g id="Gruppe_9" data-name="Gruppe 9" transform="matrix(-0.809, 0.588, -0.588, -0.809, 3.787, 3.445)">
              <path id="t-8" data-name="t" d="M0,0V2.669H1.334Z" transform="translate(1.269 0) rotate(18)" fill="#fc0"/>
              <path id="Pfad_39" data-name="Pfad 39" d="M0,2.669V0H1.334Z" transform="translate(2.094 2.538) rotate(162)" fill="#fc0"/>
            </g>
          </g>
          <g id="Gruppe_12" data-name="Gruppe 12" transform="translate(4.122 5.573) rotate(180)">
            <g id="Gruppe_10" data-name="Gruppe 10" transform="translate(0.532 4.025) rotate(-72)">
              <path id="t-9" data-name="t" d="M0,2.669V0H1.334Z" transform="translate(0.444 0.412) rotate(-18)" fill="#fc0"/>
              <path id="Pfad_40" data-name="Pfad 40" d="M0,0V2.669H1.334Z" transform="translate(1.269 2.95) rotate(-162)" fill="#fc0"/>
            </g>
            <g id="Gruppe_11" data-name="Gruppe 11" transform="matrix(-0.809, -0.588, 0.588, -0.809, 2.053, 3.879)">
              <path id="t-10" data-name="t" d="M0,2.669V0H1.334Z" transform="translate(0.444 0.412) rotate(-18)" fill="#fc0"/>
              <path id="Pfad_41" data-name="Pfad 41" d="M0,0V2.669H1.334Z" transform="translate(1.269 2.95) rotate(-162)" fill="#fc0"/>
            </g>
          </g>
        </g>
        <g id="l" transform="translate(0 0.741)">
          <g id="Gruppe_19" data-name="Gruppe 19" transform="translate(0 15.27)">
            <g id="c-3" data-name="c" transform="translate(1.661 0)">
              <path id="t-11" data-name="t" d="M0,0V2.669H1.334Z" transform="translate(1.269 0) rotate(18)" fill="#fc0"/>
              <path id="Pfad_42" data-name="Pfad 42" d="M0,2.669V0H1.334Z" transform="translate(2.094 2.538) rotate(162)" fill="#fc0"/>
            </g>
            <g id="a-3" data-name="a" transform="translate(1.738 0.637)">
              <g id="Gruppe_14" data-name="Gruppe 14" transform="translate(3.338 0) rotate(72)">
                <path id="t-12" data-name="t" d="M0,0V2.669H1.334Z" transform="translate(1.269 0) rotate(18)" fill="#fc0"/>
                <path id="Pfad_43" data-name="Pfad 43" d="M0,2.669V0H1.334Z" transform="translate(2.094 2.538) rotate(162)" fill="#fc0"/>
              </g>
              <g id="Gruppe_15" data-name="Gruppe 15" transform="matrix(-0.809, 0.588, -0.588, -0.809, 3.787, 3.445)">
                <path id="t-13" data-name="t" d="M0,0V2.669H1.334Z" transform="translate(1.269 0) rotate(18)" fill="#fc0"/>
                <path id="Pfad_44" data-name="Pfad 44" d="M0,2.669V0H1.334Z" transform="translate(2.094 2.538) rotate(162)" fill="#fc0"/>
              </g>
            </g>
            <g id="Gruppe_18" data-name="Gruppe 18" transform="translate(4.122 5.573) rotate(180)">
              <g id="Gruppe_16" data-name="Gruppe 16" transform="translate(0.532 4.025) rotate(-72)">
                <path id="t-14" data-name="t" d="M0,2.669V0H1.334Z" transform="translate(0.444 0.412) rotate(-18)" fill="#fc0"/>
                <path id="Pfad_45" data-name="Pfad 45" d="M0,0V2.669H1.334Z" transform="translate(1.269 2.95) rotate(-162)" fill="#fc0"/>
              </g>
              <g id="Gruppe_17" data-name="Gruppe 17" transform="matrix(-0.809, -0.588, 0.588, -0.809, 2.053, 3.879)">
                <path id="t-15" data-name="t" d="M0,2.669V0H1.334Z" transform="translate(0.444 0.412) rotate(-18)" fill="#fc0"/>
                <path id="Pfad_46" data-name="Pfad 46" d="M0,0V2.669H1.334Z" transform="translate(1.269 2.95) rotate(-162)" fill="#fc0"/>
              </g>
            </g>
          </g>
          <g id="Gruppe_25" data-name="Gruppe 25" transform="matrix(-0.809, -0.588, 0.588, -0.809, 11.738, 7.954)">
            <g id="c-4" data-name="c" transform="translate(1.661 0)">
              <path id="t-16" data-name="t" d="M0,0V2.669H1.334Z" transform="translate(1.269 0) rotate(18)" fill="#fc0"/>
              <path id="Pfad_47" data-name="Pfad 47" d="M0,2.669V0H1.334Z" transform="translate(2.094 2.538) rotate(162)" fill="#fc0"/>
            </g>
            <g id="a-4" data-name="a" transform="translate(1.738 0.637)">
              <g id="Gruppe_20" data-name="Gruppe 20" transform="translate(3.338 0) rotate(72)">
                <path id="t-17" data-name="t" d="M0,0V2.669H1.334Z" transform="translate(1.269 0) rotate(18)" fill="#fc0"/>
                <path id="Pfad_48" data-name="Pfad 48" d="M0,2.669V0H1.334Z" transform="translate(2.094 2.538) rotate(162)" fill="#fc0"/>
              </g>
              <g id="Gruppe_21" data-name="Gruppe 21" transform="matrix(-0.809, 0.588, -0.588, -0.809, 3.788, 3.445)">
                <path id="t-18" data-name="t" d="M0,0V2.669H1.334Z" transform="translate(1.269 0) rotate(18)" fill="#fc0"/>
                <path id="Pfad_49" data-name="Pfad 49" d="M0,2.669V0H1.334Z" transform="translate(2.094 2.538) rotate(162)" fill="#fc0"/>
              </g>
            </g>
            <g id="Gruppe_24" data-name="Gruppe 24" transform="translate(4.122 5.574) rotate(180)">
              <g id="Gruppe_22" data-name="Gruppe 22" transform="translate(0.532 4.025) rotate(-72)">
                <path id="t-19" data-name="t" d="M0,2.669V0H1.334Z" transform="translate(0.444 0.412) rotate(-18)" fill="#fc0"/>
                <path id="Pfad_50" data-name="Pfad 50" d="M0,0V2.669H1.334Z" transform="translate(1.269 2.95) rotate(-162)" fill="#fc0"/>
              </g>
              <g id="Gruppe_23" data-name="Gruppe 23" transform="matrix(-0.809, -0.588, 0.588, -0.809, 2.053, 3.879)">
                <path id="t-20" data-name="t" d="M0,2.669V0H1.334Z" transform="translate(0.444 0.412) rotate(-18)" fill="#fc0"/>
                <path id="Pfad_51" data-name="Pfad 51" d="M0,0V2.669H1.334Z" transform="translate(1.269 2.95) rotate(-162)" fill="#fc0"/>
              </g>
            </g>
          </g>
          <g id="Gruppe_31" data-name="Gruppe 31" transform="matrix(-0.809, 0.588, -0.588, -0.809, 9.014, 10.37)">
            <g id="c-5" data-name="c" transform="translate(1.661 0)">
              <path id="t-21" data-name="t" d="M0,0V2.669H1.334Z" transform="translate(1.269 0) rotate(18)" fill="#fc0"/>
              <path id="Pfad_52" data-name="Pfad 52" d="M0,2.669V0H1.334Z" transform="translate(2.094 2.538) rotate(162)" fill="#fc0"/>
            </g>
            <g id="a-5" data-name="a" transform="translate(1.738 0.637)">
              <g id="Gruppe_26" data-name="Gruppe 26" transform="translate(3.338 0) rotate(72)">
                <path id="t-22" data-name="t" d="M0,0V2.669H1.334Z" transform="translate(1.269 0) rotate(18)" fill="#fc0"/>
                <path id="Pfad_53" data-name="Pfad 53" d="M0,2.669V0H1.334Z" transform="translate(2.094 2.538) rotate(162)" fill="#fc0"/>
              </g>
              <g id="Gruppe_27" data-name="Gruppe 27" transform="matrix(-0.809, 0.588, -0.588, -0.809, 3.788, 3.445)">
                <path id="t-23" data-name="t" d="M0,0V2.669H1.334Z" transform="translate(1.269 0) rotate(18)" fill="#fc0"/>
                <path id="Pfad_54" data-name="Pfad 54" d="M0,2.669V0H1.334Z" transform="translate(2.094 2.538) rotate(162)" fill="#fc0"/>
              </g>
            </g>
            <g id="Gruppe_30" data-name="Gruppe 30" transform="translate(4.122 5.574) rotate(180)">
              <g id="Gruppe_28" data-name="Gruppe 28" transform="translate(0.532 4.025) rotate(-72)">
                <path id="t-24" data-name="t" d="M0,2.669V0H1.334Z" transform="translate(0.444 0.412) rotate(-18)" fill="#fc0"/>
                <path id="Pfad_55" data-name="Pfad 55" d="M0,0V2.669H1.334Z" transform="translate(1.269 2.95) rotate(-162)" fill="#fc0"/>
              </g>
              <g id="Gruppe_29" data-name="Gruppe 29" transform="matrix(-0.809, -0.588, 0.588, -0.809, 2.053, 3.879)">
                <path id="t-25" data-name="t" d="M0,2.669V0H1.334Z" transform="translate(0.444 0.412) rotate(-18)" fill="#fc0"/>
                <path id="Pfad_56" data-name="Pfad 56" d="M0,0V2.669H1.334Z" transform="translate(1.269 2.95) rotate(-162)" fill="#fc0"/>
              </g>
            </g>
          </g>
          <g id="Gruppe_37" data-name="Gruppe 37" transform="translate(6.708 22.333) rotate(72)">
            <g id="c-6" data-name="c" transform="translate(1.661 0)">
              <path id="t-26" data-name="t" d="M0,0V2.669H1.334Z" transform="translate(1.269 0) rotate(18)" fill="#fc0"/>
              <path id="Pfad_57" data-name="Pfad 57" d="M0,2.669V0H1.334Z" transform="translate(2.094 2.538) rotate(162)" fill="#fc0"/>
            </g>
            <g id="a-6" data-name="a" transform="translate(1.738 0.637)">
              <g id="Gruppe_32" data-name="Gruppe 32" transform="translate(3.338 0) rotate(72)">
                <path id="t-27" data-name="t" d="M0,0V2.669H1.334Z" transform="translate(1.269 0) rotate(18)" fill="#fc0"/>
                <path id="Pfad_58" data-name="Pfad 58" d="M0,2.669V0H1.334Z" transform="translate(2.094 2.538) rotate(162)" fill="#fc0"/>
              </g>
              <g id="Gruppe_33" data-name="Gruppe 33" transform="matrix(-0.809, 0.588, -0.588, -0.809, 3.788, 3.445)">
                <path id="t-28" data-name="t" d="M0,0V2.669H1.334Z" transform="translate(1.269 0) rotate(18)" fill="#fc0"/>
                <path id="Pfad_59" data-name="Pfad 59" d="M0,2.669V0H1.334Z" transform="translate(2.094 2.538) rotate(162)" fill="#fc0"/>
              </g>
            </g>
            <g id="Gruppe_36" data-name="Gruppe 36" transform="translate(4.122 5.574) rotate(180)">
              <g id="Gruppe_34" data-name="Gruppe 34" transform="translate(0.532 4.025) rotate(-72)">
                <path id="t-29" data-name="t" d="M0,2.669V0H1.334Z" transform="translate(0.444 0.412) rotate(-18)" fill="#fc0"/>
                <path id="Pfad_60" data-name="Pfad 60" d="M0,0V2.669H1.334Z" transform="translate(1.269 2.95) rotate(-162)" fill="#fc0"/>
              </g>
              <g id="Gruppe_35" data-name="Gruppe 35" transform="matrix(-0.809, -0.588, 0.588, -0.809, 2.053, 3.879)">
                <path id="t-30" data-name="t" d="M0,2.669V0H1.334Z" transform="translate(0.444 0.412) rotate(-18)" fill="#fc0"/>
                <path id="Pfad_61" data-name="Pfad 61" d="M0,0V2.669H1.334Z" transform="translate(1.269 2.95) rotate(-162)" fill="#fc0"/>
              </g>
            </g>
          </g>
          <g id="Gruppe_43" data-name="Gruppe 43" transform="translate(12.569 28.194) rotate(72)">
            <g id="c-7" data-name="c" transform="translate(1.661 0)">
              <path id="t-31" data-name="t" d="M0,0V2.669H1.334Z" transform="translate(1.269 0) rotate(18)" fill="#fc0"/>
              <path id="Pfad_62" data-name="Pfad 62" d="M0,2.669V0H1.334Z" transform="translate(2.094 2.538) rotate(162)" fill="#fc0"/>
            </g>
            <g id="a-7" data-name="a" transform="translate(1.738 0.637)">
              <g id="Gruppe_38" data-name="Gruppe 38" transform="translate(3.338 0) rotate(72)">
                <path id="t-32" data-name="t" d="M0,0V2.669H1.334Z" transform="translate(1.269 0) rotate(18)" fill="#fc0"/>
                <path id="Pfad_63" data-name="Pfad 63" d="M0,2.669V0H1.334Z" transform="translate(2.094 2.538) rotate(162)" fill="#fc0"/>
              </g>
              <g id="Gruppe_39" data-name="Gruppe 39" transform="matrix(-0.809, 0.588, -0.588, -0.809, 3.788, 3.445)">
                <path id="t-33" data-name="t" d="M0,0V2.669H1.334Z" transform="translate(1.269 0) rotate(18)" fill="#fc0"/>
                <path id="Pfad_64" data-name="Pfad 64" d="M0,2.669V0H1.334Z" transform="translate(2.094 2.538) rotate(162)" fill="#fc0"/>
              </g>
            </g>
            <g id="Gruppe_42" data-name="Gruppe 42" transform="translate(4.122 5.574) rotate(180)">
              <g id="Gruppe_40" data-name="Gruppe 40" transform="translate(0.532 4.025) rotate(-72)">
                <path id="t-34" data-name="t" d="M0,2.669V0H1.334Z" transform="translate(0.444 0.412) rotate(-18)" fill="#fc0"/>
                <path id="Pfad_65" data-name="Pfad 65" d="M0,0V2.669H1.334Z" transform="translate(1.269 2.95) rotate(-162)" fill="#fc0"/>
              </g>
              <g id="Gruppe_41" data-name="Gruppe 41" transform="matrix(-0.809, -0.588, 0.588, -0.809, 2.053, 3.879)">
                <path id="t-35" data-name="t" d="M0,2.669V0H1.334Z" transform="translate(0.444 0.412) rotate(-18)" fill="#fc0"/>
                <path id="Pfad_66" data-name="Pfad 66" d="M0,0V2.669H1.334Z" transform="translate(1.269 2.95) rotate(-162)" fill="#fc0"/>
              </g>
            </g>
          </g>
        </g>
        <g id="Gruppe_74" data-name="Gruppe 74" transform="translate(37.884 36.231) rotate(180)">
          <g id="Gruppe_49" data-name="Gruppe 49" transform="translate(0 14.646)">
            <g id="c-8" data-name="c" transform="translate(1.661 2.623)">
              <path id="t-36" data-name="t" d="M0,2.669V0H1.334Z" transform="translate(0.444 0.412) rotate(-18)" fill="#fc0"/>
              <path id="Pfad_67" data-name="Pfad 67" d="M0,0V2.669H1.334Z" transform="translate(1.269 2.95) rotate(-162)" fill="#fc0"/>
            </g>
            <g id="a-8" data-name="a" transform="translate(1.738 0)">
              <g id="Gruppe_44" data-name="Gruppe 44" transform="translate(0.532 4.025) rotate(-72)">
                <path id="t-37" data-name="t" d="M0,2.669V0H1.334Z" transform="translate(0.444 0.412) rotate(-18)" fill="#fc0"/>
                <path id="Pfad_68" data-name="Pfad 68" d="M0,0V2.669H1.334Z" transform="translate(1.269 2.95) rotate(-162)" fill="#fc0"/>
              </g>
              <g id="Gruppe_45" data-name="Gruppe 45" transform="matrix(-0.809, -0.588, 0.588, -0.809, 2.053, 3.879)">
                <path id="t-38" data-name="t" d="M0,2.669V0H1.334Z" transform="translate(0.444 0.412) rotate(-18)" fill="#fc0"/>
                <path id="Pfad_69" data-name="Pfad 69" d="M0,0V2.669H1.334Z" transform="translate(1.269 2.95) rotate(-162)" fill="#fc0"/>
              </g>
            </g>
            <g id="Gruppe_48" data-name="Gruppe 48" transform="translate(4.122 4.936) rotate(180)">
              <g id="Gruppe_46" data-name="Gruppe 46" transform="translate(3.338 0) rotate(72)">
                <path id="t-39" data-name="t" d="M0,0V2.669H1.334Z" transform="translate(1.269 0) rotate(18)" fill="#fc0"/>
                <path id="Pfad_70" data-name="Pfad 70" d="M0,2.669V0H1.334Z" transform="translate(2.094 2.538) rotate(162)" fill="#fc0"/>
              </g>
              <g id="Gruppe_47" data-name="Gruppe 47" transform="matrix(-0.809, 0.588, -0.588, -0.809, 3.787, 3.445)">
                <path id="t-40" data-name="t" d="M0,0V2.669H1.334Z" transform="translate(1.269 0) rotate(18)" fill="#fc0"/>
                <path id="Pfad_71" data-name="Pfad 71" d="M0,2.669V0H1.334Z" transform="translate(2.094 2.538) rotate(162)" fill="#fc0"/>
              </g>
            </g>
          </g>
          <g id="Gruppe_55" data-name="Gruppe 55" transform="matrix(-0.809, 0.588, -0.588, -0.809, 15.014, 32.045)">
            <g id="c-9" data-name="c" transform="translate(1.661 2.623)">
              <path id="t-41" data-name="t" d="M0,2.669V0H1.334Z" transform="translate(0.444 0.412) rotate(-18)" fill="#fc0"/>
              <path id="Pfad_72" data-name="Pfad 72" d="M0,0V2.669H1.334Z" transform="translate(1.269 2.95) rotate(-162)" fill="#fc0"/>
            </g>
            <g id="a-9" data-name="a" transform="translate(1.738 0)">
              <g id="Gruppe_50" data-name="Gruppe 50" transform="translate(0.532 4.025) rotate(-72)">
                <path id="t-42" data-name="t" d="M0,2.669V0H1.334Z" transform="translate(0.444 0.412) rotate(-18)" fill="#fc0"/>
                <path id="Pfad_73" data-name="Pfad 73" d="M0,0V2.669H1.334Z" transform="translate(1.269 2.95) rotate(-162)" fill="#fc0"/>
              </g>
              <g id="Gruppe_51" data-name="Gruppe 51" transform="matrix(-0.809, -0.588, 0.588, -0.809, 2.053, 3.879)">
                <path id="t-43" data-name="t" d="M0,2.669V0H1.334Z" transform="translate(0.444 0.412) rotate(-18)" fill="#fc0"/>
                <path id="Pfad_74" data-name="Pfad 74" d="M0,0V2.669H1.334Z" transform="translate(1.269 2.95) rotate(-162)" fill="#fc0"/>
              </g>
            </g>
            <g id="Gruppe_54" data-name="Gruppe 54" transform="translate(4.122 4.936) rotate(180)">
              <g id="Gruppe_52" data-name="Gruppe 52" transform="translate(3.338 0) rotate(72)">
                <path id="t-44" data-name="t" d="M0,0V2.669H1.334Z" transform="translate(1.269 0) rotate(18)" fill="#fc0"/>
                <path id="Pfad_75" data-name="Pfad 75" d="M0,2.669V0H1.334Z" transform="translate(2.094 2.538) rotate(162)" fill="#fc0"/>
              </g>
              <g id="Gruppe_53" data-name="Gruppe 53" transform="matrix(-0.809, 0.588, -0.588, -0.809, 3.788, 3.445)">
                <path id="t-45" data-name="t" d="M0,0V2.669H1.334Z" transform="translate(1.269 0) rotate(18)" fill="#fc0"/>
                <path id="Pfad_76" data-name="Pfad 76" d="M0,2.669V0H1.334Z" transform="translate(2.094 2.538) rotate(162)" fill="#fc0"/>
              </g>
            </g>
          </g>
          <g id="Gruppe_61" data-name="Gruppe 61" transform="matrix(-0.809, -0.588, 0.588, -0.809, 5.738, 29.629)">
            <g id="c-10" data-name="c" transform="translate(1.661 2.623)">
              <path id="t-46" data-name="t" d="M0,2.669V0H1.334Z" transform="translate(0.444 0.412) rotate(-18)" fill="#fc0"/>
              <path id="Pfad_77" data-name="Pfad 77" d="M0,0V2.669H1.334Z" transform="translate(1.269 2.95) rotate(-162)" fill="#fc0"/>
            </g>
            <g id="a-10" data-name="a" transform="translate(1.738 0)">
              <g id="Gruppe_56" data-name="Gruppe 56" transform="translate(0.532 4.025) rotate(-72)">
                <path id="t-47" data-name="t" d="M0,2.669V0H1.334Z" transform="translate(0.444 0.412) rotate(-18)" fill="#fc0"/>
                <path id="Pfad_78" data-name="Pfad 78" d="M0,0V2.669H1.334Z" transform="translate(1.269 2.95) rotate(-162)" fill="#fc0"/>
              </g>
              <g id="Gruppe_57" data-name="Gruppe 57" transform="matrix(-0.809, -0.588, 0.588, -0.809, 2.053, 3.879)">
                <path id="t-48" data-name="t" d="M0,2.669V0H1.334Z" transform="translate(0.444 0.412) rotate(-18)" fill="#fc0"/>
                <path id="Pfad_79" data-name="Pfad 79" d="M0,0V2.669H1.334Z" transform="translate(1.269 2.95) rotate(-162)" fill="#fc0"/>
              </g>
            </g>
            <g id="Gruppe_60" data-name="Gruppe 60" transform="translate(4.122 4.936) rotate(180)">
              <g id="Gruppe_58" data-name="Gruppe 58" transform="translate(3.338 0) rotate(72)">
                <path id="t-49" data-name="t" d="M0,0V2.669H1.334Z" transform="translate(1.269 0) rotate(18)" fill="#fc0"/>
                <path id="Pfad_80" data-name="Pfad 80" d="M0,2.669V0H1.334Z" transform="translate(2.094 2.538) rotate(162)" fill="#fc0"/>
              </g>
              <g id="Gruppe_59" data-name="Gruppe 59" transform="matrix(-0.809, 0.588, -0.588, -0.809, 3.788, 3.445)">
                <path id="t-50" data-name="t" d="M0,0V2.669H1.334Z" transform="translate(1.269 0) rotate(18)" fill="#fc0"/>
                <path id="Pfad_81" data-name="Pfad 81" d="M0,2.669V0H1.334Z" transform="translate(2.094 2.538) rotate(162)" fill="#fc0"/>
              </g>
            </g>
          </g>
          <g id="Gruppe_67" data-name="Gruppe 67" transform="translate(1.407 11.434) rotate(-72)">
            <g id="c-11" data-name="c" transform="translate(1.661 2.623)">
              <path id="t-51" data-name="t" d="M0,2.669V0H1.334Z" transform="translate(0.444 0.412) rotate(-18)" fill="#fc0"/>
              <path id="Pfad_82" data-name="Pfad 82" d="M0,0V2.669H1.334Z" transform="translate(1.269 2.95) rotate(-162)" fill="#fc0"/>
            </g>
            <g id="a-11" data-name="a" transform="translate(1.738 0)">
              <g id="Gruppe_62" data-name="Gruppe 62" transform="translate(0.532 4.025) rotate(-72)">
                <path id="t-52" data-name="t" d="M0,2.669V0H1.334Z" transform="translate(0.444 0.412) rotate(-18)" fill="#fc0"/>
                <path id="Pfad_83" data-name="Pfad 83" d="M0,0V2.669H1.334Z" transform="translate(1.269 2.95) rotate(-162)" fill="#fc0"/>
              </g>
              <g id="Gruppe_63" data-name="Gruppe 63" transform="matrix(-0.809, -0.588, 0.588, -0.809, 2.053, 3.879)">
                <path id="t-53" data-name="t" d="M0,2.669V0H1.334Z" transform="translate(0.444 0.412) rotate(-18)" fill="#fc0"/>
                <path id="Pfad_84" data-name="Pfad 84" d="M0,0V2.669H1.334Z" transform="translate(1.269 2.95) rotate(-162)" fill="#fc0"/>
              </g>
            </g>
            <g id="Gruppe_66" data-name="Gruppe 66" transform="translate(4.122 4.936) rotate(180)">
              <g id="Gruppe_64" data-name="Gruppe 64" transform="translate(3.338 0) rotate(72)">
                <path id="t-54" data-name="t" d="M0,0V2.669H1.334Z" transform="translate(1.269 0) rotate(18)" fill="#fc0"/>
                <path id="Pfad_85" data-name="Pfad 85" d="M0,2.669V0H1.334Z" transform="translate(2.094 2.538) rotate(162)" fill="#fc0"/>
              </g>
              <g id="Gruppe_65" data-name="Gruppe 65" transform="matrix(-0.809, 0.588, -0.588, -0.809, 3.788, 3.445)">
                <path id="t-55" data-name="t" d="M0,0V2.669H1.334Z" transform="translate(1.269 0) rotate(18)" fill="#fc0"/>
                <path id="Pfad_86" data-name="Pfad 86" d="M0,2.669V0H1.334Z" transform="translate(2.094 2.538) rotate(162)" fill="#fc0"/>
              </g>
            </g>
          </g>
          <g id="Gruppe_73" data-name="Gruppe 73" transform="translate(7.268 5.574) rotate(-72)">
            <g id="c-12" data-name="c" transform="translate(1.661 2.623)">
              <path id="t-56" data-name="t" d="M0,2.669V0H1.334Z" transform="translate(0.444 0.412) rotate(-18)" fill="#fc0"/>
              <path id="Pfad_87" data-name="Pfad 87" d="M0,0V2.669H1.334Z" transform="translate(1.269 2.95) rotate(-162)" fill="#fc0"/>
            </g>
            <g id="a-12" data-name="a" transform="translate(1.738 0)">
              <g id="Gruppe_68" data-name="Gruppe 68" transform="translate(0.532 4.025) rotate(-72)">
                <path id="t-57" data-name="t" d="M0,2.669V0H1.334Z" transform="translate(0.444 0.412) rotate(-18)" fill="#fc0"/>
                <path id="Pfad_88" data-name="Pfad 88" d="M0,0V2.669H1.334Z" transform="translate(1.269 2.95) rotate(-162)" fill="#fc0"/>
              </g>
              <g id="Gruppe_69" data-name="Gruppe 69" transform="matrix(-0.809, -0.588, 0.588, -0.809, 2.053, 3.879)">
                <path id="t-58" data-name="t" d="M0,2.669V0H1.334Z" transform="translate(0.444 0.412) rotate(-18)" fill="#fc0"/>
                <path id="Pfad_89" data-name="Pfad 89" d="M0,0V2.669H1.334Z" transform="translate(1.269 2.95) rotate(-162)" fill="#fc0"/>
              </g>
            </g>
            <g id="Gruppe_72" data-name="Gruppe 72" transform="translate(4.122 4.936) rotate(180)">
              <g id="Gruppe_70" data-name="Gruppe 70" transform="translate(3.338 0) rotate(72)">
                <path id="t-59" data-name="t" d="M0,0V2.669H1.334Z" transform="translate(1.269 0) rotate(18)" fill="#fc0"/>
                <path id="Pfad_90" data-name="Pfad 90" d="M0,2.669V0H1.334Z" transform="translate(2.094 2.538) rotate(162)" fill="#fc0"/>
              </g>
              <g id="Gruppe_71" data-name="Gruppe 71" transform="matrix(-0.809, 0.588, -0.588, -0.809, 3.788, 3.445)">
                <path id="t-60" data-name="t" d="M0,0V2.669H1.334Z" transform="translate(1.269 0) rotate(18)" fill="#fc0"/>
                <path id="Pfad_91" data-name="Pfad 91" d="M0,2.669V0H1.334Z" transform="translate(2.094 2.538) rotate(162)" fill="#fc0"/>
              </g>
            </g>
          </g>
        </g>
      </g>
    </g>
    <text id="Climate-KIC_is_supported_by_the_EIT_a_body_of_the_European_Union" data-name="Climate-KIC is supported by the
EIT, a body of the European Union" transform="translate(1847.987 1028.921)" fill="rgba(255,255,255,0.8)" font-size="16" font-family="RobotoCondensed-Regular, Roboto Condensed" letter-spacing="0.089em"><tspan x="-241.12" y="0">Climate-KIC is supported by the</tspan><tspan x="-255.557" y="19">EIT, a body of the European Union</tspan></text>
  </g>
</svg>
