<?xml version="1.0" encoding="utf-8"?>
<!-- Generator: Adobe Illustrator 23.0.4, SVG Export Plug-In . SVG Version: 6.00 Build 0)  -->
<svg version="1.1" id="Ebene_1" xmlns="http://www.w3.org/2000/svg" xmlns:xlink="http://www.w3.org/1999/xlink" x="0px" y="0px"
	 viewBox="0 0 500 500" style="enable-background:new 0 0 500 500;" xml:space="preserve">
<style type="text/css">
	.st0{fill:#FFFFFF;}
	.st1{fill:#1D1D1B;}
</style>
<g>
	<rect class="st0" width="500" height="500"/>
</g>
<g>
	<g>
		<path class="st1" d="M35.18,258.429c0,2.606,0,4.033,1.033,5.361c1.131,1.426,3,1.622,4.033,1.622
			c3.442,0,4.475-2.065,4.475-5.655c0-3.935-1.082-5.41-5.066-9.345c-3.885-3.886-6.049-6.049-6.049-10.919
			c0-2.902,0.443-7.673,6.541-7.673c6.492,0,6.492,4.721,6.492,8.017v2.509h-2.361v-3.099c0-2.115,0-5.361-4.081-5.361
			c-3.148,0-4.181,1.82-4.181,5.214c0,3.393,0.689,4.82,5.901,10.131c3.59,3.69,5.214,5.362,5.214,10.083
			c0,3.294-0.443,8.262-7.082,8.262c-4.033,0-7.279-2.065-7.279-7.033v-4.869h2.409V258.429z"/>
		<path class="st1" d="M66.504,232.263v2.214h-6.197v32.558h-2.41v-32.558h-6.049v-2.214H66.504z"/>
		<path class="st1" d="M78.101,232.116l6.295,34.919h-2.557l-1.77-10.574H72.79l-1.82,10.574h-2.558l6.345-34.919H78.101z
			 M76.921,238.116c-0.098-0.491-0.296-2.016-0.492-3.294c-0.049,0.491-0.098,0.934-0.148,1.426
			c-0.098,0.491-0.147,1.033-0.245,1.574l-2.853,16.377h6.443L76.921,238.116z"/>
		<path class="st1" d="M90.534,232.313h6.689c2.655,0,6.885,0.393,6.885,6.049v5.41c0,1.426,0,5.214-4.868,6.147l6.394,17.116
			h-2.557l-6.345-16.918h-3.787v16.918h-2.41V232.313z M92.945,234.379v13.672h4.377c2.705,0,4.229-1.082,4.229-3.688v-5.362
			c0-3.983-1.721-4.622-4.082-4.622H92.945z"/>
		<path class="st1" d="M123.683,232.263v2.214h-6.197v32.558h-2.41v-32.558h-6.049v-2.214H123.683z"/>
		<path class="st1" d="M129.338,232.263h2.361v26.953c0,2.409,0,6.147,4.623,6.147c1.328,0,2.754-0.443,3.59-1.672
			c0.737-0.983,0.837-2.115,0.837-5.902v-25.526h2.409v27.838c0,1.426,0,7.525-6.984,7.525c-1.476,0-3.196-0.394-4.426-1.328
			c-2.41-1.82-2.41-4.673-2.41-7.476V232.263z"/>
		<path class="st1" d="M155.512,232.263c3,0,5.41,0.148,6.934,2.066c1.131,1.426,1.229,3.197,1.229,5.705v3.935
			c0,1.77,0,4.131-2.115,5.755c-1.918,1.524-4.623,1.524-5.459,1.524h-3.542v15.838h-2.459v-34.822H155.512z M152.512,234.329
			v14.853h3.885c4.672,0,4.918-2.951,4.918-5.214v-3c0-5.361-0.639-6.64-5.114-6.64H152.512z"/>
	</g>
	<g>
		<path class="st1" d="M221.21,232.313v34.723h-8.312l0.541-24.739l0.098-3.492l-0.295,1.229c-0.443,1.968-0.492,2.214-0.885,3.688
			l-6.541,23.313h-7.476l-6.295-22.328l-1.524-6.197c0.148,2.754,0.148,3.344,0.295,6.64l0.443,21.886h-8.41v-34.723h12.689
			l5.312,19.476l1.229,5.557c0.492-2.409,0.541-2.655,0.935-4.279l5.557-20.754H221.21z"/>
		<path class="st1" d="M247.789,232.313l12.788,34.723h-9.247l-1.722-5.558h-12.787l-1.722,5.558h-9.247l12.886-34.723H247.789z
			 M243.117,240.575c-0.443,1.771-0.935,3.59-1.426,5.362c-0.738,2.607-2.066,6.688-2.853,9.295h8.804L243.117,240.575z"/>
		<path class="st1" d="M265.201,232.313h8.508l7.525,12.787c2.755,4.869,3.59,6.443,5.214,9.493l-0.394-22.28h8.312v34.723h-8.508
			l-6.492-10.967c-3.148-5.165-3.738-6.247-6.099-10.87l0.246,21.837h-8.312V232.313z"/>
		<path class="st1" d="M302.545,232.313h8.508l7.525,12.787c2.755,4.869,3.59,6.443,5.214,9.493l-0.394-22.28h8.312v34.723h-8.508
			l-6.492-10.967c-3.148-5.165-3.738-6.247-6.099-10.87l0.246,21.837h-8.312V232.313z"/>
		<path class="st1" d="M370.061,232.313v34.723h-8.706v-14.803h-12.689v14.803h-8.754v-34.723h8.754v12.541h12.689v-12.541H370.061z
			"/>
		<path class="st1" d="M378.265,232.313h25.674v6.738h-17.017v6.295h15.886v6.59h-15.886v8.263h18.542v6.836h-27.198V232.313z"/>
		<path class="st1" d="M420.484,232.313v34.723h-8.656v-34.723H420.484z"/>
		<path class="st1" d="M467,232.313v34.723h-8.312l0.541-24.739l0.098-3.492l-0.295,1.229c-0.443,1.968-0.492,2.214-0.885,3.688
			l-6.541,23.313h-7.476l-6.295-22.328l-1.524-6.197c0.148,2.754,0.148,3.344,0.295,6.64l0.443,21.886h-8.41v-34.723h12.689
			l5.312,19.476l1.229,5.557c0.492-2.409,0.541-2.655,0.935-4.279l5.557-20.754H467z"/>
	</g>
</g>
</svg>
